beon_regular.sfdir

StartChar: exclam
Encoding: 33 33 2
Width: 130
Flags: MW
HStem: -30 134<46.5 83.5>
VStem: 35 60<154 644>
LayerCount: 2
Fore
SplineSet
35 154 m 2
 35 644 l 2
 35 661 48 674 65 674 c 0
 82 674 95 661 95 644 c 2
 95 154 l 2
 95 137 82 124 65 124 c 0
 48 124 35 137 35 154 c 2
65 104 m 0
 102 104 132 74 132 37 c 0
 132 0 102 -30 65 -30 c 0
 28 -30 -2 0 -2 37 c 0
 -2 74 28 104 65 104 c 0
EndSplineSet
EndChar

StartChar: quotedbl
Encoding: 34 34 3
Width: 137
Flags: MW
HStem: 462 217<22.5 39.5 97.5 114.5>
VStem: 1 60<492 649> 76 60<492 649>
LayerCount: 2
Fore
SplineSet
1 492 m 2
 1 649 l 2
 1 666 14 679 31 679 c 0
 48 679 61 666 61 649 c 2
 61 492 l 2
 61 475 48 462 31 462 c 0
 14 462 1 475 1 492 c 2
76 492 m 2xe0
 76 649 l 2
 76 666 89 679 106 679 c 0
 123 679 136 666 136 649 c 2
 136 492 l 2
 136 475 123 462 106 462 c 0
 89 462 76 475 76 492 c 2xe0
EndSplineSet
EndChar

StartChar: numbersign
Encoding: 35 35 4
Width: 409
Flags: MW
HStem: -33 21G<33 50> -31 21G 134 60<29.5 65 38 49> 138 60<308 352 127 292> 247 60<29.5 95 38 79> 251 58<157 260 141 276 157 352 157 322>
VStem: 8 374<159.5 172.5 272.5 285.5>
LayerCount: 2
Fore
SplineSet
276 309 m 1x56
 313 450 l 2
 316 464 328 473 342 473 c 0
 362 473 376 454 371 436 c 2
 338 311 l 1
 352 311 l 2
 369 311 382 298 382 281 c 0
 382 264 369 251 352 251 c 2
 322 251 l 1
 308 198 l 1
 352 198 l 2
 369 198 382 185 382 168 c 0
 382 151 369 138 352 138 c 2
 292 138 l 1
 253 -8 l 2
 250 -22 238 -31 224 -31 c 0
 204 -31 190 -12 195 6 c 2
 230 136 l 1
 111 136 l 1x56
 72 -10 l 2
 69 -24 57 -33 43 -33 c 0
 23 -33 9 -14 14 4 c 2
 49 134 l 1
 38 134 l 2
 21 134 8 147 8 164 c 0
 8 181 21 194 38 194 c 2
 65 194 l 1
 79 247 l 1
 38 247 l 2
 21 247 8 260 8 277 c 0
 8 294 21 307 38 307 c 2
 95 307 l 1xaa
 132 448 l 2
 135 462 147 471 161 471 c 0
 181 471 195 452 190 434 c 2
 157 309 l 1
 276 309 l 1x56
127 198 m 1
 246 198 l 1
 260 251 l 1
 141 251 l 1
 127 198 l 1
EndSplineSet
EndChar

StartChar: dollar
Encoding: 36 36 5
Width: 444
Flags: MW
HStem: -132 89<211.5 228.5> -32 62<224.5 242 224.5 244> 561 59<194 205 194 194>
VStem: 27 61<458 463 458 463 458 476> 190 60<-102 -73 -110.5 -64.5 77 229 401 511> 349 60<571 589> 397 59<148 155 155 155>
LayerCount: 2
Fore
SplineSet
189 646 m 2x7c
 189 678 l 2
 189 695 202 708 219 708 c 0
 236 708 249 695 249 678 c 2
 249 646 l 2
 249 633 241 622 230 618 c 1
 243 616 256 613 269 609 c 0
 298 601 325 588 349 571 c 1
 349 589 l 2
 349 606 362 619 379 619 c 0
 396 619 409 606 409 589 c 2
 409 502 l 2
 409 489 402 479 389 475 c 0
 385 474 382 473 378 473 c 0
 369 473 362 477 356 484 c 0xfc
 334 512 299 540 254 553 c 0
 238 558 221 561 205 561 c 2
 194 561 l 1
 174 560 155 555 139 546 c 0
 121 536 108 522 100 509 c 0
 92 495 88 479 88 463 c 2
 88 458 l 1
 89 444 93 430 100 418 c 0
 107 405 117 393 129 383 c 0
 159 358 200 346 219 341 c 0
 263 328 318 319 363 293 c 0
 387 279 409 261 426 238 c 0
 441 218 454 190 456 157 c 1
 456 146 l 2
 456 108 441 72 417 44 c 0
 391 13 355 -7 318 -19 c 0
 289 -28 259 -32 229 -32 c 0
 215 -32 201 -31 187 -29 c 0
 138 -23 91 -6 49 18 c 0
 35 26 21 35 8 45 c 0
 0 51 -4 60 -4 69 c 0
 -4 76 -2 82 2 87 c 0
 8 95 17 99 26 99 c 0
 33 99 39 97 44 93 c 0
 57 84 65 78 79 72 c 1
 115 51 155 37 196 32 c 0
 207 31 219 30 230 30 c 0
 254 30 278 33 300 40 c 0
 329 49 355 65 372 85 c 0
 388 103 397 126 397 148 c 2
 397 155 l 1
 396 172 389 189 378 204 c 0
 367 219 351 232 333 242 c 0x7a
 295 264 246 272 201 285 c 0
 163 296 123 311 89 339 c 0
 72 353 57 370 46 390 c 0
 35 410 28 432 27 455 c 1
 27 463 l 2
 27 489 34 515 47 538 c 0
 59 559 79 581 108 597 c 0
 133 611 161 618 189 620 c 1
 205 620 l 1
 195 625 189 635 189 646 c 2x7c
190 401 m 2
 190 511 l 2
 190 528 203 541 220 541 c 0
 237 541 250 528 250 511 c 2
 250 401 l 2
 250 384 237 371 220 371 c 0
 203 371 190 384 190 401 c 2
190 77 m 2
 190 229 l 2
 190 246 203 259 220 259 c 0
 237 259 250 246 250 229 c 2
 250 77 l 2
 250 60 237 47 220 47 c 0
 203 47 190 60 190 77 c 2
190 -102 m 2
 190 -73 l 2
 190 -56 203 -43 220 -43 c 0
 237 -43 250 -56 250 -73 c 2
 250 -102 l 2
 250 -119 237 -132 220 -132 c 0
 203 -132 190 -119 190 -102 c 2
EndSplineSet
EndChar

StartChar: percent
Encoding: 37 37 6
Width: 631
Flags: MW
HStem: -30 57<477 479 477 479 479 483> 276 62<471 473 473 475> 314 57<138 140 138 140 140 144> 620 62<132 134 134 136>
VStem: -7 60<489 520> 221 61<477 509> 332 60<145 176> 560 61<133 165>
LayerCount: 2
Fore
SplineSet
-5 503 m 1xbf
 -7 502 l 1
 -7 538 -1 576 19 610 c 0
 30 629 45 647 65 660 c 0
 88 675 112 681 132 682 c 1
 136 682 l 2
 156 682 180 677 203 663 c 0
 224 651 240 634 252 615 c 0
 277 575 282 531 282 495 c 0
 282 458 276 418 255 382 c 0
 244 364 229 347 210 335 c 0
 188 321 164 315 144 314 c 1
 140 314 l 2
 117 314 95 320 76 331 c 0
 56 343 40 359 28 377 c 0
 4 413 -4 454 -5 492 c 1
 -5 503 l 1xbf
40 18 m 2
 532 662 l 2
 538 670 547 674 556 674 c 0
 563 674 569 672 574 668 c 0
 582 662 586 653 586 644 c 0
 586 637 584 631 580 626 c 2
 88 -18 l 2
 82 -26 73 -30 64 -30 c 0
 57 -30 51 -28 46 -24 c 0
 38 -18 34 -9 34 0 c 0
 34 7 36 13 40 18 c 2
136 620 m 2
 134 620 l 2
 123 620 110 617 98 609 c 0
 87 602 78 592 71 580 c 0
 58 558 53 531 53 502 c 2
 53 489 l 1
 54 458 61 429 76 406 c 0
 83 395 93 386 104 380 c 0
 114 374 126 371 138 371 c 2
 140 371 l 2
 151 371 164 374 176 382 c 0
 186 389 195 399 202 410 c 0
 216 433 221 462 221 492 c 0
 221 526 215 556 200 581 c 0
 193 593 183 603 172 610 c 0
 160 617 147 620 136 620 c 2
334 159 m 1
 332 158 l 1xbf
 332 194 338 232 358 266 c 0
 369 285 384 303 404 316 c 0
 427 331 451 337 471 338 c 1
 475 338 l 2
 495 338 519 333 542 319 c 0
 563 307 579 290 591 271 c 0xdf
 616 231 621 187 621 151 c 0
 621 114 615 74 594 38 c 0
 583 20 568 3 549 -9 c 0
 527 -23 503 -29 483 -30 c 1
 479 -30 l 2
 456 -30 434 -24 415 -13 c 0
 395 -1 379 15 367 33 c 0
 343 69 335 110 334 148 c 1
 334 159 l 1
475 276 m 2xdf
 473 276 l 2
 462 276 449 273 437 265 c 0
 426 258 417 248 410 236 c 0
 397 214 392 187 392 158 c 2
 392 145 l 1
 393 114 400 85 415 62 c 0
 422 51 432 42 443 36 c 0
 453 30 465 27 477 27 c 2
 479 27 l 2
 490 27 503 30 515 38 c 0
 525 45 534 55 541 66 c 0
 555 89 560 118 560 148 c 0
 560 182 554 212 539 237 c 0
 532 249 522 259 511 266 c 0
 499 273 486 276 475 276 c 2xdf
EndSplineSet
EndChar

StartChar: ampersand
Encoding: 38 38 7
Width: 705
Flags: MW
HStem: -35 62<195 209.5> -29 57<509 528 509 528> 252 60<506 509 509 510 506 506> 579 62<249 254 254 256 249 249>
VStem: -12 61<166 182 166 183> 105 64<482.5 490 482 495.5> 324 60<516 521 507 526 507 526> 529 60<227.5 238>
LayerCount: 2
Fore
SplineSet
442 11 m 1x7f
 140 389 l 2
 124 410 113 434 108 460 c 0
 106 469 105 478 105 487 c 0
 105 504 108 521 113 537 c 0
 121 560 136 586 161 607 c 0
 183 626 211 638 240 641 c 1
 254 641 l 2
 281 641 308 633 331 617 c 0
 356 599 376 571 382 537 c 0
 383 531 384 525 384 517 c 0
 384 497 379 477 370 459 c 0
 360 440 345 420 322 403 c 0
 309 393 295 385 281 378 c 0
 277 376 272 375 268 375 c 0
 257 375 246 381 241 392 c 0
 239 396 238 401 238 405 c 0
 238 416 244 427 255 432 c 0
 266 437 276 443 285 450 c 0
 300 461 310 473 316 485 c 0
 321 495 324 506 324 516 c 2
 324 526 l 1
 320 548 305 562 298 567 c 0
 284 576 268 579 256 579 c 2
 249 579 l 1
 230 577 214 568 203 559 c 0
 191 549 180 534 174 515 c 0
 171 505 169 495 169 485 c 0
 169 479 170 473 171 467 c 0
 174 451 181 436 191 423 c 2
 493 45 l 2
 497 40 507 30 522 28 c 1
 528 28 l 2
 538 28 546 31 552 35 c 0
 557 38 566 46 570 60 c 0
 573 73 585 82 598 82 c 0
 619 82 632 63 627 45 c 0
 611 -12 564 -29 522 -29 c 2
 509 -29 l 1
 482 -25 458 -11 442 11 c 1x7f
98 293 m 2
 99 294 l 2x7f
 72 268 54 233 50 197 c 0
 49 191 49 185 49 179 c 0
 49 153 56 127 69 105 c 0
 84 78 109 55 138 42 c 0
 159 32 183 27 207 27 c 0
 215 27 223 28 231 29 c 0
 258 33 289 45 317 69 c 1
 324 76 l 2
 330 81 337 84 344 84 c 0
 352 84 360 80 366 74 c 0
 371 68 374 61 374 54 c 0
 374 46 370 38 364 32 c 2
 354 22 l 1
 316 -10 274 -26 237 -32 c 0
 226 -34 215 -35 204 -35 c 0
 172 -35 140 -28 111 -14 c 0xbf
 71 5 37 36 15 75 c 0
 -3 107 -12 143 -12 179 c 0
 -12 187 -12 195 -11 203 c 0
 -5 254 20 301 56 336 c 0
 62 342 69 348 76 353 c 0
 82 357 88 359 95 359 c 0
 103 359 112 355 118 348 c 0
 122 342 124 336 124 329 c 0
 124 321 120 312 113 306 c 0
 108 302 103 298 98 293 c 2
510 252 m 2xbf
 506 252 l 1
 497 251 490 246 484 241 c 0
 473 231 466 216 463 209 c 2
 451 183 l 2
 446 171 435 164 423 164 c 0
 406 164 394 179 394 194 c 0
 394 197 395 201 396 204 c 0
 403 222 421 268 440 285 c 1
 459 300 473 309 496 312 c 1
 505 312 l 1
 509 312 l 2
 529 312 549 305 565 290 c 0
 580 276 589 257 589 236 c 0
 589 219 576 206 559 206 c 0
 542 206 529 219 529 236 c 0
 529 240 528 244 524 247 c 0
 520 251 514 252 510 252 c 2xbf
EndSplineSet
EndChar

StartChar: quotesingle
Encoding: 39 39 8
Width: 161
Flags: MW
HStem: 466 212<39.5 82>
VStem: 14 137<494.5 600 596 600 600 604 592 629.5>
LayerCount: 2
Fore
SplineSet
81 678 m 2
 82 678 l 2
 128 678 149 636 151 604 c 1
 151 600 l 2
 151 584 147 566 137 548 c 0
 128 533 118 521 108 510 c 0
 100 501 81 482 59 470 c 0
 54 468 50 466 45 466 c 0
 34 466 24 473 18 483 c 0
 16 488 14 492 14 497 c 0
 14 508 21 518 31 524 c 0
 42 530 54 541 60 547 c 1
 33 556 14 581 14 611 c 0
 14 648 44 678 81 678 c 2
EndSplineSet
EndChar

StartChar: parenleft
Encoding: 40 40 9
Width: 242
Flags: MW
HStem: -56 732<157 164.5>
VStem: 46 60<255 310>
LayerCount: 2
Fore
SplineSet
46 310 m 1
 45 312 l 1
 45 433 76 554 134 660 c 0
 139 670 150 676 160 676 c 0
 180 676 191 661 191 646 c 0
 191 641 189 636 187 631 c 0
 134 533 106 422 106 311 c 0
 106 199 135 87 189 -11 c 0
 192 -16 193 -21 193 -26 c 0
 193 -36 187 -47 177 -52 c 0
 172 -55 167 -56 162 -56 c 0
 152 -56 141 -50 136 -40 c 0
 77 67 46 188 46 310 c 1
EndSplineSet
EndChar

StartChar: parenright
Encoding: 41 41 10
Width: 242
Flags: MW
HStem: -57 730<66.5 73>
VStem: 124 60<254 310>
LayerCount: 2
Fore
SplineSet
124 310 m 1
 123 308 l 1
 123 419 95 530 42 628 c 0
 39 633 38 638 38 643 c 0
 38 653 44 664 54 669 c 0
 59 672 64 673 69 673 c 0
 79 673 90 667 95 657 c 0
 153 551 184 430 184 309 c 0
 184 187 153 66 94 -41 c 0
 89 -51 78 -57 68 -57 c 0
 48 -57 37 -42 37 -27 c 0
 37 -22 39 -17 41 -12 c 0
 95 86 124 198 124 310 c 1
EndSplineSet
EndChar

StartChar: asterisk
Encoding: 42 42 11
Width: 267
Flags: MW
HStem: 414 258<125.5 142.5>
VStem: 104 60<444 492 435.5 492 594 642>
LayerCount: 2
Fore
SplineSet
104 594 m 1
 104 642 l 2
 104 659 117 672 134 672 c 0
 151 672 164 659 164 642 c 2
 164 594 l 1
 206 618 l 2
 211 621 215 622 220 622 c 0
 231 622 241 616 246 607 c 0
 249 602 250 598 250 593 c 0
 250 582 244 572 235 567 c 2
 193 543 l 1
 235 519 l 2
 244 514 250 504 250 493 c 0
 250 475 235 464 220 464 c 0
 216 464 211 466 206 468 c 2
 164 492 l 1
 164 444 l 2
 164 427 151 414 134 414 c 0
 117 414 104 427 104 444 c 2
 104 492 l 1
 62 468 l 2
 57 465 53 464 48 464 c 0
 37 464 27 470 22 479 c 0
 19 484 18 488 18 493 c 0
 18 504 24 514 33 519 c 2
 75 543 l 1
 33 567 l 2
 24 572 18 582 18 593 c 0
 18 611 33 622 48 622 c 0
 53 622 58 621 62 618 c 2
 104 594 l 1
EndSplineSet
EndChar

StartChar: plus
Encoding: 43 43 12
Width: 409
Flags: MW
HStem: 251 60<58.5 172 67 172 232 335>
VStem: 172 60<144 251 311 412>
LayerCount: 2
Fore
SplineSet
172 311 m 1
 172 412 l 2
 172 429 185 442 202 442 c 0
 219 442 232 429 232 412 c 2
 232 311 l 1
 335 311 l 2
 352 311 365 298 365 281 c 0
 365 264 352 251 335 251 c 2
 232 251 l 1
 232 144 l 2
 232 127 219 114 202 114 c 0
 185 114 172 127 172 144 c 2
 172 251 l 1
 67 251 l 2
 50 251 37 264 37 281 c 0
 37 298 50 311 67 311 c 2
 172 311 l 1
EndSplineSet
EndChar

StartChar: comma
Encoding: 44 44 13
Width: 208
Flags: MW
HStem: -109 212<63 104>
VStem: 32 135<23 26 26 30 18 56>
LayerCount: 2
Fore
SplineSet
97 103 m 2
 104 103 l 2
 116 103 143 88 154 70 c 0
 161 60 166 46 167 30 c 1
 167 26 l 2
 167 10 163 -8 153 -26 c 0
 144 -41 134 -53 124 -64 c 0
 112 -77 100 -89 88 -101 c 0
 82 -106 75 -109 67 -109 c 0
 59 -109 52 -106 46 -100 c 0
 41 -94 38 -87 38 -79 c 0
 38 -71 41 -64 47 -58 c 0
 58 -47 69 -36 79 -25 c 1
 52 -17 32 8 32 38 c 0
 32 74 61 103 97 103 c 2
EndSplineSet
EndChar

StartChar: hyphen
Encoding: 45 45 14
Width: 203
Flags: MW
HStem: 251 60<6.5 185 15 185>
VStem: -15 230<272.5 289.5>
LayerCount: 2
Fore
SplineSet
15 311 m 2
 185 311 l 2
 202 311 215 298 215 281 c 0
 215 264 202 251 185 251 c 2
 15 251 l 2
 -2 251 -15 264 -15 281 c 0
 -15 298 -2 311 15 311 c 2
EndSplineSet
EndChar

StartChar: period
Encoding: 46 46 15
Width: 170
Flags: MW
HStem: -30 134<65.5 102.5>
VStem: 17 134<18.5 55.5>
LayerCount: 2
Fore
SplineSet
84 104 m 0
 121 104 151 74 151 37 c 0
 151 0 121 -30 84 -30 c 0
 47 -30 17 0 17 37 c 0
 17 74 47 104 84 104 c 0
EndSplineSet
EndChar

StartChar: slash
Encoding: 47 47 16
Width: 320
Flags: MW
HStem: -39 704<55 275>
VStem: 34 262
LayerCount: 2
Fore
SplineSet
35 0 m 2
 237 644 l 2
 241 657 253 665 266 665 c 0
 284 665 296 651 296 635 c 0
 296 632 296 629 295 626 c 2
 93 -18 l 2
 89 -31 77 -39 64 -39 c 0
 46 -39 34 -25 34 -9 c 0
 34 -6 34 -3 35 0 c 2
EndSplineSet
EndChar

StartChar: zero
Encoding: 48 48 17
Width: 615
Flags: MW
HStem: -34 63<287 311 307 311 307 313> 583 59<295 299 295 301>
VStem: 46 58<296 315 296 348.5> 500 61<275.5 335>
LayerCount: 2
Fore
SplineSet
295 642 m 1
 301 642 l 2
 343 642 384 630 419 609 c 0
 455 587 484 556 505 522 c 0
 548 453 561 374 561 297 c 0
 561 226 549 152 510 87 c 0
 490 54 463 24 429 2 c 0
 395 -20 355 -33 313 -34 c 1
 307 -34 l 2
 267 -34 228 -23 194 -3 c 0
 158 18 129 47 107 80 c 0
 66 142 46 227 46 311 c 0
 46 386 62 459 94 515 c 0
 114 550 141 581 176 604 c 0
 216 631 259 641 295 642 c 1
104 315 m 2
 104 296 l 1
 109 232 124 164 157 114 c 0
 174 88 197 66 223 51 c 0
 248 37 278 29 307 29 c 2
 311 29 l 1
 341 30 371 40 396 56 c 0
 421 72 442 95 458 121 c 0
 494 181 500 251 500 300 c 0
 500 370 488 436 453 492 c 0
 436 519 413 543 386 559 c 0
 360 574 329 583 299 583 c 2
 295 583 l 1
 268 582 236 574 206 554 c 0
 180 537 159 513 143 486 c 0
 110 428 104 362 104 315 c 2
EndSplineSet
EndChar

StartChar: one
Encoding: 49 49 18
Width: 318
Flags: MW
HStem: -30 21G<194.5 211.5> 622 20G<199.5 207.5>
VStem: 173 60<0 502>
LayerCount: 2
Fore
SplineSet
33 548 m 2
 188 638 l 2
 193 641 197 642 202 642 c 0
 213 642 223 636 228 627 c 0
 231 622 232 618 232 613 c 0
 232 602 226 592 217 587 c 2
 62 497 l 2
 57 494 53 493 48 493 c 0
 37 493 27 499 22 508 c 0
 19 513 18 517 18 522 c 0
 18 533 24 543 33 548 c 2
173 0 m 2
 173 502 l 2
 173 519 186 532 203 532 c 0
 220 532 233 519 233 502 c 2
 233 0 l 2
 233 -17 220 -30 203 -30 c 0
 186 -30 173 -17 173 0 c 2
EndSplineSet
EndChar

StartChar: two
Encoding: 50 50 19
Width: 513
Flags: MW
HStem: -30 60<157.5 422 166 422> 582 57<250 266 262 266>
VStem: 57 61<3 23 3 47.5> 383 61<471 480>
LayerCount: 2
Fore
SplineSet
264 639 m 2
 266 639 l 2
 300 639 343 629 379 602 c 0
 411 578 433 543 441 505 c 0
 443 495 444 485 444 475 c 0
 444 456 441 437 435 419 c 0
 426 392 411 368 393 347 c 0
 354 300 304 267 260 234 c 0
 192 184 166 151 150 126 c 0
 129 93 118 55 118 18 c 2
 118 3 l 1
 119 -15 106 -30 88 -30 c 0
 73 -30 59 -18 58 -3 c 0
 57 4 57 11 57 18 c 2
 57 23 l 2
 57 72 72 120 98 162 c 0
 130 213 177 252 223 286 c 0
 269 320 315 351 346 388 c 0
 360 405 371 423 377 441 c 0
 381 453 383 465 383 477 c 0
 383 483 382 489 381 495 c 0
 377 518 363 540 342 556 c 0
 317 575 287 582 264 582 c 2
 262 582 l 2
 238 582 208 575 182 556 c 0
 159 540 143 517 137 493 c 0
 134 479 122 470 108 470 c 0
 88 470 74 489 79 507 c 0
 89 546 114 580 148 604 c 0
 186 630 229 639 264 639 c 2
166 30 m 2
 422 30 l 2
 439 30 452 17 452 0 c 0
 452 -17 439 -30 422 -30 c 2
 166 -30 l 2
 149 -30 136 -17 136 0 c 0
 136 17 149 30 166 30 c 2
EndSplineSet
EndChar

StartChar: three
Encoding: 51 51 20
Width: 521
Flags: MW
HStem: -35 60<219.5 257.5 219.5 264.5> 310 60<224.5 238 224.5 239.5> 582 59<247.5 256 253 255>
VStem: 367 59<475.5 490.5> 399 62<156.5 179>
LayerCount: 2
Fore
SplineSet
253 641 m 2xe8
 256 641 l 2xe8
 268 641 280 640 292 638 c 0
 304 636 316 632 327 627 c 0
 338 622 349 616 359 609 c 0
 369 602 378 594 386 585 c 0
 394 576 401 566 407 555 c 0
 420 532 426 512 426 481 c 0
 426 446 417 419 399 392 c 0
 393 383 386 374 378 366 c 0
 370 358 361 351 352 344 c 0
 340 335 327 328 313 323 c 0
 300 318 286 315 272 313 c 0
 259 311 246 310 233 310 c 0
 216 310 203 323 203 340 c 0
 203 357 216 370 233 370 c 0
 243 370 253 371 263 373 c 0
 273 375 283 377 292 380 c 0
 301 384 310 389 318 395 c 0
 324 399 330 404 335 409 c 0
 340 415 345 421 349 427 c 0
 361 444 367 469 367 482 c 0
 367 499 365 509 355 526 c 0
 351 533 346 539 341 545 c 0
 336 551 330 556 323 561 c 0
 317 565 310 569 303 572 c 0
 295 575 287 577 279 579 c 0xf0
 271 581 263 582 255 582 c 2
 252 582 l 2
 243 582 234 581 225 579 c 0
 216 577 208 574 200 570 c 0
 192 566 185 562 179 557 c 0
 173 552 167 546 162 540 c 0
 157 534 153 527 150 520 c 0
 147 513 145 506 144 499 c 0
 141 485 128 475 114 475 c 0
 98 475 85 489 85 505 c 0
 85 521 90 532 97 543 c 1
 102 554 109 565 117 575 c 0
 125 585 134 594 144 602 c 0
 154 610 165 617 177 623 c 0
 189 629 201 633 214 636 c 0
 227 639 240 641 253 641 c 2xe8
433 265 m 1
 434 264 l 1
 452 234 461 200 461 166 c 0
 461 137 455 102 436 68 c 0
 419 38 394 13 363 -5 c 0
 331 -23 289 -35 240 -35 c 0
 198 -35 144 -25 99 7 c 0
 82 19 67 33 55 49 c 0
 51 54 49 60 49 67 c 0
 49 76 53 85 61 91 c 0
 66 95 72 97 79 97 c 0
 88 97 97 93 103 85 c 0
 111 74 121 64 133 56 c 0
 161 36 200 25 239 25 c 0
 276 25 307 34 331 48 c 0
 353 60 371 78 382 98 c 0
 395 122 399 146 399 167 c 0
 399 191 393 215 381 235 c 0
 373 249 359 260 352 264 c 0
 343 270 338 280 338 290 c 0
 338 295 340 301 343 306 c 0
 349 315 359 320 369 320 c 0
 374 320 380 318 385 315 c 0
 400 305 419 289 433 265 c 1
EndSplineSet
EndChar

StartChar: four
Encoding: 52 52 21
Width: 460
Flags: MW
HStem: -31 21G<344.5 361.5> 166 60<12.5 276 77 276 77 276> 622 20G<290 297.5>
VStem: 323 60<-1 434>
LayerCount: 2
Fore
SplineSet
-5 212 m 2
 269 628 l 2
 275 637 285 642 295 642 c 0
 300 642 306 640 311 637 c 0
 320 631 325 621 325 611 c 0
 325 606 323 600 320 595 c 2
 77 226 l 1
 276 226 l 2
 293 226 306 213 306 196 c 0
 306 179 293 166 276 166 c 2
 18 166 l 2
 7 166 0 171 -6 181 c 0
 -8 186 -10 191 -10 196 c 0
 -10 201 -8 207 -5 212 c 2
323 -1 m 2
 323 434 l 2
 323 451 336 464 353 464 c 0
 370 464 383 451 383 434 c 2
 383 -1 l 2
 383 -18 370 -31 353 -31 c 0
 336 -31 323 -18 323 -1 c 2
EndSplineSet
EndChar

StartChar: five
Encoding: 53 53 22
Width: 527
Flags: MW
HStem: -32 57<242.5 249 241.5 273.5> 307 62<236 240 222 252> 581 60<200 389>
VStem: 84 60<401 611> 400 60<165 167 167 168 157 171.5>
LayerCount: 2
Fore
SplineSet
84 401 m 2
 84 611 l 2
 84 628 97 641 114 641 c 0
 131 641 144 628 144 611 c 2
 144 401 l 2
 144 384 131 371 114 371 c 0
 97 371 84 384 84 401 c 2
200 641 m 2
 389 641 l 2
 406 641 419 628 419 611 c 0
 419 594 406 581 389 581 c 2
 200 581 l 2
 183 581 170 594 170 611 c 0
 170 628 183 641 200 641 c 2
240 307 m 2
 222 307 l 1
 204 306 186 303 168 299 c 0
 153 296 138 292 124 287 c 0
 120 286 117 285 113 285 c 0
 98 285 83 298 83 316 c 0
 83 328 91 339 103 344 c 0
 119 350 136 355 153 359 c 0
 174 364 195 367 216 368 c 0
 224 369 232 369 240 369 c 0
 264 369 289 366 313 359 c 0
 345 350 375 333 399 309 c 0
 409 299 418 288 426 277 c 0
 433 266 439 255 444 243 c 0
 449 231 453 219 456 206 c 0
 459 194 460 181 460 168 c 2
 460 157 l 1
 459 141 456 125 451 110 c 0
 446 95 439 80 431 66 c 0
 423 52 413 39 402 28 c 0
 391 17 378 7 365 -1 c 0
 332 -22 294 -32 253 -32 c 0
 232 -32 210 -30 188 -24 c 0
 169 -19 150 -12 132 -3 c 0
 114 6 98 17 83 30 c 0
 77 36 73 44 73 52 c 0
 73 59 76 66 81 72 c 0
 87 78 95 82 103 82 c 0
 110 82 117 79 123 74 c 0
 134 64 146 55 159 48 c 2
 157 49 l 2
 170 42 184 37 199 33 c 0
 214 29 234 25 249 25 c 0
 304 26 344 57 359 72 c 0
 367 80 374 89 380 99 c 0
 386 109 391 119 394 130 c 0
 397 141 399 152 400 165 c 1
 400 167 l 2
 400 176 399 185 397 194 c 0
 395 203 392 212 389 220 c 0
 386 228 382 236 377 243 c 0
 372 251 366 258 359 265 c 0
 342 281 320 293 297 300 c 0
 279 305 260 307 240 307 c 2
EndSplineSet
EndChar

StartChar: six
Encoding: 54 54 23
Width: 527
Flags: MW
HStem: -30 59<241.5 258 241.5 264> 313 60<237.5 243 243 258>
VStem: 41 58<179 213 179 216.5> 404 67<164.5 178.5>
LayerCount: 2
Fore
SplineSet
258 313 m 1
 243 313 l 2
 232 313 221 312 211 310 c 0
 193 307 176 321 176 339 c 0
 176 353 186 366 200 369 c 0
 213 372 227 373 242 373 c 0
 284 373 331 362 368 340 c 0
 401 321 427 294 445 263 c 0
 462 233 471 199 471 165 c 0
 471 158 471 151 470 144 c 0
 465 103 446 63 415 32 c 0
 381 -2 334 -24 284 -29 c 0
 276 -30 268 -30 260 -30 c 0
 223 -30 187 -21 155 -4 c 0
 117 16 87 47 68 83 c 0
 57 104 41 143 41 203 c 0
 41 230 44 257 50 282 c 0
 68 357 106 417 152 477 c 0
 206 547 278 606 361 648 c 0
 365 650 370 651 374 651 c 0
 385 651 396 645 401 634 c 0
 403 630 404 625 404 621 c 0
 404 610 398 599 387 594 c 0
 311 556 246 502 198 439 c 0
 154 381 122 329 107 266 c 0
 102 246 99 224 99 202 c 0
 99 156 110 126 118 110 c 0
 131 85 152 63 179 48 c 0
 201 36 228 29 255 29 c 0
 261 29 267 29 272 30 c 0
 308 34 343 51 366 74 c 0
 387 96 400 124 403 152 c 0
 404 157 404 162 404 167 c 0
 404 190 398 214 386 235 c 0
 373 257 354 277 330 291 c 0
 309 303 284 311 258 313 c 1
EndSplineSet
EndChar

StartChar: seven
Encoding: 55 55 24
Width: 483
Flags: MW
HStem: -30 21G<97.5 112.5> 582 60<78.5 410 87 410>
VStem: 57 383<603.5 620.5>
LayerCount: 2
Fore
SplineSet
87 642 m 2
 410 642 l 2
 427 642 440 629 440 612 c 0
 440 595 427 582 410 582 c 2
 87 582 l 2
 70 582 57 595 57 612 c 0
 57 629 70 642 87 642 c 2
80 13 m 2
 331 520 l 2
 336 531 347 537 358 537 c 0
 377 537 388 523 388 507 c 0
 388 503 387 498 385 494 c 2
 134 -13 l 2
 129 -24 118 -30 107 -30 c 0
 88 -30 77 -16 77 0 c 0
 77 4 78 9 80 13 c 2
EndSplineSet
EndChar

StartChar: eight
Encoding: 56 56 25
Width: 509
Flags: MW
HStem: -32 60<243 262 243 265> 584 58<248 260>
VStem: 55 60<167.5 184.5 167.5 190> 83 60<468.5 485.5 468.5 491.5> 359 48 388 60<155 173>
LayerCount: 2
Fore
SplineSet
351 436 m 1xe8
 352 437 l 1xe8
 357 449 359 462 359 475 c 0
 359 489 356 503 351 515 c 0
 342 538 324 558 303 570 c 0
 287 579 269 584 251 584 c 0
 245 584 239 583 233 582 c 0
 201 576 174 556 159 532 c 0
 150 517 143 497 143 474 c 0
 143 463 145 453 148 443 c 0
 158 412 183 387 209 376 c 0xd8
 219 372 240 367 261 365 c 0
 281 363 317 357 337 347 c 0
 384 324 420 281 437 231 c 0
 444 210 448 188 448 166 c 0
 448 137 442 108 430 82 c 0
 409 35 369 -2 320 -20 c 0
 299 -28 276 -32 254 -32 c 0
 222 -32 183 -24 147 -1 c 0
 96 32 62 88 56 148 c 0
 55 155 55 162 55 169 c 0
 55 211 68 247 84 274 c 0
 92 288 102 301 113 312 c 0
 119 318 127 321 135 321 c 0
 142 321 150 318 156 312 c 0
 162 306 165 298 165 291 c 0
 165 283 162 275 156 269 c 0
 148 261 141 252 135 243 c 0
 124 224 115 199 115 170 c 0
 115 165 115 160 116 155 c 0
 120 113 145 73 180 50 c 0xe4
 205 34 232 28 254 28 c 0
 270 28 286 31 300 36 c 0
 333 48 361 75 376 107 c 0
 384 125 388 145 388 165 c 0
 388 181 385 197 380 212 c 0
 368 247 342 278 309 294 c 0
 299 299 270 304 253 306 c 0
 225 309 197 316 184 321 c 0
 139 340 104 379 90 426 c 0
 85 442 83 458 83 474 c 0
 83 509 94 539 108 562 c 0xd4
 131 599 172 630 221 639 c 0
 231 641 241 642 251 642 c 0
 279 642 307 635 332 621 c 0
 366 602 393 572 407 536 c 0
 415 516 419 495 419 474 c 0
 419 453 415 432 407 413 c 0
 402 400 395 388 387 377 c 0
 381 369 372 365 363 365 c 0
 356 365 350 367 345 371 c 0
 337 377 333 386 333 395 c 0
 333 402 335 408 339 413 c 0
 344 420 348 428 351 436 c 1xe8
EndSplineSet
EndChar

StartChar: nine
Encoding: 57 57 26
Width: 500
Flags: MW
HStem: -32 21G<153 161> 251 60<199.5 246> 582 58<245.5 260.5>
VStem: 45 57<425.5 439.5> 387 60<398.5 418.5>
LayerCount: 2
Fore
SplineSet
102 450 m 1
 102 440 l 2
 102 411 112 382 132 359 c 0
 153 335 180 322 203 316 c 0
 216 313 229 311 242 311 c 0
 250 311 258 312 266 313 c 0
 284 316 300 302 300 284 c 0
 300 270 290 258 276 255 c 1
 259 253 242 251 227 251 c 0
 172 251 130 269 89 317 c 0
 60 351 45 394 45 437 c 0
 45 442 45 447 46 453 c 0
 50 500 72 545 107 579 c 0
 136 608 175 629 218 637 c 0
 229 639 240 640 251 640 c 0
 283 640 315 632 343 616 c 0
 368 602 395 579 415 546 c 0
 431 518 440 488 444 458 c 0
 446 443 447 428 447 413 c 0
 447 380 442 347 434 315 c 0
 417 248 384 186 342 131 c 0
 296 71 239 18 175 -27 c 0
 170 -30 164 -32 158 -32 c 0
 148 -32 139 -28 133 -19 c 0
 130 -14 128 -8 128 -2 c 0
 128 8 132 17 141 23 c 0
 200 64 252 113 294 168 c 0
 332 218 361 273 376 330 c 0
 383 357 387 385 387 412 c 0
 387 425 386 438 384 450 c 0
 381 474 374 497 362 517 c 0
 349 540 331 556 314 566 c 0
 295 576 272 582 249 582 c 0
 241 582 233 581 225 580 c 0
 191 574 163 557 145 539 c 0
 120 514 105 482 102 450 c 1
EndSplineSet
EndChar

StartChar: colon
Encoding: 58 58 27
Width: 196
Flags: MW
HStem: -30 134<66.5 103.5> 346 134<66.5 103.5>
VStem: 18 134<18.5 55.5 394.5 431.5>
LayerCount: 2
Fore
SplineSet
85 480 m 0
 122 480 152 450 152 413 c 0
 152 376 122 346 85 346 c 0
 48 346 18 376 18 413 c 0
 18 450 48 480 85 480 c 0
85 104 m 0
 122 104 152 74 152 37 c 0
 152 0 122 -30 85 -30 c 0
 48 -30 18 0 18 37 c 0
 18 74 48 104 85 104 c 0
EndSplineSet
EndChar

StartChar: semicolon
Encoding: 59 59 28
Width: 194
Flags: MW
HStem: 346 134<73.5 110.5>
VStem: 25 134<394.5 431.5> 25 137<21 26 26 30 18 54.5>
LayerCount: 2
Fore
SplineSet
92 480 m 0xc0
 129 480 159 450 159 413 c 0
 159 376 129 346 92 346 c 0
 55 346 25 376 25 413 c 0
 25 450 55 480 92 480 c 0xc0
92 103 m 2xa0
 93 103 l 2
 139 103 160 62 162 30 c 1
 162 26 l 2
 162 10 158 -8 148 -26 c 0
 139 -41 129 -53 119 -64 c 0
 107 -77 95 -89 83 -101 c 0
 77 -106 70 -109 62 -109 c 0
 54 -109 47 -106 41 -100 c 0
 36 -94 33 -87 33 -79 c 0
 33 -71 36 -64 42 -58 c 0
 52 -48 62 -38 71 -28 c 1
 44 -19 25 6 25 36 c 0
 25 73 55 103 92 103 c 2xa0
EndSplineSet
EndChar

StartChar: less
Encoding: 60 60 29
Width: 463
Flags: MW
HStem: 160 325<411 419.5>
VStem: 20 423<312 463>
LayerCount: 2
Fore
SplineSet
40 349 m 2
 402 483 l 2
 406 484 409 485 413 485 c 0
 428 485 443 472 443 454 c 0
 443 442 435 431 423 426 c 2
 61 292 l 2
 57 291 54 290 50 290 c 0
 35 290 20 303 20 321 c 0
 20 333 28 344 40 349 c 2
225 288 m 2
 422 219 l 2
 434 214 442 203 442 191 c 0
 442 172 427 160 412 160 c 0
 408 160 404 161 401 162 c 2
 204 231 l 2
 192 236 184 247 184 259 c 0
 184 278 199 290 214 290 c 0
 218 290 222 289 225 288 c 2
EndSplineSet
EndChar

StartChar: equal
Encoding: 61 61 30
Width: 409
Flags: MW
HStem: 195 60<33.5 356 42 356> 368 60<33.5 356 42 356>
VStem: 12 374<216.5 233.5 389.5 406.5>
LayerCount: 2
Fore
SplineSet
42 428 m 2
 356 428 l 2
 373 428 386 415 386 398 c 0
 386 381 373 368 356 368 c 2
 42 368 l 2
 25 368 12 381 12 398 c 0
 12 415 25 428 42 428 c 2
42 255 m 2
 356 255 l 2
 373 255 386 242 386 225 c 0
 386 208 373 195 356 195 c 2
 42 195 l 2
 25 195 12 208 12 225 c 0
 12 242 25 255 42 255 c 2
EndSplineSet
EndChar

StartChar: greater
Encoding: 62 62 31
Width: 483
Flags: MW
HStem: 160 325<43.5 52 42.5 53>
VStem: 20 423<312 463>
LayerCount: 2
Fore
SplineSet
423 349 m 2
 61 483 l 2
 57 484 54 485 50 485 c 0
 35 485 20 472 20 454 c 0
 20 442 28 431 40 426 c 2
 402 292 l 2
 406 291 409 290 413 290 c 0
 428 290 443 303 443 321 c 0
 443 333 435 344 423 349 c 2
238 288 m 2
 41 219 l 2
 29 214 21 203 21 191 c 0
 21 172 36 160 51 160 c 0
 55 160 59 161 62 162 c 2
 259 231 l 2
 271 236 279 247 279 259 c 0
 279 278 264 290 249 290 c 0
 245 290 241 289 238 288 c 2
EndSplineSet
EndChar

StartChar: question
Encoding: 63 63 32
Width: 332
Flags: MW
HStem: -31 134<82.5 119.5> 615 59<116 124 124 126 116 116>
VStem: 34 134<17.5 54.5> 68 60<145.5 154> 220 58<519 528>
LayerCount: 2
Fore
SplineSet
128 206 m 1xd8
 128 154 l 2
 128 137 115 124 98 124 c 0
 81 124 68 137 68 154 c 0
 69 250 79 276 100 316 c 0
 124 361 159 398 185 434 c 0
 198 452 208 470 214 488 c 0
 218 500 220 513 220 525 c 0
 220 531 219 537 218 543 c 0
 212 573 192 591 182 598 c 0
 164 611 143 615 126 615 c 2
 116 615 l 1
 98 613 80 607 65 597 c 0
 60 594 54 592 49 592 c 0
 39 592 29 597 23 606 c 0
 20 611 18 617 18 622 c 0
 18 632 23 642 32 648 c 0
 55 663 82 672 110 674 c 1
 124 674 l 2
 156 674 188 665 215 646 c 0
 246 624 268 591 275 554 c 0
 277 544 278 534 278 524 c 0
 278 505 275 486 269 468 c 0
 260 442 246 419 231 399 c 0
 210 369 170 325 151 289 c 0
 137 263 129 235 128 206 c 1xd8
101 103 m 0xe8
 138 103 168 73 168 36 c 0
 168 -1 138 -31 101 -31 c 0
 64 -31 34 -1 34 36 c 0
 34 73 64 103 101 103 c 0xe8
EndSplineSet
EndChar

StartChar: at
Encoding: 64 64 33
Width: 475
Flags: MW
HStem: -71 61<240.5 256 240.5 257> 41 59<178 182.5 178 186.5> 348 60<229 230 230 233 233 234> 419 56<219.5 233 233 234.5 214 251>
VStem: -18 61<212.5 226> 88 58<133 136 133 139 133 169.5> 285 60<95 299> 412 56<224 233 216 238 216 255.5>
LayerCount: 2
Fore
SplineSet
388 125 m 1
 391 130 l 1
 404 157 410 190 412 224 c 1
 412 238 l 2
 412 273 405 317 378 353 c 0
 364 372 345 388 323 399 c 0
 301 410 276 417 251 419 c 1
 233 419 l 2
 206 419 180 414 156 404 c 0
 127 392 101 372 82 347 c 0
 66 325 55 299 49 271 c 0
 45 254 43 236 43 218 c 0
 43 207 44 196 45 185 c 0
 48 156 56 128 68 102 c 0
 80 77 97 54 118 36 c 0
 141 17 169 3 199 -4 c 0
 215 -8 232 -10 249 -10 c 0
 263 -10 278 -9 292 -7 c 0
 344 1 395 22 439 53 c 0
 444 56 450 58 456 58 c 0
 466 58 475 54 481 45 c 0
 484 40 486 34 486 28 c 0
 486 18 482 9 473 3 c 0
 422 -32 363 -57 301 -67 c 0
 284 -70 266 -71 248 -71 c 0
 227 -71 206 -69 185 -64 c 0
 146 -55 109 -37 78 -11 c 0
 50 13 28 43 13 75 c 0
 -2 107 -11 141 -15 176 c 0
 -17 189 -18 202 -18 215 c 0
 -18 237 -16 259 -11 281 c 0
 -3 316 11 350 33 380 c 0
 58 414 92 440 131 456 c 0
 163 469 197 475 231 475 c 0
 238 475 245 475 252 474 c 0
 284 471 316 462 346 447 c 0
 376 432 402 410 422 383 c 0xff
 455 339 468 285 468 233 c 2
 468 216 l 1
 466 177 460 136 441 98 c 0
 432 79 421 65 409 55 c 0
 403 51 397 49 390 49 c 0
 382 49 373 53 367 60 c 0
 363 66 361 72 361 79 c 0
 361 87 365 96 372 102 c 0
 374 104 381 110 388 125 c 1
285 95 m 2
 285 300 l 2
 285 307 284 314 282 320 c 0
 279 329 274 336 268 340 c 0
 264 343 259 345 253 346 c 0
 247 347 241 348 234 348 c 2
 230 348 l 2
 214 348 199 345 186 339 c 0
 178 335 171 330 165 324 c 1
 159 315 l 2
 153 306 143 301 133 301 c 0
 128 301 122 303 117 306 c 0
 108 312 103 322 103 332 c 0
 103 337 105 343 108 348 c 0
 112 354 116 359 121 364 c 0
 132 376 146 386 161 393 c 0
 183 403 206 407 229 408 c 1
 233 408 l 2
 243 408 254 407 265 404 c 0
 278 401 291 396 303 387 c 0
 321 374 332 356 338 340 c 0xef
 343 327 345 313 345 299 c 2
 345 95 l 2
 345 78 332 65 315 65 c 0
 298 65 285 78 285 95 c 2
173 256 m 2
 234 276 l 2
 237 277 240 277 243 277 c 0
 259 277 273 265 273 247 c 0
 273 234 265 222 252 218 c 2
 191 198 l 1
 189 196 l 1
 155 185 146 160 146 136 c 2
 146 133 l 1
 147 124 149 117 155 110 c 0
 159 105 165 102 170 101 c 0
 173 100 176 100 180 100 c 0
 185 100 190 101 197 103 c 2
 232 115 l 2
 235 116 238 116 242 116 c 0
 257 116 271 106 271 86 c 0
 271 74 264 62 251 58 c 2
 215 46 l 2
 204 43 192 41 181 41 c 0
 172 41 164 42 156 44 c 0
 131 51 117 66 110 74 c 0
 95 92 91 108 88 131 c 1
 88 139 l 2
 88 200 124 240 173 256 c 2
EndSplineSet
EndChar

StartChar: B
Encoding: 66 66 35
Width: 677
Flags: MW
HStem: -30 60<206.5 376 215 376> 330 60<208.5 361 217 361> 609 60<208 361>
VStem: 85 60<-1 639> 496 60<463 526.5> 554 60<117 186 117 213>
LayerCount: 2
Fore
SplineSet
85 -1 m 2xf8
 85 639 l 2
 85 656 98 669 115 669 c 0
 132 669 145 656 145 639 c 2
 145 -1 l 2
 145 -18 132 -31 115 -31 c 0
 98 -31 85 -18 85 -1 c 2xf8
208 669 m 2
 361 669 l 2
 510 669 556 580 556 493 c 0
 556 399 487 330 361 330 c 2
 217 330 l 2
 200 330 187 343 187 360 c 0
 187 377 200 390 217 390 c 2
 361 390 l 2
 452 390 496 433 496 493 c 0
 496 560 464 609 361 609 c 2
 208 609 l 2
 191 609 178 622 178 639 c 0
 178 656 191 669 208 669 c 2
554 185 m 2xf4
 554 186 l 2
 554 240 536 277 512 298 c 0
 505 304 501 312 501 321 c 0
 501 328 504 335 509 341 c 0
 515 348 523 352 532 352 c 0
 539 352 546 349 552 344 c 0
 592 309 615 253 615 186 c 1
 614 185 l 1
 614 49 522 -30 376 -30 c 2
 215 -30 l 2
 198 -30 185 -17 185 0 c 0
 185 17 198 30 215 30 c 2
 376 30 l 2
 461 30 554 61 554 185 c 2xf4
EndSplineSet
Position2: "'cpsp' Capital Spacing in Latin lookup 0 subtable" dx=5 dy=0 dh=10 dv=0
EndChar

StartChar: D
Encoding: 68 68 37
Width: 613
Flags: MW
HStem: -30 60<190.5 259 199 244 244 259 259 272 199 275> 610 60<197.5 242 206 240>
VStem: 84 60<2 642> 495 58<316 318 318 320 297 336.5>
LayerCount: 2
Fore
SplineSet
84 2 m 2
 84 642 l 2
 84 659 97 672 114 672 c 0
 131 672 144 659 144 642 c 2
 144 2 l 2
 144 -15 131 -28 114 -28 c 0
 97 -28 84 -15 84 2 c 2
240 610 m 1
 206 610 l 2
 189 610 176 623 176 640 c 0
 176 657 189 670 206 670 c 2
 242 670 l 2
 266 670 271 669 285 668 c 1
 322 662 359 651 393 633 c 0
 427 615 458 590 482 559 c 0
 509 525 527 485 538 444 c 0
 549 403 553 361 553 320 c 2
 553 318 l 2
 553 276 549 233 538 191 c 0
 526 148 507 106 478 71 c 0
 440 25 392 -2 349 -16 c 0
 325 -24 300 -29 275 -30 c 1
 259 -30 l 1
 244 -30 l 1
 199 -30 l 2
 182 -30 169 -17 169 0 c 0
 169 17 182 30 199 30 c 2
 259 30 l 1
 272 30 l 1
 292 31 312 35 331 41 c 0
 364 52 402 73 432 109 c 0
 455 136 471 170 481 206 c 0
 491 241 495 278 495 316 c 2
 495 318 l 2
 495 355 491 392 482 427 c 0
 473 461 458 493 437 520 c 0
 418 544 394 564 367 578 c 0
 340 592 310 601 278 606 c 0
 265 608 253 609 240 610 c 1
EndSplineSet
Position2: "'cpsp' Capital Spacing in Latin lookup 0 subtable" dx=5 dy=0 dh=10 dv=0
EndChar

StartChar: E
Encoding: 69 69 38
Width: 611
Flags: MW
HStem: -30 60<190.5 519 199 519> 314 60<192.5 459 201 459> 610 60<201 518>
VStem: 85 60<0 640>
LayerCount: 2
Fore
SplineSet
85 0 m 2
 85 640 l 2
 85 657 98 670 115 670 c 0
 132 670 145 657 145 640 c 2
 145 0 l 2
 145 -17 132 -30 115 -30 c 0
 98 -30 85 -17 85 0 c 2
201 670 m 2
 518 670 l 2
 535 670 548 657 548 640 c 0
 548 623 535 610 518 610 c 2
 201 610 l 2
 184 610 171 623 171 640 c 0
 171 657 184 670 201 670 c 2
201 374 m 2
 459 374 l 2
 476 374 489 361 489 344 c 0
 489 327 476 314 459 314 c 2
 201 314 l 2
 184 314 171 327 171 344 c 0
 171 361 184 374 201 374 c 2
199 30 m 2
 519 30 l 2
 536 30 549 17 549 0 c 0
 549 -17 536 -30 519 -30 c 2
 199 -30 l 2
 182 -30 169 -17 169 0 c 0
 169 17 182 30 199 30 c 2
EndSplineSet
Position2: "'cpsp' Capital Spacing in Latin lookup 0 subtable" dx=5 dy=0 dh=10 dv=0
EndChar

StartChar: H
Encoding: 72 72 41
Width: 665
Flags: MW
HStem: -30 21G<105.5 122.5 541.5 558.5> 314 60<191.5 466 200 466> 650 20G<105.5 122.5 541.5 558.5>
VStem: 84 60<0 640> 520 60<0 640>
LayerCount: 2
Fore
SplineSet
84 0 m 2
 84 640 l 2
 84 657 97 670 114 670 c 0
 131 670 144 657 144 640 c 2
 144 0 l 2
 144 -17 131 -30 114 -30 c 0
 97 -30 84 -17 84 0 c 2
520 0 m 2
 520 640 l 2
 520 657 533 670 550 670 c 0
 567 670 580 657 580 640 c 2
 580 0 l 2
 580 -17 567 -30 550 -30 c 0
 533 -30 520 -17 520 0 c 2
200 374 m 2
 466 374 l 2
 483 374 496 361 496 344 c 0
 496 327 483 314 466 314 c 2
 200 314 l 2
 183 314 170 327 170 344 c 0
 170 361 183 374 200 374 c 2
EndSplineSet
Position2: "'cpsp' Capital Spacing in Latin lookup 0 subtable" dx=5 dy=0 dh=10 dv=0
EndChar

StartChar: I
Encoding: 73 73 42
Width: 230
Flags: MW
HStem: -30 21G<106.5 123.5> 650 20G<106.5 123.5>
VStem: 85 60<0 640>
LayerCount: 2
Fore
SplineSet
85 0 m 2
 85 640 l 2
 85 657 98 670 115 670 c 0
 132 670 145 657 145 640 c 2
 145 0 l 2
 145 -17 132 -30 115 -30 c 0
 98 -30 85 -17 85 0 c 2
EndSplineSet
Position2: "'cpsp' Capital Spacing in Latin lookup 0 subtable" dx=5 dy=0 dh=10 dv=0
EndChar

StartChar: J
Encoding: 74 74 43
Width: 565
Flags: MW
HStem: -29 57<234.5 264 262 264> 650 20G<447.5 464.5>
VStem: 40 59 426 60<203 640>
LayerCount: 2
Fore
SplineSet
426 203 m 2
 426 640 l 2
 426 657 439 670 456 670 c 0
 473 670 486 657 486 640 c 2
 486 203 l 2
 486 186 473 173 456 173 c 0
 439 173 426 186 426 203 c 2
263 -29 m 2
 262 -29 l 2
 207 -29 153 -8 112 29 c 0
 71 66 45 118 40 173 c 0
 39 190 52 205 69 205 c 0
 84 205 98 193 99 178 c 0
 102 142 119 101 152 71 c 0
 185 41 227 28 263 28 c 2
 264 28 l 2
 308 28 352 47 382 79 c 0
 390 88 397 98 403 108 c 0
 408 117 418 123 429 123 c 0
 447 123 458 108 458 93 c 0
 458 89 457 84 454 79 c 0
 446 65 436 52 425 40 c 1
 425 41 l 1
 383 -3 324 -29 263 -29 c 2
EndSplineSet
Position2: "'cpsp' Capital Spacing in Latin lookup 0 subtable" dx=5 dy=0 dh=10 dv=0
EndChar

StartChar: K
Encoding: 75 75 44
Width: 613
Flags: MW
HStem: -30 21G<106.5 123.5 538 545.5> 650 20G<106.5 123.5>
VStem: 85 60<0 640>
LayerCount: 2
Fore
SplineSet
169 372 m 2
 460 663 l 2
 466 669 474 672 482 672 c 0
 489 672 497 669 503 663 c 0
 509 657 512 649 512 642 c 0
 512 634 509 626 503 620 c 2
 212 329 l 2
 206 323 198 320 191 320 c 0
 183 320 175 323 169 329 c 0
 163 335 160 343 160 351 c 0
 160 358 163 366 169 372 c 2
85 0 m 2
 85 640 l 2
 85 657 98 670 115 670 c 0
 132 670 145 657 145 640 c 2
 145 0 l 2
 145 -17 132 -30 115 -30 c 0
 98 -30 85 -17 85 0 c 2
520 -21 m 2
 234 265 l 2
 228 271 225 279 225 287 c 0
 225 294 228 302 234 308 c 0
 240 314 248 317 256 317 c 0
 263 317 271 314 277 308 c 2
 563 22 l 2
 569 16 572 8 572 1 c 0
 572 -7 569 -15 563 -21 c 0
 557 -27 549 -30 542 -30 c 0
 534 -30 526 -27 520 -21 c 2
EndSplineSet
Position2: "'cpsp' Capital Spacing in Latin lookup 0 subtable" dx=5 dy=0 dh=10 dv=0
EndChar

StartChar: L
Encoding: 76 76 45
Width: 558
Flags: MW
HStem: -30 60<206.5 516 215 516> 650 20G<106.5 123.5>
VStem: 85 60<0 640>
LayerCount: 2
Fore
SplineSet
85 0 m 2
 85 640 l 2
 85 657 98 670 115 670 c 0
 132 670 145 657 145 640 c 2
 145 0 l 2
 145 -17 132 -30 115 -30 c 0
 98 -30 85 -17 85 0 c 2
215 30 m 2
 516 30 l 2
 533 30 546 17 546 0 c 0
 546 -17 533 -30 516 -30 c 2
 215 -30 l 2
 198 -30 185 -17 185 0 c 0
 185 17 198 30 215 30 c 2
EndSplineSet
Position2: "'cpsp' Capital Spacing in Latin lookup 0 subtable" dx=5 dy=0 dh=10 dv=0
EndChar

StartChar: M
Encoding: 77 77 46
Width: 894
Flags: MW
HStem: -31 21G<435.5 443> -30 21G<106.5 123.5 771.5 788.5> 650 20G<106.5 123.5> 651 20G<774.5 789.5>
VStem: 85 60<0 640> 750 60<0 446>
LayerCount: 2
Fore
SplineSet
486 140 m 2x5c
 753 654 l 2
 759 664 769 671 780 671 c 0
 799 671 811 656 811 640 c 0
 811 635 809 631 807 626 c 2
 540 112 l 2
 534 102 524 95 513 95 c 0
 494 95 482 110 482 126 c 0
 482 131 484 135 486 140 c 2x5c
85 0 m 2
 85 640 l 2
 85 657 98 670 115 670 c 0
 132 670 145 657 145 640 c 2xac
 145 0 l 2
 145 -17 132 -30 115 -30 c 0
 98 -30 85 -17 85 0 c 2
414 -14 m 2
 174 461 l 2
 172 465 171 470 171 474 c 0
 171 485 177 496 188 501 c 0
 192 503 197 504 201 504 c 0
 212 504 223 498 228 487 c 2
 468 12 l 2
 470 8 471 3 471 -1 c 0
 471 -12 465 -23 454 -28 c 0
 450 -30 445 -31 441 -31 c 0
 430 -31 419 -25 414 -14 c 2
750 0 m 2x5c
 750 446 l 2
 750 463 763 476 780 476 c 0
 797 476 810 463 810 446 c 2
 810 0 l 2
 810 -17 797 -30 780 -30 c 0
 763 -30 750 -17 750 0 c 2x5c
EndSplineSet
Position2: "'cpsp' Capital Spacing in Latin lookup 0 subtable" dx=5 dy=0 dh=10 dv=0
EndChar

StartChar: O
Encoding: 79 79 48
Width: 737
Flags: MW
HStem: -30 60<288 432 288 451.5> 610 60<288 432>
VStem: 37 59<239 401 239 415.5> 624 61<239 401>
LayerCount: 2
Fore
SplineSet
361 670 m 0
 542 670 685 511 685 320 c 0
 685 129 542 -30 361 -30 c 0
 180 -30 37 129 37 320 c 0
 37 511 180 670 361 670 c 0
360 610 m 0
 216 610 96 482 96 320 c 0
 96 158 216 30 360 30 c 0
 504 30 624 158 624 320 c 0
 624 482 504 610 360 610 c 0
EndSplineSet
Substitution2: "Single Substitution lookup 3 subtable" ordmasculine
Substitution2: "'aalt' Access All Alternates in Latin lookup 0 subtable" ordmasculine
Position2: "'cpsp' Capital Spacing in Latin lookup 0 subtable" dx=5 dy=0 dh=10 dv=0
EndChar

StartChar: Q
Encoding: 81 81 50
Width: 748
Flags: MW
HStem: -32 61<288 361> 609 59<288 432>
VStem: 37 59<238 400 238 413.5> 624 61<292.5 400>
LayerCount: 2
Fore
SplineSet
361 -30 m 1
 361 -32 l 1
 180 -32 37 127 37 318 c 0
 37 509 180 668 361 668 c 0
 542 668 685 509 685 318 c 0
 685 255 669 196 642 145 c 0
 636 135 626 128 615 128 c 0
 596 128 584 143 584 159 c 0
 584 164 586 168 588 173 c 0
 611 216 624 266 624 319 c 0
 624 481 504 609 360 609 c 0
 216 609 96 481 96 319 c 0
 96 157 216 29 360 29 c 0
 395 29 429 37 460 51 c 0
 464 53 468 54 472 54 c 0
 484 54 495 47 500 36 c 0
 502 32 503 28 503 24 c 0
 503 12 496 1 485 -4 c 0
 447 -21 405 -30 361 -30 c 1
608 -22 m 2
 357 229 l 2
 351 235 348 243 348 251 c 0
 348 258 351 266 357 272 c 0
 363 278 371 281 379 281 c 0
 386 281 394 278 400 272 c 2
 651 21 l 2
 657 15 660 7 660 -1 c 0
 660 -8 657 -16 651 -22 c 0
 645 -28 637 -31 630 -31 c 0
 622 -31 614 -28 608 -22 c 2
EndSplineSet
Position2: "'cpsp' Capital Spacing in Latin lookup 0 subtable" dx=5 dy=0 dh=10 dv=0
EndChar

StartChar: R
Encoding: 82 82 51
Width: 650
Flags: MW
HStem: -30 21G<107.5 124.5 561 569> 309 60<213.5 376 222 376> 610 60<216 374>
VStem: 86 60<0 640> 501 60<457 523>
LayerCount: 2
Fore
SplineSet
86 0 m 2
 86 640 l 2
 86 657 99 670 116 670 c 0
 133 670 146 657 146 640 c 2
 146 0 l 2
 146 -17 133 -30 116 -30 c 0
 99 -30 86 -17 86 0 c 2
374 670 m 1
 374 669 l 1
 486 669 561 608 561 487 c 0
 561 367 485 309 376 309 c 2
 222 309 l 2
 205 309 192 322 192 339 c 0
 192 356 205 369 222 369 c 2
 376 369 l 2
 476 369 501 426 501 488 c 0
 501 558 470 610 374 610 c 2
 216 610 l 2
 199 610 186 623 186 640 c 0
 186 657 199 670 216 670 c 2
 374 670 l 1
544 -22 m 2
 270 238 l 2
 264 244 261 251 261 259 c 0
 261 267 264 274 269 280 c 0
 275 286 282 289 290 289 c 0
 298 289 305 286 311 281 c 2
 585 21 l 2
 591 15 594 8 594 0 c 0
 594 -8 591 -15 586 -21 c 0
 580 -27 573 -30 565 -30 c 0
 557 -30 550 -27 544 -22 c 2
EndSplineSet
Position2: "'cpsp' Capital Spacing in Latin lookup 0 subtable" dx=5 dy=0 dh=10 dv=0
EndChar

StartChar: T
Encoding: 84 84 53
Width: 573
Flags: MW
HStem: -30 21G<276.5 293.5> 610 60<42.5 520 51 520>
VStem: 255 60<0 550>
LayerCount: 2
Fore
SplineSet
51 670 m 2
 520 670 l 2
 537 670 550 657 550 640 c 0
 550 623 537 610 520 610 c 2
 51 610 l 2
 34 610 21 623 21 640 c 0
 21 657 34 670 51 670 c 2
255 0 m 2
 255 550 l 2
 255 567 268 580 285 580 c 0
 302 580 315 567 315 550 c 2
 315 0 l 2
 315 -17 302 -30 285 -30 c 0
 268 -30 255 -17 255 0 c 2
EndSplineSet
Position2: "'cpsp' Capital Spacing in Latin lookup 0 subtable" dx=5 dy=0 dh=10 dv=0
EndChar

StartChar: V
Encoding: 86 86 55
Width: 620
Flags: MW
HStem: -31 21G<299 314> 650 20G
VStem: 38 537<638 647.5>
LayerCount: 2
Fore
SplineSet
277 -11 m 2
 40 629 l 2
 39 633 38 636 38 640 c 0
 38 655 51 670 69 670 c 0
 81 670 92 662 97 650 c 2
 334 10 l 2
 335 6 336 3 336 -1 c 0
 336 -16 323 -31 305 -31 c 0
 293 -31 282 -23 277 -11 c 2
348 200 m 2
 516 650 l 2
 521 662 532 670 544 670 c 0
 563 670 575 655 575 640 c 0
 575 636 574 632 573 629 c 2
 405 179 l 2
 400 167 389 159 377 159 c 0
 358 159 346 174 346 189 c 0
 346 193 347 197 348 200 c 2
EndSplineSet
Position2: "'cpsp' Capital Spacing in Latin lookup 0 subtable" dx=5 dy=0 dh=10 dv=0
EndChar

StartChar: W
Encoding: 87 87 56
Width: 911
Flags: MW
HStem: -30 21G<299 314> -29 21G<591 606> 651 20G
VStem: 38 827<639 648.5>
LayerCount: 2
Fore
SplineSet
277 -10 m 2xb0
 40 630 l 2
 39 634 38 637 38 641 c 0
 38 656 51 671 69 671 c 0
 81 671 92 663 97 651 c 2
 334 11 l 2
 335 7 336 4 336 0 c 0
 336 -15 323 -30 305 -30 c 0
 293 -30 282 -22 277 -10 c 2xb0
337 173 m 2
 515 651 l 2
 520 663 531 671 543 671 c 0
 562 671 574 656 574 641 c 0
 574 637 573 633 572 630 c 2
 394 152 l 2
 389 140 378 132 366 132 c 0
 347 132 335 147 335 162 c 0
 335 166 336 170 337 173 c 2
637 197 m 2
 806 651 l 2
 811 663 822 671 834 671 c 0
 853 671 865 656 865 641 c 0
 865 637 864 633 863 630 c 2
 694 176 l 2
 689 164 678 156 666 156 c 0
 647 156 635 171 635 186 c 0
 635 190 636 194 637 197 c 2
569 -10 m 2x70
 470 244 l 2
 469 247 468 251 468 254 c 0
 468 269 479 284 497 284 c 0
 509 284 520 277 525 265 c 2
 624 11 l 2
 625 8 626 4 626 1 c 0
 626 -14 615 -29 597 -29 c 0
 585 -29 574 -22 569 -10 c 2x70
EndSplineSet
Position2: "'cpsp' Capital Spacing in Latin lookup 0 subtable" dx=5 dy=0 dh=10 dv=0
EndChar

StartChar: Y
Encoding: 89 89 58
Width: 659
Flags: MW
HStem: -30 21G<318.5 335.5> 650 20G<50.5 58 597 604.5>
VStem: 297 60<0 240>
LayerCount: 2
Fore
SplineSet
305 322 m 2
 32 620 l 2
 27 626 24 633 24 640 c 0
 24 648 28 656 34 662 c 0
 40 667 47 670 54 670 c 0
 62 670 70 666 76 660 c 2
 349 362 l 2
 354 356 357 349 357 342 c 0
 357 334 353 326 347 320 c 0
 341 315 334 312 327 312 c 0
 319 312 311 316 305 322 c 2
380 436 m 2
 579 660 l 2
 585 666 593 670 601 670 c 0
 608 670 615 667 621 662 c 0
 627 656 631 648 631 640 c 0
 631 633 628 626 623 620 c 2
 424 396 l 2
 418 390 410 386 402 386 c 0
 395 386 388 389 382 394 c 0
 376 400 372 408 372 416 c 0
 372 423 375 430 380 436 c 2
297 0 m 2
 297 240 l 2
 297 257 310 270 327 270 c 0
 344 270 357 257 357 240 c 2
 357 0 l 2
 357 -17 344 -30 327 -30 c 0
 310 -30 297 -17 297 0 c 2
EndSplineSet
Position2: "'cpsp' Capital Spacing in Latin lookup 0 subtable" dx=5 dy=0 dh=10 dv=0
EndChar

StartChar: Z
Encoding: 90 90 59
Width: 703
Flags: MW
HStem: -30 60<225.5 633 234 633> 611 60<94.5 597 103 597>
VStem: 56 607<-5 2.5>
LayerCount: 2
Fore
SplineSet
103 671 m 2
 597 671 l 2
 614 671 627 658 627 641 c 0
 627 624 614 611 597 611 c 2
 103 611 l 2
 86 611 73 624 73 641 c 0
 73 658 86 671 103 671 c 2
62 18 m 2
 504 564 l 2
 510 571 519 575 527 575 c 0
 534 575 540 573 546 569 c 0
 553 563 557 554 557 546 c 0
 557 539 555 533 551 527 c 2
 109 -19 l 2
 103 -26 94 -30 86 -30 c 0
 79 -30 73 -28 67 -24 c 0
 60 -18 56 -9 56 -1 c 0
 56 6 58 12 62 18 c 2
234 30 m 2
 633 30 l 2
 650 30 663 17 663 0 c 0
 663 -17 650 -30 633 -30 c 2
 234 -30 l 2
 217 -30 204 -17 204 0 c 0
 204 17 217 30 234 30 c 2
EndSplineSet
Position2: "'cpsp' Capital Spacing in Latin lookup 0 subtable" dx=5 dy=0 dh=10 dv=0
EndChar

StartChar: bracketleft
Encoding: 91 91 60
Width: 170
Flags: MW
HStem: -110 60<56.5 133 95 133 95 133> 614 60<95 133 95 95>
VStem: 34 61<-50 614 -50 644 -50 652.5>
LayerCount: 2
Fore
SplineSet
64 674 m 2
 133 674 l 2
 150 674 163 661 163 644 c 0
 163 627 150 614 133 614 c 2
 95 614 l 1
 95 -50 l 1
 133 -50 l 2
 150 -50 163 -63 163 -80 c 0
 163 -97 150 -110 133 -110 c 2
 65 -110 l 2
 48 -110 35 -97 34 -80 c 1
 34 644 l 2
 34 661 47 674 64 674 c 2
EndSplineSet
EndChar

StartChar: backslash
Encoding: 92 92 61
Width: 242
Flags: MW
HStem: -30 21G
VStem: -10 262
LayerCount: 2
Fore
SplineSet
193 -9 m 2
 -9 635 l 2
 -10 638 -10 641 -10 644 c 0
 -10 660 2 674 20 674 c 0
 33 674 45 666 49 653 c 2
 251 9 l 2
 252 6 252 3 252 0 c 0
 252 -16 240 -30 222 -30 c 0
 209 -30 197 -22 193 -9 c 2
EndSplineSet
EndChar

StartChar: bracketright
Encoding: 93 93 62
Width: 170
Flags: MW
HStem: -110 60<17.5 64 26 64 26 95> 614 60<17.5 94 26 64>
VStem: 64 61<-50 614 614 614>
LayerCount: 2
Fore
SplineSet
26 674 m 2
 94 674 l 2
 111 674 124 661 125 644 c 1
 125 -80 l 2
 125 -97 112 -110 95 -110 c 2
 26 -110 l 2
 9 -110 -4 -97 -4 -80 c 0
 -4 -63 9 -50 26 -50 c 2
 64 -50 l 1
 64 614 l 1
 26 614 l 2
 9 614 -4 627 -4 644 c 0
 -4 661 9 674 26 674 c 2
EndSplineSet
EndChar

StartChar: asciicircum
Encoding: 94 94 63
Width: 163
Flags: MW
HStem: 476 155<75 155.5>
VStem: -22 204<502 509.5>
LayerCount: 2
Fore
SplineSet
57 620 m 1
 56 619 l 1
 62 627 70 631 80 631 c 0
 90 631 98 627 104 619 c 2
 176 524 l 2
 180 519 182 513 182 506 c 0
 182 497 178 488 170 482 c 0
 165 478 159 476 152 476 c 0
 143 476 134 480 128 488 c 2
 80 552 l 1
 31 488 l 2
 25 481 16 477 8 477 c 0
 1 477 -5 479 -11 483 c 0
 -18 489 -22 498 -22 506 c 0
 -22 513 -20 519 -16 525 c 2
 57 620 l 1
EndSplineSet
EndChar

StartChar: underscore
Encoding: 95 95 64
Width: 383
Flags: MW
HStem: -38 60<-8.5 383 0 383>
VStem: -30 443<-16.5 0.5>
LayerCount: 2
Fore
SplineSet
0 22 m 2
 383 22 l 2
 400 22 413 9 413 -8 c 0
 413 -25 400 -38 383 -38 c 2
 0 -38 l 2
 -17 -38 -30 -25 -30 -8 c 0
 -30 9 -17 22 0 22 c 2
EndSplineSet
EndChar

StartChar: grave
Encoding: 96 96 65
Width: 102
Flags: MW
HStem: 477 155<9 90.5>
VStem: -19 136<504 607.5>
LayerCount: 2
Fore
SplineSet
107 530 m 1
 106 531 l 2
 113 525 117 516 117 507 c 0
 117 501 115 494 110 488 c 0
 104 481 95 477 86 477 c 0
 80 477 73 479 67 484 c 0
 38 509 6 544 -16 589 c 0
 -18 593 -19 598 -19 602 c 0
 -19 613 -13 624 -2 629 c 0
 2 631 7 632 11 632 c 0
 22 632 33 626 38 615 c 0
 56 580 82 551 107 530 c 1
EndSplineSet
EndChar

StartChar: a
Encoding: 97 97 66
Width: 654
Flags: MW
HStem: -31 21G<38 53 591 599> 196 60<232.5 401 241 401> 650 20G<320 328>
VStem: 17 610<-6 1.5>
LayerCount: 2
Fore
SplineSet
569 -13 m 2
 295 627 l 2
 293 631 292 635 292 639 c 0
 292 651 299 662 310 667 c 0
 314 669 318 670 322 670 c 0
 334 670 345 663 350 652 c 2
 624 12 l 2
 626 8 627 4 627 0 c 0
 627 -12 620 -23 609 -28 c 0
 605 -30 601 -31 597 -31 c 0
 585 -31 574 -24 569 -13 c 2
20 12 m 2
 242 530 l 2
 247 541 258 548 270 548 c 0
 288 548 300 533 300 518 c 0
 300 513 299 509 297 505 c 2
 75 -13 l 2
 70 -24 59 -31 47 -31 c 0
 29 -31 17 -16 17 -1 c 0
 17 4 18 8 20 12 c 2
241 256 m 2
 401 256 l 2
 418 256 431 243 431 226 c 0
 431 209 418 196 401 196 c 2
 241 196 l 2
 224 196 211 209 211 226 c 0
 211 243 224 256 241 256 c 2
EndSplineSet
Substitution2: "Single Substitution lookup 3 subtable" ordfeminine
Substitution2: "'aalt' Access All Alternates in Latin lookup 0 subtable" ordfeminine
EndChar

StartChar: c
Encoding: 99 99 68
Width: 644
Flags: MW
HStem: -28 58<355 357 353 359> 609 61<328 380>
VStem: 36 60<306 316 306 317 306 342>
LayerCount: 2
Fore
SplineSet
36 304 m 1
 36 317 l 2
 36 367 45 417 64 464 c 0
 89 527 132 584 191 622 c 0
 239 653 296 670 354 670 c 0
 412 670 469 653 517 622 c 0
 526 616 531 606 531 596 c 0
 531 591 529 585 526 580 c 0
 520 571 510 566 500 566 c 0
 495 566 489 568 484 571 c 0
 451 592 406 609 354 609 c 0
 302 609 257 592 224 571 c 0
 171 536 138 484 120 439 c 0
 104 400 96 358 96 316 c 2
 96 306 l 1
 98 260 109 214 130 174 c 0
 152 132 185 95 224 70 c 0
 263 45 309 31 355 30 c 1
 359 30 l 2
 420 30 488 54 539 105 c 0
 545 111 553 114 561 114 c 0
 568 114 576 111 582 105 c 0
 588 99 591 91 591 84 c 0
 591 76 588 68 582 62 c 0
 516 -4 433 -30 357 -28 c 1
 353 -28 l 1
 296 -27 239 -10 191 21 c 0
 142 52 102 96 76 147 c 0
 51 196 38 250 36 304 c 1
EndSplineSet
EndChar

StartChar: f
Encoding: 102 102 71
Width: 571
Flags: MW
HStem: -30 21G<106.5 123.5> 314 60<192.5 443 201 443> 610 60<201 502>
VStem: 85 60<0 640>
LayerCount: 2
Fore
SplineSet
85 0 m 2
 85 640 l 2
 85 657 98 670 115 670 c 0
 132 670 145 657 145 640 c 2
 145 0 l 2
 145 -17 132 -30 115 -30 c 0
 98 -30 85 -17 85 0 c 2
201 670 m 2
 502 670 l 2
 519 670 532 657 532 640 c 0
 532 623 519 610 502 610 c 2
 201 610 l 2
 184 610 171 623 171 640 c 0
 171 657 184 670 201 670 c 2
201 374 m 2
 443 374 l 2
 460 374 473 361 473 344 c 0
 473 327 460 314 443 314 c 2
 201 314 l 2
 184 314 171 327 171 344 c 0
 171 361 184 374 201 374 c 2
EndSplineSet
EndChar

StartChar: g
Encoding: 103 103 72
Width: 672
Flags: MW
HStem: -28 61<351.5 369 351.5 371.5> 281 61<291.5 490 301 489> 613 57<306.5 365.5 292 379>
VStem: 40 59<307 309 309 313 313 315 315 319 307 323.5> 554 60<209 210 210 311>
LayerCount: 2
Fore
SplineSet
614 311 m 2
 614 210 l 2
 614 205 614 178 610 157 c 0
 596 93 553 42 503 12 c 0
 481 -1 457 -11 433 -18 c 0
 409 -25 384 -28 359 -28 c 0
 340 -28 321 -26 302 -22 c 0
 283 -18 265 -12 247 -5 c 0
 229 2 212 11 196 21 c 0
 180 31 165 43 151 56 c 0
 137 69 124 83 112 98 c 0
 100 113 90 129 81 146 c 0
 73 162 66 179 60 196 c 0
 54 213 49 231 46 249 c 0
 43 267 41 285 40 303 c 1
 40 309 l 1
 40 315 l 2
 40 332 41 349 43 366 c 0
 45 383 48 399 52 415 c 0
 56 431 61 447 67 463 c 0
 76 484 86 504 98 523 c 0
 144 596 228 670 356 670 c 0
 375 670 394 668 413 664 c 0
 432 660 450 655 468 648 c 0
 486 641 503 632 519 622 c 0
 528 616 533 606 533 596 c 0
 533 591 531 585 528 580 c 0
 522 571 512 566 502 566 c 0
 497 566 491 568 486 571 c 0
 442 598 400 613 358 613 c 0
 255 613 183 547 150 494 c 0
 140 478 131 461 124 443 c 0
 119 430 115 417 111 403 c 0
 107 389 104 375 102 361 c 0
 100 347 99 333 99 319 c 2
 99 313 l 1
 99 307 l 1
 100 292 102 277 105 262 c 0
 108 247 112 232 117 218 c 0
 122 204 128 190 135 177 c 0
 142 163 150 150 160 137 c 0
 170 124 181 112 193 101 c 0
 204 90 216 80 229 72 c 0
 242 64 256 57 270 51 c 0
 284 45 299 41 314 38 c 0
 329 35 344 33 359 33 c 0
 379 33 399 36 418 41 c 0
 437 46 455 54 472 64 c 0
 511 87 541 126 550 169 c 0
 552 177 554 193 554 209 c 2
 554 311 l 2
 554 328 567 341 584 341 c 0
 601 341 614 328 614 311 c 2
301 342 m 2
 490 342 l 1
 507 341 520 327 520 310 c 0
 520 293 506 280 489 281 c 1
 300 281 l 2
 283 281 270 295 270 312 c 0
 270 329 284 342 301 342 c 2
EndSplineSet
EndChar

StartChar: j
Encoding: 106 106 75
Width: 570
Flags: MW
HStem: -29 57<239.5 269 267 269> 650 20G<452.5 469.5>
VStem: 45 59 431 60<203 640>
LayerCount: 2
Fore
SplineSet
431 203 m 2
 431 640 l 2
 431 657 444 670 461 670 c 0
 478 670 491 657 491 640 c 2
 491 203 l 2
 491 186 478 173 461 173 c 0
 444 173 431 186 431 203 c 2
268 -29 m 2
 267 -29 l 2
 212 -29 158 -8 117 29 c 0
 76 66 50 118 45 173 c 0
 44 190 57 205 74 205 c 0
 89 205 103 193 104 178 c 0
 107 142 124 101 157 71 c 0
 190 41 232 28 268 28 c 2
 269 28 l 2
 313 28 357 47 387 79 c 0
 395 88 402 98 408 108 c 0
 413 117 423 123 434 123 c 0
 452 123 463 108 463 93 c 0
 463 89 462 84 459 79 c 0
 451 65 441 52 430 40 c 1
 430 41 l 1
 388 -3 329 -29 268 -29 c 2
EndSplineSet
EndChar

StartChar: m
Encoding: 109 109 78
Width: 894
Flags: MW
HStem: -31 21G<435.5 443> -30 21G<106.5 123.5 771.5 788.5> 650 20G<106.5 123.5> 651 20G<774.5 789.5>
VStem: 85 60<0 640> 750 60<0 446>
LayerCount: 2
Fore
SplineSet
486 140 m 2x5c
 753 654 l 2
 759 664 769 671 780 671 c 0
 799 671 811 656 811 640 c 0
 811 635 809 631 807 626 c 2
 540 112 l 2
 534 102 524 95 513 95 c 0
 494 95 482 110 482 126 c 0
 482 131 484 135 486 140 c 2x5c
85 0 m 2
 85 640 l 2
 85 657 98 670 115 670 c 0
 132 670 145 657 145 640 c 2xac
 145 0 l 2
 145 -17 132 -30 115 -30 c 0
 98 -30 85 -17 85 0 c 2
414 -14 m 2
 179 451 l 2
 177 455 176 460 176 464 c 0
 176 475 182 486 193 491 c 0
 197 493 202 494 206 494 c 0
 217 494 228 488 233 477 c 2
 468 12 l 2
 470 8 471 3 471 -1 c 0
 471 -12 465 -23 454 -28 c 0
 450 -30 445 -31 441 -31 c 0
 430 -31 420 -25 414 -14 c 2
750 0 m 2x5c
 750 446 l 2
 750 463 763 476 780 476 c 0
 797 476 810 463 810 446 c 2
 810 0 l 2
 810 -17 797 -30 780 -30 c 0
 763 -30 750 -17 750 0 c 2x5c
EndSplineSet
EndChar

StartChar: n
Encoding: 110 110 79
Width: 663
Flags: MW
HStem: -31 21G<545 552.5> -30 21G<107.5 124.5> 650 20G<113.5 121 540.5 557.5>
VStem: 86 60<0 440> 519 60<200 640>
LayerCount: 2
Fore
SplineSet
524 -17 m 2xb8
 91 623 l 2
 88 628 86 634 86 639 c 0
 86 649 91 659 100 665 c 0
 105 668 111 670 116 670 c 0
 126 670 136 665 142 656 c 2
 575 16 l 2
 578 11 580 5 580 0 c 0
 580 -10 575 -20 566 -26 c 0
 561 -29 555 -31 550 -31 c 0
 540 -31 530 -26 524 -17 c 2xb8
519 200 m 2
 519 640 l 2
 519 657 532 670 549 670 c 0
 566 670 579 657 579 640 c 2
 579 200 l 2
 579 183 566 170 549 170 c 0
 532 170 519 183 519 200 c 2
86 0 m 2x78
 86 440 l 2
 86 457 99 470 116 470 c 0
 133 470 146 457 146 440 c 2
 146 0 l 2
 146 -17 133 -30 116 -30 c 0
 99 -30 86 -17 86 0 c 2x78
EndSplineSet
EndChar

StartChar: p
Encoding: 112 112 81
Width: 606
Flags: MW
HStem: -30 21G<107.5 124.5> 269 60<211.5 374 220 374> 610 60<217 362>
VStem: 86 60<0 640> 500 60<421 496.5>
LayerCount: 2
Fore
SplineSet
86 0 m 2
 86 640 l 2
 86 657 99 670 116 670 c 0
 133 670 146 657 146 640 c 2
 146 0 l 2
 146 -17 133 -30 116 -30 c 0
 99 -30 86 -17 86 0 c 2
217 670 m 2
 362 670 l 2
 499 670 560 572 560 464 c 0
 560 339 478 269 374 269 c 2
 220 269 l 2
 203 269 190 282 190 299 c 0
 190 316 203 329 220 329 c 2
 374 329 l 2
 450 329 500 378 500 464 c 0
 500 529 472 610 362 610 c 2
 217 610 l 2
 200 610 187 623 187 640 c 0
 187 657 200 670 217 670 c 2
EndSplineSet
EndChar

StartChar: s
Encoding: 115 115 84
Width: 583
Flags: MW
HStem: -29 58<276 296 293 296> 609 60<290 292 292 293 293 295>
VStem: 49 62<175 178 157.5 181 157.5 181> 460 61<157 159 159 160 157 167.5>
LayerCount: 2
Fore
SplineSet
290 669 m 2
 292 669 l 2
 339 669 387 656 426 627 c 0
 466 597 496 548 499 493 c 0
 500 475 486 461 468 461 c 0
 452 461 439 474 438 490 c 0
 434 563 365 609 295 609 c 2
 293 609 l 2
 274 609 256 606 239 600 c 0
 222 594 206 585 194 573 c 0
 172 551 168 525 167 513 c 0
 166 497 153 484 137 484 c 0
 120 484 106 497 106 514 c 0
 106 533 113 578 149 615 c 0
 168 635 192 649 217 658 c 0
 241 666 266 669 290 669 c 2
160 461 m 0
 170 461 179 456 185 447 c 0
 216 404 248 382 302 363 c 0
 345 347 401 334 445 302 c 0
 455 295 465 287 474 278 c 0
 479 272 482 265 482 258 c 0
 482 250 478 242 472 236 c 0
 466 231 459 228 452 228 c 0
 444 228 436 232 430 238 c 0
 424 244 417 250 410 255 c 0
 375 280 328 290 281 307 c 0
 239 322 196 344 162 379 c 0
 152 390 143 402 135 415 c 0
 132 420 130 426 130 431 c 0
 130 441 135 450 144 456 c 0
 149 459 155 461 160 461 c 0
294 -29 m 2
 293 -29 l 2
 259 -29 225 -24 193 -13 c 0
 160 -2 129 16 104 42 c 0
 69 77 49 125 49 175 c 2
 49 181 l 1
 50 197 63 210 79 210 c 0
 97 210 111 196 111 178 c 2
 111 174 l 2
 111 141 125 107 149 83 c 0
 167 65 190 51 215 42 c 0
 240 33 267 29 295 29 c 2
 296 29 l 2
 320 29 343 32 365 39 c 0
 387 46 407 57 423 72 c 0
 446 94 460 126 460 157 c 2
 460 159 l 2
 460 176 473 190 490 190 c 0
 507 190 521 177 521 160 c 2
 521 157 l 1
 518 105 492 58 462 30 c 0
 439 8 411 -7 382 -16 c 0
 353 -25 323 -29 294 -29 c 2
EndSplineSet
EndChar

StartChar: x
Encoding: 120 120 89
Width: 780
Flags: MW
HStem: -31 21G<74.5 82> -30 21G<700 707.5> 649 20G<663 670.5> 650 20G<115.5 123>
VStem: 48 686<-4 2.5>
LayerCount: 2
Fore
SplineSet
682 -20 m 2x58
 97 620 l 2
 92 626 89 633 89 640 c 0
 89 648 93 656 99 662 c 0
 105 667 112 670 119 670 c 0
 127 670 135 666 141 660 c 2
 726 20 l 2
 731 14 734 7 734 0 c 0
 734 -8 730 -16 724 -22 c 0
 718 -27 711 -30 704 -30 c 0
 696 -30 688 -26 682 -20 c 2x58
455 453 m 2
 645 659 l 2
 651 665 659 669 667 669 c 0
 674 669 681 666 687 661 c 0
 693 655 697 647 697 639 c 0
 697 632 694 625 689 619 c 2xa8
 499 413 l 2
 493 407 485 403 477 403 c 0
 470 403 463 406 457 411 c 0
 451 417 447 425 447 433 c 0
 447 440 450 447 455 453 c 2
56 19 m 2
 295 277 l 2
 301 283 309 287 317 287 c 0
 324 287 331 284 337 279 c 0
 343 273 347 265 347 257 c 0
 347 250 344 243 339 237 c 2
 100 -21 l 2
 94 -27 86 -31 78 -31 c 0
 71 -31 64 -28 58 -23 c 0
 52 -17 48 -9 48 -1 c 0
 48 6 51 13 56 19 c 2
EndSplineSet
EndChar

StartChar: braceleft
Encoding: 123 123 92
Width: 170
Flags: MW
HStem: -125 67.73 249 60 623 64<69 108>
VStem: 34 59<310 586>
LayerCount: 2
Fore
SplineSet
34 310 m 1
 34 626 l 2
 34 674 57 687 81 687 c 0
 100 687 120 679 129 675 c 0
 148 667 162 658 162 633 c 0
 162 621 155 609 143 609 c 0
 140 609 136 610 132 612 c 0
 119 619 111 623 105 623 c 0
 96 623 94 612 93 586 c 1
 93 299 l 2
 93 290 91 283 87 277 c 1
 92 267 93 258 93 255 c 2
 93 -21 l 2
 93 -51 91 -68 131 -50 c 0
 135 -48 138 -48 141 -48 c 0
 153 -48 161 -58 161 -71 c 0
 161 -96 147 -105 128 -113 c 0
 119 -117 99 -125 80 -125 c 0
 56 -125 33 -112 33 -64 c 2
 33 247 l 1
 29 248 23 249 14 249 c 0
 -3 249 -16 262 -16 279 c 0
 -16 296 -3 309 14 309 c 0
 27 309 31 309 34 310 c 1
EndSplineSet
EndChar

StartChar: bar
Encoding: 124 124 93
Width: 120
Flags: MW
HStem: -72 746<51.5 68.5>
VStem: 30 60<-42 644>
LayerCount: 2
Fore
SplineSet
30 -42 m 2
 30 644 l 2
 30 661 43 674 60 674 c 0
 77 674 90 661 90 644 c 2
 90 -42 l 2
 90 -59 77 -72 60 -72 c 0
 43 -72 30 -59 30 -42 c 2
EndSplineSet
EndChar

StartChar: braceright
Encoding: 125 125 94
Width: 170
Flags: MW
HStem: -125 68<37 78> 249 60<127.5 140.5> 623 64<38 77>
VStem: 52 60<310 586 586 599>
LayerCount: 2
Fore
SplineSet
52 299 m 1
 52 586 l 2
 52 612 50 623 41 623 c 0
 35 623 27 619 14 612 c 0
 10 610 6 609 3 609 c 0
 -9 609 -16 621 -16 633 c 0
 -16 658 -2 667 17 675 c 0
 26 679 46 687 65 687 c 0
 89 687 112 674 112 626 c 2
 112 310 l 1
 115 309 119 309 132 309 c 0
 149 309 162 296 162 279 c 0
 162 262 149 249 132 249 c 0
 123 249 117 248 113 247 c 1
 113 -64 l 2
 113 -112 90 -125 66 -125 c 0
 47 -125 27 -117 18 -113 c 0
 -1 -105 -15 -96 -15 -71 c 0
 -15 -58 -7 -48 5 -48 c 0
 8 -48 11 -48 15 -50 c 0
 26 -55 34 -57 40 -57 c 0
 54 -57 53 -43 53 -21 c 2
 53 255 l 2
 53 258 54 267 59 277 c 1
 55 283 53 290 52 299 c 1
EndSplineSet
EndChar

StartChar: asciitilde
Encoding: 126 126 95
Width: 264
Flags: MW
HStem: 491 63<191 192 192 194.5> 554 63<65.5 67 67 69 69 72>
VStem: -8 62<521.5 550.5> 211 61<566 573.5 568 573.5>
LayerCount: 2
Fore
SplineSet
272 572 m 1x90
 278 571 l 1
 277 557 277 557 274 548 c 0
 274 546 273 544 271 540 c 0
 264 524 252 512 241 505 c 0
 230 498 216 492 199 491 c 1
 195 491 l 2
 182 491 169 494 158 499 c 0
 133 509 112 530 101 539 c 0x90
 94 545 88 549 82 551 c 0
 78 553 76 554 72 554 c 2
 69 554 l 1
 67 554 l 2
 64 554 58 553 55 549 c 0
 53 546 53 543 53 542 c 2
 53 539 l 1
 54 536 54 533 54 529 c 0
 54 514 44 500 24 500 c 0
 12 500 0 507 -4 520 c 0
 -7 529 -8 536 -8 543 c 0
 -8 558 -4 573 5 586 c 0
 8 591 26 614 61 617 c 1
 67 617 l 1
 75 617 l 1
 87 616 90 615 104 609 c 0
 111 606 121 600 136 588 c 0x60
 160 568 163 563 177 557 c 0
 182 555 187 554 191 554 c 2
 192 554 l 2
 197 554 201 556 204 558 c 0
 208 560 210 563 211 566 c 0
 214 574 211 568 211 568 c 1
 212 570 212 570 212 573 c 0
 212 576 212 573 211 576 c 0
 208 594 222 611 240 611 c 0
 254 611 267 601 270 587 c 0
 271 584 272 575 272 572 c 1x90
EndSplineSet
EndChar

StartChar: uni00A0
Encoding: 160 160 97
Width: 181
Flags: MW
HStem: 286 60<37.5 130 46 130>
VStem: 16 144<307.5 324.5>
LayerCount: 2
Fore
SplineSet
46 346 m 2
 130 346 l 2
 147 346 160 333 160 316 c 0
 160 299 147 286 130 286 c 2
 46 286 l 2
 29 286 16 299 16 316 c 0
 16 333 29 346 46 346 c 2
EndSplineSet
EndChar

StartChar: exclamdown
Encoding: 161 161 98
Width: 130
Flags: MW
HStem: 496 134<46.5 83.5>
VStem: 35 60<-44 446>
LayerCount: 2
Fore
SplineSet
65 630 m 0
 102 630 132 600 132 563 c 0
 132 526 102 496 65 496 c 0
 28 496 -2 526 -2 563 c 0
 -2 600 28 630 65 630 c 0
35 -44 m 2
 35 446 l 2
 35 463 48 476 65 476 c 0
 82 476 95 463 95 446 c 2
 95 -44 l 2
 95 -61 82 -74 65 -74 c 0
 48 -74 35 -61 35 -44 c 2
EndSplineSet
EndChar

StartChar: cent
Encoding: 162 162 99
Width: 598
Flags: MW
HStem: -27 55<327 331 331 332 325 331> 561 56<303 351>
VStem: 35 56<281 291 281 291 281 314> 289 60<110 466>
LayerCount: 2
Fore
SplineSet
332 -27 m 2
 325 -27 l 1
 273 -26 221 -11 177 17 c 0
 132 45 96 86 72 133 c 0
 49 178 37 228 35 278 c 1
 35 291 l 2
 35 337 44 383 61 426 c 0
 84 484 124 537 178 572 c 0
 222 601 274 617 327 617 c 0
 380 617 432 601 476 572 c 0
 484 567 489 558 489 548 c 0
 489 544 488 539 485 534 c 0
 480 526 471 521 461 521 c 0
 457 521 452 522 447 525 c 0
 417 545 375 561 327 561 c 0
 279 561 237 545 207 525 c 0
 158 493 128 446 112 405 c 0
 98 369 91 330 91 291 c 2
 91 281 l 1
 92 239 102 197 121 160 c 0
 141 121 171 88 207 65 c 0
 243 42 285 29 327 28 c 1
 331 28 l 2
 387 28 450 50 497 97 c 0
 503 103 510 105 517 105 c 0
 524 105 531 103 536 97 c 1
 542 92 544 85 544 78 c 0
 544 71 542 64 536 58 c 0
 478 0 401 -27 332 -27 c 2
289 110 m 2
 289 466 l 2
 289 483 302 496 319 496 c 0
 336 496 349 483 349 466 c 2
 349 110 l 2
 349 93 336 80 319 80 c 0
 302 80 289 93 289 110 c 2
EndSplineSet
EndChar

StartChar: sterling
Encoding: 163 163 100
Width: 455
Flags: MW
HStem: -35 21G<67 67> -35 60<67 74> -31 21G<43 43> -22 60<319 330.5 319 335.5> 77 60<78 85.5> 249 60<190 321 190 190> 578 62<241.5 250.5>
VStem: -16 60<47 48 44.5 51 44.5 51> 86 59<461 474 461 478> 132 61<187 189 171 190 171 200> 345 57<479 481.5>
LayerCount: 2
Fore
SplineSet
119 310 m 1x2f60
 118 314 l 2x2f60
 111 343 101 373 94 406 c 0
 89 427 86 449 86 471 c 0
 86 485 87 499 90 513 c 0
 96 540 110 572 136 597 c 0
 160 620 191 635 224 639 c 0
 232 640 238 640 244 640 c 0
 265 640 285 636 304 628 c 0
 329 618 351 601 368 579 c 0
 385 557 396 531 400 504 c 0
 401 496 402 488 402 480 c 0
 402 461 399 442 393 424 c 0
 388 412 377 404 365 404 c 0
 346 404 334 419 334 434 c 0
 334 438 335 442 336 445 c 0
 340 456 342 468 342 480 c 1
 345 479 l 1
 345 484 345 489 344 494 c 0
 341 511 334 527 323 540 c 0
 312 553 298 564 282 570 c 0
 270 575 257 578 244 578 c 0
 239 578 235 578 231 577 c 0
 211 574 192 565 178 551 c 0
 161 535 152 515 148 498 c 0
 146 489 145 479 145 469 c 0
 145 453 148 436 152 418 c 0x2fa0
 159 389 169 359 177 327 c 1
 180 309 l 1
 321 309 l 2
 338 309 351 296 351 279 c 0
 351 262 338 249 321 249 c 2
 190 249 l 1
 192 229 193 209 193 189 c 2
 193 185 l 2
 193 157 192 127 186 97 c 1
 207 83 226 69 245 59 c 0
 264 49 284 42 304 39 c 0
 310 38 316 38 322 38 c 0
 339 38 356 42 371 49 c 0
 391 58 408 74 418 93 c 0
 424 103 434 110 445 110 c 0
 464 110 476 95 476 79 c 0
 476 74 474 70 472 65 c 0
 456 34 430 9 398 -6 c 0
 374 -17 348 -22 323 -22 c 0
 314 -22 305 -21 296 -20 c 0
 267 -16 241 -6 217 7 c 0
 199 17 183 28 168 38 c 1
 159 18 144 -4 121 -19 c 0x1f60
 109 -27 95 -32 80 -34 c 2
 67 -35 l 1x8f60
 52 -34 52 -34 43 -31 c 2
 35 -28 l 2
 19 -22 6 -11 -3 3 c 0
 -13 18 -16 34 -16 47 c 2
 -16 51 l 1
 -15 70 -8 86 0 97 c 0
 8 108 20 119 36 127 c 0
 51 134 67 137 82 137 c 0
 95 137 108 135 120 131 c 2
 129 128 l 1
 131 147 132 167 132 187 c 2
 132 190 l 2
 132 210 131 230 129 250 c 1
 41 250 l 2
 24 250 11 263 11 280 c 0
 11 297 24 310 41 310 c 2
 119 310 l 1x2f60
117 70 m 1x4f60
 115 69 l 1
 111 71 107 73 103 74 c 0
 96 76 89 77 82 77 c 0
 74 77 67 76 61 73 c 0
 55 70 51 66 48 62 c 0
 45 57 44 52 44 48 c 2
 44 47 l 2
 44 42 46 38 48 35 c 0
 50 32 54 29 59 27 c 2
 59 27 61 26 62 26 c 0
 65 25 66 25 70 25 c 2
 74 25 l 1
 79 26 84 28 89 31 c 0
 99 38 108 50 115 65 c 2
 117 70 l 1x4f60
EndSplineSet
EndChar

StartChar: currency
Encoding: 164 164 101
Width: 484
Flags: MW
HStem: 159 62<228 254.5 228 259.5> 435 62<229 256>
VStem: 74 61<314 341 314 344.5> 350 62<316.5 343>
LayerCount: 2
Fore
SplineSet
339 467 m 1
 393 521 l 2
 399 527 407 530 415 530 c 0
 422 530 430 527 436 521 c 0
 442 515 445 507 445 500 c 0
 445 492 442 484 436 478 c 2
 382 424 l 1
 402 395 412 361 412 328 c 0
 412 295 402 261 382 232 c 1
 436 178 l 2
 442 172 445 164 445 157 c 0
 445 149 442 141 436 135 c 0
 430 129 422 126 415 126 c 0
 407 126 399 129 393 135 c 2
 339 189 l 1
 310 169 276 159 243 159 c 0
 210 159 176 169 147 189 c 1
 93 135 l 2
 87 129 79 126 72 126 c 0
 64 126 56 129 50 135 c 0
 44 141 41 149 41 157 c 0
 41 164 44 172 50 178 c 2
 104 232 l 1
 84 261 74 295 74 328 c 0
 74 361 84 395 104 424 c 1
 50 478 l 2
 44 484 41 492 41 500 c 0
 41 507 44 515 50 521 c 0
 56 527 64 530 72 530 c 0
 79 530 87 527 93 521 c 2
 147 467 l 1
 176 487 210 497 243 497 c 0
 276 497 310 487 339 467 c 1
319 405 m 1
 318 404 l 1
 297 425 270 435 242 435 c 0
 216 435 190 426 169 407 c 1
 166 404 l 1
 163 401 l 1
 144 380 135 354 135 328 c 0
 135 300 145 273 166 252 c 0
 187 231 214 221 242 221 c 0
 267 221 292 230 312 248 c 0
 313 250 315 252 317 254 c 0
 319 256 321 258 323 259 c 0
 341 279 350 304 350 329 c 0
 350 357 340 384 319 405 c 1
EndSplineSet
EndChar

StartChar: yen
Encoding: 165 165 102
Width: 690
Flags: MW
HStem: -31 21G<334.5 351.5> 216 54<183.5 506 192 313 373 506 373 373> 318 53<183.5 277 192 277 358 506> 651 20G<67.5 75 614 621.5>
VStem: 313 60<-1 216>
LayerCount: 2
Fore
SplineSet
277 371 m 1
 49 621 l 2
 44 627 41 634 41 641 c 0
 41 649 45 657 51 663 c 0
 57 668 64 671 71 671 c 0
 79 671 87 667 93 661 c 2
 358 371 l 1
 506 371 l 1
 506 372 l 1
 523 372 536 360 536 345 c 0
 536 330 523 318 506 318 c 2
 192 318 l 2
 175 318 162 330 162 345 c 0
 162 360 175 372 192 371 c 1
 277 371 l 1
423 473 m 2
 596 661 l 2
 602 667 610 671 618 671 c 0
 625 671 632 668 638 663 c 0
 644 657 648 649 648 641 c 0
 648 634 645 627 640 621 c 2
 467 433 l 2
 461 427 453 423 445 423 c 0
 438 423 431 426 425 431 c 0
 419 437 415 445 415 453 c 0
 415 460 418 467 423 473 c 2
192 270 m 2
 506 270 l 2
 523 270 536 258 536 243 c 0
 536 228 523 216 506 216 c 2
 373 216 l 1
 373 -1 l 2
 373 -18 360 -31 343 -31 c 0
 326 -31 313 -18 313 -1 c 2
 313 216 l 1
 192 216 l 2
 175 216 162 228 162 243 c 0
 162 258 175 270 192 270 c 2
EndSplineSet
EndChar

StartChar: brokenbar
Encoding: 166 166 103
Width: 120
Flags: MW
HStem: -30 21G<51.5 68.5> 622 20G<51.5 68.5>
VStem: 30 60<0 235 377 612>
LayerCount: 2
Fore
SplineSet
30 377 m 2
 30 612 l 2
 30 629 43 642 60 642 c 0
 77 642 90 629 90 612 c 2
 90 377 l 2
 90 360 77 347 60 347 c 0
 43 347 30 360 30 377 c 2
30 0 m 2
 30 235 l 2
 30 252 43 265 60 265 c 0
 77 265 90 252 90 235 c 2
 90 0 l 2
 90 -17 77 -30 60 -30 c 0
 43 -30 30 -17 30 0 c 2
EndSplineSet
EndChar

StartChar: section
Encoding: 167 167 104
Width: 614
Flags: MW
HStem: -116 61<273.5 291 273.5 292> 619 58<302 312 302 302>
VStem: 77 59<417 423 417 424 417 438> 447 50<80 122 87 122> 458 60<625 647> 505 59<161 168 168 168>
LayerCount: 2
Fore
SplineSet
458 625 m 1xe8
 458 647 l 2
 458 664 471 677 488 677 c 0
 505 677 518 664 518 647 c 2
 518 552 l 2
 518 538 510 527 497 523 c 0
 494 522 490 521 487 521 c 0
 478 521 469 526 463 534 c 0xe8
 441 564 406 596 360 611 c 0
 344 616 328 619 312 619 c 2
 302 619 l 1
 283 618 264 612 248 602 c 0
 232 592 218 578 209 561 c 0
 205 554 202 546 200 538 c 0
 200 536 200 534 199 532 c 0
 197 524 196 516 196 508 c 2
 196 502 l 1
 197 486 201 470 208 456 c 0
 215 442 225 429 237 418 c 0
 251 405 274 388 326 371 c 0
 370 357 426 346 471 318 c 0
 495 303 517 283 534 258 c 0
 551 233 562 203 564 172 c 1
 564 161 l 2
 564 121 550 82 526 51 c 0
 517 39 507 27 494 17 c 1
 487 -1 478 -18 466 -33 c 0xe4
 437 -69 399 -90 366 -101 c 0
 337 -111 307 -116 277 -116 c 0
 263 -116 249 -115 235 -113 c 0
 185 -106 138 -87 96 -60 c 0
 82 -51 68 -41 55 -30 c 0
 48 -24 44 -15 44 -6 c 0
 44 0 46 7 51 13 c 0
 57 20 66 24 75 24 c 0
 81 24 88 22 94 17 c 0
 129 -12 189 -43 246 -52 c 0
 257 -54 268 -55 279 -55 c 0
 303 -55 327 -51 349 -43 c 0
 377 -33 403 -16 421 7 c 0
 437 27 447 54 447 80 c 2
 447 87 l 1
 446 107 439 127 428 144 c 0
 417 161 401 175 383 186 c 0xf0
 346 209 292 219 251 232 c 0
 213 244 173 260 139 291 c 0
 122 306 107 325 96 346 c 0
 85 367 78 391 77 416 c 1
 77 424 l 2
 77 452 84 480 97 504 c 0
 109 527 126 546 146 561 c 1
 149 570 153 579 158 588 c 0
 172 615 193 637 218 652 c 0
 243 667 271 675 299 677 c 1
 313 677 l 2
 336 677 359 673 380 666 c 0
 408 657 434 643 458 625 c 1xe8
497 122 m 1xe4
 499 123 l 1
 503 135 505 148 505 161 c 2
 505 168 l 1
 504 188 497 208 486 225 c 0
 475 242 459 256 441 267 c 0xe4
 404 290 350 300 309 313 c 0
 271 325 231 341 197 372 c 0
 180 387 165 406 154 427 c 0
 149 438 145 449 142 461 c 1
 138 449 136 436 136 423 c 2
 136 417 l 1
 137 401 141 385 148 371 c 0
 155 357 165 344 177 333 c 0
 191 320 214 303 266 286 c 0
 310 272 366 261 411 233 c 0
 435 218 457 198 474 173 c 0xf0
 484 157 492 140 497 122 c 1xe4
EndSplineSet
EndChar

StartChar: dieresis
Encoding: 168 168 105
Width: 260
Flags: MW
HStem: 544 76<66.5 85.5 64.5 87.5 174.5 193.5>
VStem: 38 76<572.5 591.5> 146 76<572.5 591.5>
LayerCount: 2
Fore
SplineSet
76 620 m 0
 95 620 114 605 114 582 c 0
 114 563 99 544 76 544 c 0
 57 544 38 559 38 582 c 0
 38 601 53 620 76 620 c 0
184 620 m 0
 203 620 222 605 222 582 c 0
 222 563 207 544 184 544 c 0
 165 544 146 559 146 582 c 0
 146 601 161 620 184 620 c 0
EndSplineSet
EndChar

StartChar: copyright
Encoding: 169 169 106
Width: 212
Flags: MW
HStem: 419 20<80.5 125.5 80.5 131> 468 13 561 24<103.5 112 106 112> 601 20<80.5 125.5>
VStem: 2 20<497.5 542.5 497.5 548> 57 17<521 523 514.5 527 514.5 527> 130 19 184 20<497.5 542.5>
LayerCount: 2
Fore
SplineSet
103 621 m 0
 159 621 204 576 204 520 c 0
 204 464 159 419 103 419 c 0
 47 419 2 464 2 520 c 0
 2 576 47 621 103 621 c 0
103 601 m 0
 58 601 22 565 22 520 c 0
 22 475 58 439 103 439 c 0
 148 439 184 475 184 520 c 0
 184 565 148 601 103 601 c 0
149 559 m 1xff
 146 556 l 1
 146 551 143 547 139 546 c 1
 136 546 l 2
 133 546 130 547 128 550 c 0
 127 552 121 560 108 561 c 1
 106 561 l 2
 101 561 96 560 92 558 c 0
 88 556 84 552 81 547 c 0
 77 540 75 532 74 523 c 1
 74 519 l 2
 74 510 76 502 80 496 c 0
 83 492 87 488 93 485 c 0
 99 482 106 481 113 481 c 0
 121 481 129 483 136 486 c 0
 137 487 139 487 140 487 c 0
 144 487 148 485 149 481 c 0
 150 480 150 478 150 477 c 0
 150 473 148 469 144 468 c 0
 135 464 125 462 114 462 c 0
 105 462 95 464 86 468 c 0
 79 472 71 478 65 487 c 0
 59 498 57 510 57 521 c 2
 57 527 l 1
 58 538 60 550 66 560 c 0
 71 569 78 575 85 579 c 0
 92 583 100 585 108 585 c 2
 112 585 l 1
 119 584 125 582 130 579 c 1
 132 582 135 584 139 584 c 0
 145 584 149 580 149 574 c 2
 149 559 l 1xff
EndSplineSet
EndChar

StartChar: ordfeminine
Encoding: 170 170 107
Width: 356
Flags: MW
HStem: 481 32<218.5 306 223 306>
VStem: 223 83<481 481 481 513>
LayerCount: 2
Fore
SplineSet
392 375 m 2
 250 709 l 2
 249 711 249 713 249 714 c 0
 249 721 253 727 259 729 c 0
 261 730 263 730 264 730 c 0
 271 730 277 726 279 720 c 2
 421 386 l 2
 422 384 422 382 422 381 c 0
 422 374 418 368 412 366 c 0
 410 365 408 365 407 365 c 0
 400 365 394 369 392 375 c 2
109 386 m 2
 224 656 l 2
 226 662 232 666 239 666 c 0
 250 666 257 655 253 645 c 2
 138 375 l 2
 136 369 130 365 123 365 c 0
 112 365 105 376 109 386 c 2
223 513 m 2
 306 513 l 2
 315 513 322 506 322 497 c 0
 322 488 315 481 306 481 c 2
 223 481 l 2
 214 481 207 488 207 497 c 0
 207 506 214 513 223 513 c 2
EndSplineSet
EndChar

StartChar: guillemotleft
Encoding: 171 171 108
Width: 426
Flags: MW
HStem: 38 182<178.5 186.5 178.5 187.5>
VStem: 36 356<122 191.5>
LayerCount: 2
Fore
SplineSet
130 128 m 1
 132 127 l 2
 154 116 175 104 195 93 c 0
 204 88 210 78 210 67 c 0
 210 49 195 38 180 38 c 0
 176 38 171 40 166 42 c 2
 107 74 l 2
 88 84 70 94 53 101 c 0
 42 106 36 116 36 128 c 0
 36 140 43 150 54 155 c 0
 71 162 89 172 108 182 c 0
 127 192 147 204 167 216 c 0
 172 219 176 220 181 220 c 0
 192 220 202 214 207 205 c 0
 210 200 211 196 211 191 c 0
 211 180 205 170 196 165 c 0
 176 154 155 142 133 131 c 1
 130 128 l 1
316 131 m 1
 316 130 l 1
 336 120 356 109 376 98 c 0
 385 93 391 83 391 72 c 0
 391 54 376 43 361 43 c 0
 357 43 352 45 347 47 c 0
 327 58 307 68 287 78 c 0
 269 87 251 95 233 103 c 0
 222 108 216 118 216 130 c 0
 216 142 223 152 234 157 c 0
 252 165 270 173 288 182 c 0
 308 192 328 203 348 214 c 0
 353 217 357 218 362 218 c 0
 373 218 383 212 388 203 c 0
 391 198 392 194 392 189 c 0
 392 178 386 168 377 163 c 0
 357 152 337 141 316 131 c 1
EndSplineSet
EndChar

StartChar: logicalnot
Encoding: 172 172 109
Width: 277
Flags: MW
HStem: 251 60<7.5 261 16 231>
VStem: 231 60<209 251 251 251>
LayerCount: 2
Fore
SplineSet
16 311 m 2
 261 311 l 2
 278 311 291 298 291 281 c 2
 291 209 l 2
 291 192 278 179 261 179 c 0
 244 179 231 192 231 209 c 2
 231 251 l 1
 16 251 l 2
 -1 251 -14 264 -14 281 c 0
 -14 298 -1 311 16 311 c 2
EndSplineSet
EndChar

StartChar: uni00AD
Encoding: 173 173 110
Width: 228
Flags: MW
HStem: 251 60<36.5 170 45 170>
VStem: 15 185<272.5 289.5>
LayerCount: 2
Fore
SplineSet
45 311 m 2
 170 311 l 2
 187 311 200 298 200 281 c 0
 200 264 187 251 170 251 c 2
 45 251 l 2
 28 251 15 264 15 281 c 0
 15 298 28 311 45 311 c 2
EndSplineSet
EndChar

StartChar: registered
Encoding: 174 174 111
Width: 212
Flags: MW
HStem: 421 20<85.5 130.5 85.5 136> 461 19<75 76 75 96 74 76> 515 20<114 116.5 94 124> 564 19<94 112 94 94> 603 20<85.5 130.5>
VStem: 7 20<499.5 544.5 499.5 550> 76 18<535 535 535 563 563 563> 112 37<535 558 537.5 564> 189 20<499.5 544.5>
LayerCount: 2
Fore
SplineSet
108 623 m 0
 164 623 209 578 209 522 c 0
 209 466 164 421 108 421 c 0
 52 421 7 466 7 522 c 0
 7 578 52 623 108 623 c 0
108 603 m 0
 63 603 27 567 27 522 c 0
 27 477 63 441 108 441 c 0
 153 441 189 477 189 522 c 0
 189 567 153 603 108 603 c 0
75 583 m 2xfe80
 114 583 l 2xbf80
 135 583 149 569 149 547 c 0
 149 528 134 515 114 515 c 1
 121 502 132 485 147 478 c 0
 151 477 153 473 153 469 c 0
 153 461 145 458 139 460 c 0xaf80
 118 470 105 490 95 508 c 1xae80
 95 481 l 1
 96 481 l 2
 102 481 106 477 106 471 c 0
 106 465 102 461 96 461 c 2
 74 461 l 1
 75 460 l 1
 69 460 65 464 65 470 c 0
 65 476 69 480 75 480 c 2
 76 480 l 1
 76 563 l 1
 75 563 l 2
 69 563 65 567 65 573 c 0
 65 579 69 583 75 583 c 2xfe80
94 535 m 1xae80
 112 535 l 2
 121 535 127 540 127 548 c 0xaf80
 127 561 120 564 112 564 c 2xbf80
 94 564 l 1xbe80
 94 535 l 1xae80
EndSplineSet
EndChar

StartChar: macron
Encoding: 175 175 112
Width: 333
Flags: MW
HStem: 251 60<29.5 295 38 295>
VStem: 8 317<272.5 289.5>
LayerCount: 2
Fore
SplineSet
38 311 m 2
 295 311 l 2
 312 311 325 298 325 281 c 0
 325 264 312 251 295 251 c 2
 38 251 l 2
 21 251 8 264 8 281 c 0
 8 298 21 311 38 311 c 2
EndSplineSet
EndChar

StartChar: degree
Encoding: 176 176 113
Width: 171
Flags: MW
HStem: 772 60<74.5 81.5 74.5 98> 856 60<74.5 81.5>
VStem: 6 72 78 72
LayerCount: 2
Fore
SplineSet
78 916 m 0x50
 118 916 150 884 150 844 c 0xd0
 150 804 118 772 78 772 c 0xe0
 38 772 6 804 6 844 c 0x60
 6 884 38 916 78 916 c 0x50
78 856 m 0x60
 71 856 66 851 66 844 c 0x60
 66 837 71 832 78 832 c 0
 85 832 90 837 90 844 c 0xd0
 90 851 85 856 78 856 c 0x60
EndSplineSet
EndChar

StartChar: plusminus
Encoding: 177 177 114
Width: 409
Flags: MW
HStem: -134 60<63.5 329 72 329> 250 60<58.5 172 67 172 232 335>
VStem: 172 60<143 250 310 411>
LayerCount: 2
Fore
SplineSet
172 310 m 1
 172 411 l 2
 172 428 185 441 202 441 c 0
 219 441 232 428 232 411 c 2
 232 310 l 1
 335 310 l 2
 352 310 365 297 365 280 c 0
 365 263 352 250 335 250 c 2
 232 250 l 1
 232 143 l 2
 232 126 219 113 202 113 c 0
 185 113 172 126 172 143 c 2
 172 250 l 1
 67 250 l 2
 50 250 37 263 37 280 c 0
 37 297 50 310 67 310 c 2
 172 310 l 1
72 -74 m 2
 329 -74 l 2
 346 -74 359 -87 359 -104 c 0
 359 -121 346 -134 329 -134 c 2
 72 -134 l 2
 55 -134 42 -121 42 -104 c 0
 42 -87 55 -74 72 -74 c 2
EndSplineSet
EndChar

StartChar: uni00B2
Encoding: 178 178 115
Width: 390
Flags: MW
HStem: 249 59<58 271 97 271 97 284> 615 59<192 193 193 194>
VStem: 36 61<276 308 290 308> 270 60<562.5 566.5>
LayerCount: 2
Fore
SplineSet
192 674 m 2
 194 674 l 2
 228 674 257 664 278 651 c 0
 303 636 321 613 327 586 c 0
 329 578 330 571 330 565 c 0
 330 551 327 538 322 526 c 0
 314 507 302 491 289 478 c 0
 259 448 213 422 191 409 c 0
 183 404 138 377 115 346 c 0
 106 334 100 321 97 308 c 1
 271 308 l 1
 307 340 l 2
 313 345 320 348 327 348 c 0
 335 348 343 344 349 338 c 0
 354 332 357 325 357 318 c 0
 357 310 353 302 347 296 c 2
 302 256 l 1
 304 256 l 1
 298 251 292 249 284 249 c 2
 66 249 l 2
 50 249 38 260 36 276 c 1
 36 290 l 2
 36 323 48 355 68 382 c 0
 82 401 104 425 160 460 c 0
 202 486 226 499 247 520 c 0
 259 532 264 542 267 548 c 0
 269 554 270 560 270 565 c 0
 270 568 270 570 269 572 c 0
 266 585 255 595 246 601 c 0
 233 609 215 615 194 615 c 2
 193 615 l 2
 173 615 153 609 139 600 c 0
 129 594 116 583 111 569 c 0
 107 556 95 548 82 548 c 0
 64 548 52 562 52 578 c 0
 52 581 52 584 53 587 c 0
 55 594 66 627 107 651 c 0
 132 666 162 674 192 674 c 2
EndSplineSet
EndChar

StartChar: uni00B3
Encoding: 179 179 116
Width: 390
Flags: MW
HStem: 246 61<163.5 194 163.5 198.5> 452 60<180 185> 614 56<193 200 197 199>
VStem: 272 60<568 571 571 574 563.5 575> 292 60<371 384.5>
LayerCount: 2
Fore
SplineSet
197 670 m 2xe8
 200 670 l 2xe8
 209 670 218 669 227 668 c 0
 236 667 245 665 253 662 c 0
 261 659 269 655 277 651 c 0
 285 646 292 641 299 635 c 0
 306 629 312 622 317 615 c 0
 322 608 326 600 329 592 c 0
 330 590 331 585 331 583 c 2
 332 574 l 1
 332 565 l 2
 332 562 331 554 330 551 c 2
 326 537 l 2
 325 533 323 529 320 524 c 0
 316 517 312 510 307 504 c 0
 302 498 296 492 290 487 c 2
 286 484 l 1xf0
 305 473 320 459 330 445 c 0
 345 425 352 401 352 378 c 0
 352 351 343 328 331 311 c 0
 319 293 300 276 274 264 c 0
 246 251 214 246 183 246 c 0
 141 246 105 256 78 272 c 0
 65 280 54 289 44 300 c 0
 39 306 36 313 36 320 c 0
 36 328 40 336 46 342 c 0
 52 347 59 350 66 350 c 0
 74 350 82 346 88 340 c 0
 93 334 99 329 107 324 c 0
 120 317 145 307 182 307 c 0
 206 307 230 312 248 320 c 0
 263 327 274 337 281 347 c 0
 285 352 292 363 292 379 c 0
 292 390 289 401 282 411 c 0
 277 418 266 430 246 439 c 0
 236 443 220 448 193 451 c 0xe8
 188 452 184 452 180 452 c 0
 164 453 152 465 152 481 c 0
 152 499 165 512 183 512 c 2
 185 512 l 2
 192 512 199 512 206 513 c 0
 213 514 220 515 226 517 c 0
 232 519 238 522 243 525 c 0
 247 527 251 530 254 533 c 0
 257 536 260 539 262 542 c 0
 264 545 266 548 267 551 c 2
 270 557 l 2
 271 559 271 561 271 563 c 0
 272 566 272 565 272 568 c 2
 272 571 l 1
 272 574 l 2
 272 576 272 575 271 577 c 0
 270 580 269 583 267 586 c 0
 265 589 262 592 259 595 c 0
 256 598 252 601 248 603 c 2
 234 609 l 2
 229 611 223 612 217 613 c 0
 211 614 205 614 199 614 c 2
 196 614 l 2
 190 614 184 613 178 612 c 0xf0
 172 611 166 609 161 607 c 0
 156 605 151 603 147 600 c 0
 143 597 139 594 136 591 c 0
 133 588 131 585 129 582 c 0
 127 579 126 576 125 573 c 0
 122 559 110 550 96 550 c 0
 79 550 66 564 66 580 c 0
 66 592 71 602 76 612 c 1
 78 607 l 1
 83 615 89 622 95 629 c 0
 101 636 108 642 116 647 c 0
 124 652 132 656 141 659 c 0
 150 662 159 665 168 667 c 0
 177 669 187 670 197 670 c 2xe8
EndSplineSet
EndChar

StartChar: acute
Encoding: 180 180 117
Width: 162
Flags: MW
HStem: 476 156<10.5 100.5>
VStem: -16 137<503 610>
LayerCount: 2
Fore
SplineSet
35 484 m 1
 34 483 l 2
 28 478 21 476 15 476 c 0
 6 476 -3 480 -9 487 c 0
 -14 493 -16 500 -16 506 c 0
 -16 515 -12 524 -5 530 c 0
 20 551 46 580 64 615 c 0
 69 626 80 632 91 632 c 0
 110 632 121 618 121 602 c 0
 121 598 120 593 118 589 c 0
 96 544 64 509 35 484 c 1
EndSplineSet
EndChar

StartChar: uni00B5
Encoding: 181 181 118
Width: 477
Flags: MW
HStem: -250 60<16.5 40 25 40 100 115> -30 57<186 230.5 172.5 235.5> -29 60<390 406 390 406 388 406> 414 60<16.5 70 25 40 288 327>
VStem: 40 60<-190 -1 131 142 142 145 145 414 414 414> 327 61<77 414 414 414>
LayerCount: 2
Fore
SplineSet
357 474 m 1xdc
 358 476 l 1xdc
 375 476 388 463 388 446 c 2
 388 42 l 1
 390 30 389 32 390 31 c 1
 406 31 l 2
 423 31 436 18 436 1 c 0
 436 -16 423 -29 406 -29 c 2
 388 -29 l 1
 385 -28 365 -29 347 -11 c 0xbc
 339 -3 334 5 331 13 c 1
 302 -10 262 -30 209 -30 c 0
 163 -30 127 -20 100 -1 c 1
 100 -190 l 1
 115 -190 l 2
 132 -190 145 -203 145 -220 c 0
 145 -237 132 -250 115 -250 c 2
 25 -250 l 2
 8 -250 -5 -237 -5 -220 c 0
 -5 -203 8 -190 25 -190 c 2
 40 -190 l 1
 40 142 l 1
 40 145 l 1
 40 414 l 1
 25 414 l 2
 8 414 -5 427 -5 444 c 0
 -5 461 8 474 25 474 c 2
 70 474 l 2
 87 474 100 461 100 444 c 2
 100 131 l 1
 103 58 136 27 209 27 c 0
 252 27 324 75 327 77 c 1
 327 414 l 1
 288 414 l 2
 271 414 258 427 258 444 c 0
 258 461 271 474 288 474 c 2
 357 474 l 1xdc
EndSplineSet
EndChar

StartChar: paragraph
Encoding: 182 182 119
Width: 419
Flags: MW
HStem: -114 60<148.5 168 157 168 157 198> 322 61<125 168 125 168> 530 60<102.5 288 124 168>
VStem: 1 60<428 477 428 495.5> 168 60<-54 322 322 322 383 530 530 530> 251 60<-52 532 -52 532 -52 532>
LayerCount: 2
Fore
SplineSet
289 593 m 1
 323 593 l 1
 339 592 352 579 352 563 c 0
 352 545 338 531 320 532 c 1
 311 532 l 1
 311 -52 l 1
 321 -52 l 2
 338 -52 351 -65 351 -82 c 0
 351 -99 338 -112 321 -112 c 2
 281 -112 l 2
 264 -112 251 -99 251 -82 c 2
 251 532 l 1xfc
 228 532 l 1
 228 352 l 1
 228 350 l 1
 228 -84 l 2
 228 -101 215 -114 198 -114 c 2
 157 -114 l 2
 140 -114 127 -101 127 -84 c 0
 127 -67 140 -54 157 -54 c 2
 168 -54 l 1
 168 322 l 1xf8
 125 322 l 1
 58 324 1 369 1 455 c 0
 1 536 50 590 124 590 c 2
 288 590 l 1
 289 593 l 1
168 530 m 1xf8
 124 530 l 2
 81 530 61 499 61 455 c 0
 61 401 91 384 125 383 c 1
 168 383 l 1
 168 530 l 1xf8
EndSplineSet
EndChar

StartChar: cedilla
Encoding: 184 184 121
Width: 333
Flags: MW
HStem: -159 61<123.5 129 129 131> -30 21G<176 176>
VStem: 97 114<-99.5 -35>
LayerCount: 2
Fore
SplineSet
97 -35 m 2
 135 19 l 2
 141 27 150 32 160 32 c 0
 166 32 172 30 178 26 c 0
 186 20 191 11 191 1 c 0
 191 -5 189 -11 185 -17 c 2
 176 -30 l 1
 181 -33 186 -36 190 -40 c 0
 203 -52 211 -68 211 -87 c 2
 211 -88 l 2
 211 -111 199 -127 193 -134 c 0
 182 -146 168 -152 156 -155 c 0
 146 -158 136 -159 126 -159 c 0
 121 -159 116 -159 110 -158 c 0
 95 -156 81 -152 68 -146 c 0
 57 -141 50 -130 50 -118 c 0
 50 -100 65 -88 80 -88 c 0
 85 -88 89 -89 93 -91 c 0
 101 -95 110 -97 119 -98 c 1
 129 -98 l 2
 134 -98 139 -97 143 -96 c 0
 145 -95 150 -93 153 -90 c 0
 154 -89 155 -87 155 -86 c 2
 149 -87 l 2
 149 -86 149 -85 148 -84 c 0
 145 -81 140 -80 139 -80 c 2
 137 -80 l 2
 135 -80 133 -80 131 -81 c 0
 128 -82 124 -83 121 -83 c 0
 112 -83 103 -78 97 -70 c 0
 93 -65 91 -59 91 -53 c 0
 91 -47 93 -41 97 -35 c 2
EndSplineSet
EndChar

StartChar: uni00B9
Encoding: 185 185 122
Width: 215
Flags: MW
HStem: 246 60<151 176 151 176>
VStem: 90 61<307 582 582 582>
LayerCount: 2
Fore
SplineSet
29 629 m 2
 113 648 l 2
 115 649 118 649 120 649 c 0
 126 649 133 647 139 642 c 0
 147 636 151 628 151 618 c 2
 151 306 l 1
 176 306 l 2
 193 306 206 293 206 276 c 0
 206 259 193 246 176 246 c 2
 66 246 l 1
 65 247 l 1
 48 247 35 260 35 277 c 0
 35 294 48 307 65 307 c 2
 90 307 l 1
 90 582 l 1
 43 571 l 2
 25 566 6 580 6 600 c 0
 6 614 15 626 29 629 c 2
EndSplineSet
EndChar

StartChar: ordmasculine
Encoding: 186 186 123
Width: 280
Flags: MW
HStem: 251 60<123 135 133 135 135 137> 582 60<125 127 127 129>
VStem: -17 58<440 461.5> 221 60<426.5 461.5>
LayerCount: 2
Fore
SplineSet
125 642 m 1
 129 642 l 2
 150 642 175 637 199 623 c 0
 220 610 237 592 249 572 c 0
 274 532 281 487 281 444 c 0
 281 404 275 361 253 323 c 0
 242 304 226 286 206 273 c 0
 183 258 158 252 137 251 c 1
 133 251 l 2
 113 251 89 256 66 270 c 0
 45 282 28 299 16 318 c 0
 -8 356 -16 399 -17 440 c 1
 -17 483 -14 529 7 566 c 0
 18 586 34 605 55 619 c 0
 73 631 97 641 125 642 c 1
129 582 m 2
 127 582 l 2
 115 582 101 578 88 569 c 0
 76 561 66 550 59 537 c 0
 46 513 41 483 41 452 c 0
 41 407 50 375 66 350 c 0
 74 338 84 328 96 321 c 0
 109 314 122 311 133 311 c 2
 135 311 l 2
 146 311 159 314 172 322 c 0
 183 329 193 340 200 353 c 0
 215 378 221 410 221 443 c 0
 221 480 215 513 198 540 c 0
 190 553 179 564 167 571 c 0
 154 579 140 582 129 582 c 2
EndSplineSet
EndChar

StartChar: guillemotright
Encoding: 187 187 124
Width: 417
Flags: MW
HStem: 42 182<228.5 235.5 225.5 236.5>
VStem: 23 355<126 199>
LayerCount: 2
Fore
SplineSet
282 133 m 1
 281 135 l 1
 259 146 238 158 218 169 c 0
 209 174 203 184 203 195 c 0
 203 213 218 224 233 224 c 0
 238 224 243 223 247 220 c 0
 267 208 287 196 306 186 c 0
 325 176 343 166 360 159 c 0
 371 154 378 144 378 132 c 0
 378 120 372 110 361 105 c 0
 344 98 326 88 307 78 c 2
 248 46 l 2
 243 43 239 42 234 42 c 0
 223 42 213 48 208 57 c 0
 205 62 204 66 204 71 c 0
 204 82 210 92 219 97 c 0
 239 108 260 120 282 131 c 2
 284 132 l 1
 282 133 l 1
99 131 m 1
 99 132 l 1
 78 142 58 153 38 164 c 0
 29 169 23 179 23 190 c 0
 23 208 38 219 53 219 c 0
 58 219 63 218 67 215 c 0
 87 204 107 193 127 183 c 0
 145 174 163 166 181 158 c 0
 192 153 199 143 199 131 c 0
 199 119 193 109 182 104 c 0
 164 96 146 88 128 79 c 0
 108 69 88 59 68 48 c 0
 63 45 59 44 54 44 c 0
 43 44 33 50 28 59 c 0
 25 64 24 68 24 73 c 0
 24 84 30 94 39 99 c 0
 59 110 79 121 99 131 c 1
EndSplineSet
EndChar

StartChar: onehalf
Encoding: 189 189 126
Width: 718
Flags: MW
HStem: -29 59<388 601 427 601 427 614> 246 60<151 176 151 176> 337 59<522 523 523 524>
VStem: 90 61<307 607 607 607> 366 61<-2 30 12 30> 600 60<284.5 288.5>
LayerCount: 2
Fore
SplineSet
29 654 m 2
 113 673 l 2
 115 674 118 674 120 674 c 0
 126 674 133 672 139 667 c 0
 147 661 151 653 151 643 c 2
 151 306 l 1
 176 306 l 2
 193 306 206 293 206 276 c 0
 206 259 193 246 176 246 c 2
 66 246 l 1
 65 247 l 1
 48 247 35 260 35 277 c 0
 35 294 48 307 65 307 c 2
 90 307 l 1
 90 607 l 1
 43 596 l 2
 25 591 6 605 6 625 c 0
 6 639 15 651 29 654 c 2
169 1 m 2
 371 645 l 2
 375 658 387 666 400 666 c 0
 418 666 430 652 430 636 c 0
 430 633 430 630 429 627 c 2
 227 -17 l 2
 223 -30 211 -38 198 -38 c 0
 180 -38 168 -24 168 -8 c 0
 168 -5 168 -2 169 1 c 2
522 396 m 2
 524 396 l 2
 558 396 587 386 608 373 c 0
 633 358 651 335 657 308 c 0
 659 300 660 293 660 287 c 0
 660 273 657 260 652 248 c 0
 644 229 632 213 619 200 c 0
 589 170 543 144 521 131 c 0
 513 126 468 99 445 68 c 0
 436 56 430 43 427 30 c 1
 601 30 l 1
 637 62 l 2
 643 67 650 70 657 70 c 0
 665 70 673 66 679 60 c 0
 684 54 687 47 687 40 c 0
 687 32 683 24 677 18 c 2
 632 -22 l 1
 634 -22 l 1
 628 -27 622 -29 614 -29 c 2
 396 -29 l 2
 380 -29 368 -18 366 -2 c 1
 366 12 l 2
 366 45 378 77 398 104 c 0
 412 123 434 147 490 182 c 0
 532 208 556 221 577 242 c 0
 589 254 594 264 597 270 c 0
 599 276 600 282 600 287 c 0
 600 290 600 292 599 294 c 0
 596 307 585 317 576 323 c 0
 563 331 545 337 524 337 c 2
 523 337 l 2
 503 337 483 331 469 322 c 0
 459 316 446 305 441 291 c 0
 437 278 425 270 412 270 c 0
 394 270 382 284 382 300 c 0
 382 303 382 306 383 309 c 0
 385 316 396 349 437 373 c 0
 462 388 492 396 522 396 c 2
EndSplineSet
Ligature2: "'frac' Diagonal Fractions in Latin lookup 1 subtable" one slash two
EndChar

StartChar: threequarters
Encoding: 190 190 127
Width: 718
Flags: MW
HStem: -29 21G<609.5 626.5> 100 60<387 530 451 530 451 530> 246 60<151 176 151 176>
VStem: 90 61<307 607 607 607> 588 60<1 365>
LayerCount: 2
Fore
SplineSet
29 654 m 2
 113 673 l 2
 115 674 118 674 120 674 c 0
 126 674 133 672 139 667 c 0
 147 661 151 653 151 643 c 2
 151 306 l 1
 176 306 l 2
 193 306 206 293 206 276 c 0
 206 259 193 246 176 246 c 2
 66 246 l 1
 65 247 l 1
 48 247 35 260 35 277 c 0
 35 294 48 307 65 307 c 2
 90 307 l 1
 90 607 l 1
 43 596 l 2
 25 591 6 605 6 625 c 0
 6 639 15 651 29 654 c 2
166 1 m 2
 368 645 l 2
 372 658 384 666 397 666 c 0
 415 666 427 652 427 636 c 0
 427 633 427 630 426 627 c 2
 224 -17 l 2
 220 -30 208 -38 195 -38 c 0
 177 -38 165 -24 165 -8 c 0
 165 -5 165 -2 166 1 c 2
369 146 m 2
 547 470 l 2
 553 479 563 484 573 484 c 0
 578 484 584 482 589 479 c 0
 598 473 603 463 603 453 c 0
 603 448 601 442 598 437 c 2
 451 160 l 1
 530 160 l 2
 547 160 560 147 560 130 c 0
 560 113 547 100 530 100 c 2
 393 100 l 2
 381 100 372 106 367 116 c 0
 365 120 364 125 364 129 c 0
 364 135 366 140 369 146 c 2
588 1 m 2
 588 365 l 2
 588 382 601 395 618 395 c 0
 635 395 648 382 648 365 c 2
 648 1 l 2
 648 -16 635 -29 618 -29 c 0
 601 -29 588 -16 588 1 c 2
EndSplineSet
Ligature2: "'frac' Diagonal Fractions in Latin lookup 1 subtable" three slash four
EndChar

StartChar: questiondown
Encoding: 191 191 128
Width: 351
Flags: MW
HStem: -30 59<172 174 174 182 172 188> 541 134<178.5 215.5>
VStem: 20 58<116 125 116 129.5> 130 134<589.5 626.5> 170 60<438 490 436 498.5>
LayerCount: 2
Fore
SplineSet
197 675 m 0xf0
 234 675 264 645 264 608 c 0
 264 571 234 541 197 541 c 0
 160 541 130 571 130 608 c 0
 130 645 160 675 197 675 c 0xf0
170 438 m 1xe8
 170 490 l 2
 170 507 183 520 200 520 c 0
 217 520 230 507 230 490 c 2
 230 436 l 1
 227 437 l 1
 226 399 215 361 198 328 c 0
 174 281 139 246 113 210 c 0
 100 192 90 174 84 156 c 0
 80 144 78 131 78 119 c 0
 78 113 79 107 80 101 c 0
 86 71 106 53 116 46 c 0
 134 33 155 29 172 29 c 2
 182 29 l 1
 200 31 218 37 233 47 c 0
 238 50 244 52 249 52 c 0
 259 52 269 47 275 38 c 0
 278 33 280 27 280 22 c 0
 280 12 275 2 266 -4 c 0
 243 -19 216 -28 188 -30 c 1
 174 -30 l 2
 142 -30 110 -21 83 -2 c 0
 52 20 30 53 23 90 c 0
 21 100 20 110 20 120 c 0
 20 139 23 158 29 176 c 0
 38 202 52 225 67 245 c 0
 88 275 128 319 147 355 c 0
 161 381 169 409 170 438 c 1xe8
EndSplineSet
EndChar

StartChar: Acircumflex
Encoding: 194 194 131
Width: 654
Flags: MW
HStem: -31 21G<38 53 591 599> 196 60<232.5 401 241 401> 650 20G<320 328>
VStem: 17 610<-6 1.5>
LayerCount: 2
Fore
SplineSet
301 914 m 1
 300 913 l 1
 306 921 314 925 324 925 c 0
 334 925 342 921 348 913 c 2
 420 818 l 2
 424 813 426 807 426 800 c 0
 426 791 422 782 414 776 c 0
 409 772 403 770 396 770 c 0
 387 770 378 774 372 782 c 2
 324 846 l 1
 275 782 l 2
 269 775 260 771 252 771 c 0
 245 771 239 773 233 777 c 0
 226 783 222 792 222 800 c 0
 222 807 224 813 228 819 c 2
 301 914 l 1
569 -13 m 2
 295 627 l 2
 293 631 292 635 292 639 c 0
 292 651 299 662 310 667 c 0
 314 669 318 670 322 670 c 0
 334 670 345 663 350 652 c 2
 624 12 l 2
 626 8 627 4 627 0 c 0
 627 -12 620 -23 609 -28 c 0
 605 -30 601 -31 597 -31 c 0
 585 -31 574 -24 569 -13 c 2
20 12 m 2
 242 530 l 2
 247 541 258 548 270 548 c 0
 288 548 300 533 300 518 c 0
 300 513 299 509 297 505 c 2
 75 -13 l 2
 70 -24 59 -31 47 -31 c 0
 29 -31 17 -16 17 -1 c 0
 17 4 18 8 20 12 c 2
241 256 m 2
 401 256 l 2
 418 256 431 243 431 226 c 0
 431 209 418 196 401 196 c 2
 241 196 l 2
 224 196 211 209 211 226 c 0
 211 243 224 256 241 256 c 2
EndSplineSet
Position2: "'cpsp' Capital Spacing in Latin lookup 0 subtable" dx=5 dy=0 dh=10 dv=0
EndChar

StartChar: Atilde
Encoding: 195 195 132
Width: 654
Flags: MW
HStem: -31 21G<38 53 591 599> 196 60<232.5 401 241 401> 650 20G<320 328> 767 63<387 388 388 390.5> 830 63<261.5 263 263 265 265 268>
VStem: 188 62<797.5 826.5> 407 61<842 849.5 844 849.5>
LayerCount: 2
Fore
SplineSet
468 848 m 1xf2
 474 847 l 1
 473 833 473 833 470 824 c 0
 470 822 469 820 467 816 c 0
 460 800 448 788 437 781 c 0
 426 774 412 768 395 767 c 1
 391 767 l 2
 378 767 365 770 354 775 c 0
 329 785 308 806 297 815 c 0xf2
 290 821 284 825 278 827 c 0
 274 829 272 830 268 830 c 2
 265 830 l 1
 263 830 l 2
 260 830 254 829 251 825 c 0
 249 822 249 819 249 818 c 2
 249 815 l 1
 250 812 250 809 250 805 c 0
 250 790 240 776 220 776 c 0
 208 776 196 783 192 796 c 0
 189 805 188 812 188 819 c 0
 188 834 192 849 201 862 c 0
 204 867 222 890 257 893 c 1
 263 893 l 1
 271 893 l 1
 283 892 286 891 300 885 c 0
 307 882 317 876 332 864 c 0xec
 356 844 359 839 373 833 c 0
 378 831 383 830 387 830 c 2
 388 830 l 2
 393 830 397 832 400 834 c 0
 404 836 406 839 407 842 c 0
 410 850 407 844 407 844 c 1
 408 846 408 846 408 849 c 0
 408 852 408 849 407 852 c 0
 404 870 418 887 436 887 c 0
 450 887 463 877 466 863 c 0
 467 860 468 851 468 848 c 1xf2
569 -13 m 2
 295 627 l 2
 293 631 292 635 292 639 c 0
 292 651 299 662 310 667 c 0
 314 669 318 670 322 670 c 0
 334 670 345 663 350 652 c 2
 624 12 l 2
 626 8 627 4 627 0 c 0
 627 -12 620 -23 609 -28 c 0
 605 -30 601 -31 597 -31 c 0
 585 -31 574 -24 569 -13 c 2
20 12 m 2
 242 530 l 2
 247 541 258 548 270 548 c 0
 288 548 300 533 300 518 c 0
 300 513 299 509 297 505 c 2
 75 -13 l 2
 70 -24 59 -31 47 -31 c 0
 29 -31 17 -16 17 -1 c 0
 17 4 18 8 20 12 c 2
241 256 m 2
 401 256 l 2
 418 256 431 243 431 226 c 0
 431 209 418 196 401 196 c 2
 241 196 l 2
 224 196 211 209 211 226 c 0
 211 243 224 256 241 256 c 2
EndSplineSet
Position2: "'cpsp' Capital Spacing in Latin lookup 0 subtable" dx=5 dy=0 dh=10 dv=0
EndChar

StartChar: Adieresis
Encoding: 196 196 133
Width: 654
Flags: MW
HStem: -31 21G<38 53 591 599> 196 60<232.5 401 241 401> 650 20G<320 328> 792 76<265.5 284.5 263.5 286.5 373.5 392.5>
VStem: 237 76<820.5 839.5> 345 76<820.5 839.5>
LayerCount: 2
Fore
SplineSet
275 868 m 0
 294 868 313 853 313 830 c 0
 313 811 298 792 275 792 c 0
 256 792 237 807 237 830 c 0
 237 849 252 868 275 868 c 0
383 868 m 0
 402 868 421 853 421 830 c 0
 421 811 406 792 383 792 c 0
 364 792 345 807 345 830 c 0
 345 849 360 868 383 868 c 0
569 -13 m 2
 295 627 l 2
 293 631 292 635 292 639 c 0
 292 651 299 662 310 667 c 0
 314 669 318 670 322 670 c 0
 334 670 345 663 350 652 c 2
 624 12 l 2
 626 8 627 4 627 0 c 0
 627 -12 620 -23 609 -28 c 0
 605 -30 601 -31 597 -31 c 0
 585 -31 574 -24 569 -13 c 2
20 12 m 2
 242 530 l 2
 247 541 258 548 270 548 c 0
 288 548 300 533 300 518 c 0
 300 513 299 509 297 505 c 2
 75 -13 l 2
 70 -24 59 -31 47 -31 c 0
 29 -31 17 -16 17 -1 c 0
 17 4 18 8 20 12 c 2
241 256 m 2
 401 256 l 2
 418 256 431 243 431 226 c 0
 431 209 418 196 401 196 c 2
 241 196 l 2
 224 196 211 209 211 226 c 0
 211 243 224 256 241 256 c 2
EndSplineSet
Position2: "'cpsp' Capital Spacing in Latin lookup 0 subtable" dx=5 dy=0 dh=10 dv=0
EndChar

StartChar: Aring
Encoding: 197 197 134
Width: 654
Flags: MW
HStem: -31 21G<38 53 591 599> 196 60<232.5 401 241 401> 650 20G<320 328> 772 60<319.5 326.5 319.5 343> 856 60<319.5 326.5>
VStem: 251 72 323 72
LayerCount: 2
Fore
SplineSet
323 916 m 0xea
 363 916 395 884 395 844 c 0xfa
 395 804 363 772 323 772 c 0xfc
 283 772 251 804 251 844 c 0xec
 251 884 283 916 323 916 c 0xea
323 856 m 0xec
 316 856 311 851 311 844 c 0xec
 311 837 316 832 323 832 c 0
 330 832 335 837 335 844 c 0xfa
 335 851 330 856 323 856 c 0xec
569 -13 m 2
 295 627 l 2
 293 631 292 635 292 639 c 0
 292 651 299 662 310 667 c 0
 314 669 318 670 322 670 c 0
 334 670 345 663 350 652 c 2
 624 12 l 2
 626 8 627 4 627 0 c 0
 627 -12 620 -23 609 -28 c 0
 605 -30 601 -31 597 -31 c 0
 585 -31 574 -24 569 -13 c 2
20 12 m 2
 242 530 l 2
 247 541 258 548 270 548 c 0
 288 548 300 533 300 518 c 0
 300 513 299 509 297 505 c 2
 75 -13 l 2
 70 -24 59 -31 47 -31 c 0
 29 -31 17 -16 17 -1 c 0
 17 4 18 8 20 12 c 2
241 256 m 2
 401 256 l 2
 418 256 431 243 431 226 c 0
 431 209 418 196 401 196 c 2
 241 196 l 2
 224 196 211 209 211 226 c 0
 211 243 224 256 241 256 c 2
EndSplineSet
Position2: "'cpsp' Capital Spacing in Latin lookup 0 subtable" dx=5 dy=0 dh=10 dv=0
EndChar

StartChar: AE
Encoding: 198 198 135
Width: 1080
Flags: MW
HStem: -29 60<670.5 999 679 999> 196 60<343.5 508 352 508> 315 60<672.5 939 681 939> 611 60<681 998>
VStem: 565 60<1 641>
LayerCount: 2
Fore
SplineSet
565 1 m 2
 565 641 l 2
 565 658 578 671 595 671 c 0
 612 671 625 658 625 641 c 2
 625 1 l 2
 625 -16 612 -29 595 -29 c 0
 578 -29 565 -16 565 1 c 2
681 671 m 2
 998 671 l 2
 1015 671 1028 658 1028 641 c 0
 1028 624 1015 611 998 611 c 2
 681 611 l 2
 664 611 651 624 651 641 c 0
 651 658 664 671 681 671 c 2
24 20 m 2
 491 572 l 2
 497 579 506 583 515 583 c 0
 521 583 528 581 534 576 c 0
 541 570 545 561 545 552 c 0
 545 546 543 539 538 533 c 2
 71 -19 l 2
 65 -26 56 -30 47 -30 c 0
 41 -30 34 -28 28 -23 c 0
 21 -17 17 -8 17 1 c 0
 17 7 19 14 24 20 c 2
681 375 m 2
 939 375 l 2
 956 375 969 362 969 345 c 0
 969 328 956 315 939 315 c 2
 681 315 l 2
 664 315 651 328 651 345 c 0
 651 362 664 375 681 375 c 2
352 256 m 2
 508 256 l 2
 525 256 538 243 538 226 c 0
 538 209 525 196 508 196 c 2
 352 196 l 2
 335 196 322 209 322 226 c 0
 322 243 335 256 352 256 c 2
679 31 m 2
 999 31 l 2
 1016 31 1029 18 1029 1 c 0
 1029 -16 1016 -29 999 -29 c 2
 679 -29 l 2
 662 -29 649 -16 649 1 c 0
 649 18 662 31 679 31 c 2
EndSplineSet
Position2: "'cpsp' Capital Spacing in Latin lookup 0 subtable" dx=5 dy=0 dh=10 dv=0
EndChar

StartChar: Ccedilla
Encoding: 199 199 136
Width: 644
Flags: MW
HStem: -242 61<258.5 264 264 266> -30 60<360 389.5 355 397.5> 609 61<328 380>
VStem: 36 60<306 316 306 317 306 342>
LayerCount: 2
Fore
SplineSet
357 -28 m 1
 353 -28 l 1
 296 -27 239 -10 191 21 c 0
 142 52 102 96 76 147 c 0
 51 196 38 250 36 304 c 1
 36 317 l 2
 36 367 45 417 64 464 c 0
 89 527 132 584 191 622 c 0
 239 653 296 670 354 670 c 0
 412 670 469 653 517 622 c 0
 526 616 531 606 531 596 c 0
 531 591 529 585 526 580 c 0
 520 571 510 566 500 566 c 0
 495 566 489 568 484 571 c 0
 451 592 406 609 354 609 c 0
 302 609 257 592 224 571 c 0
 171 536 138 484 120 439 c 0
 104 400 96 358 96 316 c 2
 96 306 l 1
 98 260 109 214 130 174 c 0
 152 132 185 95 224 70 c 0
 263 45 309 31 355 30 c 1
 359 30 l 2
 420 30 488 54 539 105 c 0
 545 111 553 114 561 114 c 0
 568 114 576 111 582 105 c 0
 588 99 591 91 591 84 c 0
 591 76 588 68 582 62 c 0
 519 -1 435 -30 360 -30 c 1
 357 -28 l 1
232 -118 m 2
 270 -64 l 2
 276 -56 285 -51 295 -51 c 0
 301 -51 307 -53 313 -57 c 0
 321 -63 326 -72 326 -82 c 0
 326 -88 324 -94 320 -100 c 2
 311 -113 l 1
 316 -116 321 -119 325 -123 c 0
 338 -135 346 -151 346 -170 c 2
 346 -171 l 2
 346 -194 334 -210 328 -217 c 0
 317 -229 303 -235 291 -238 c 0
 281 -241 271 -242 261 -242 c 0
 256 -242 251 -242 245 -241 c 0
 230 -239 216 -235 203 -229 c 0
 192 -224 185 -213 185 -201 c 0
 185 -183 200 -171 215 -171 c 0
 220 -171 224 -172 228 -174 c 0
 236 -178 245 -180 254 -181 c 1
 264 -181 l 2
 269 -181 274 -180 278 -179 c 0
 280 -178 285 -176 288 -173 c 0
 289 -172 290 -170 290 -169 c 2
 284 -170 l 2
 284 -169 284 -168 283 -167 c 0
 280 -164 275 -163 274 -163 c 2
 272 -163 l 2
 270 -163 268 -163 266 -164 c 0
 263 -165 259 -166 256 -166 c 0
 247 -166 238 -161 232 -153 c 0
 228 -148 226 -142 226 -136 c 0
 226 -130 228 -124 232 -118 c 2
EndSplineSet
Position2: "'cpsp' Capital Spacing in Latin lookup 0 subtable" dx=5 dy=0 dh=10 dv=0
EndChar

StartChar: Egrave
Encoding: 200 200 137
Width: 611
Flags: MW
HStem: -30 60<190.5 519 199 519> 314 60<192.5 459 201 459> 610 60<201 518>
VStem: 85 60<0 640>
LayerCount: 2
Fore
SplineSet
356 824 m 1
 355 825 l 2
 362 819 366 810 366 801 c 0
 366 795 364 788 359 782 c 0
 353 775 344 771 335 771 c 0
 329 771 322 773 316 778 c 0
 287 803 255 838 233 883 c 0
 231 887 230 892 230 896 c 0
 230 907 236 918 247 923 c 0
 251 925 256 926 260 926 c 0
 271 926 282 920 287 909 c 0
 305 874 331 845 356 824 c 1
85 0 m 2
 85 640 l 2
 85 657 98 670 115 670 c 0
 132 670 145 657 145 640 c 2
 145 0 l 2
 145 -17 132 -30 115 -30 c 0
 98 -30 85 -17 85 0 c 2
201 670 m 2
 518 670 l 2
 535 670 548 657 548 640 c 0
 548 623 535 610 518 610 c 2
 201 610 l 2
 184 610 171 623 171 640 c 0
 171 657 184 670 201 670 c 2
201 374 m 2
 459 374 l 2
 476 374 489 361 489 344 c 0
 489 327 476 314 459 314 c 2
 201 314 l 2
 184 314 171 327 171 344 c 0
 171 361 184 374 201 374 c 2
199 30 m 2
 519 30 l 2
 536 30 549 17 549 0 c 0
 549 -17 536 -30 519 -30 c 2
 199 -30 l 2
 182 -30 169 -17 169 0 c 0
 169 17 182 30 199 30 c 2
EndSplineSet
Position2: "'cpsp' Capital Spacing in Latin lookup 0 subtable" dx=5 dy=0 dh=10 dv=0
EndChar

StartChar: Eacute
Encoding: 201 201 138
Width: 611
Flags: MW
HStem: -30 60<190.5 519 199 519> 314 60<192.5 459 201 459> 610 60<201 518>
VStem: 85 60<0 640>
LayerCount: 2
Fore
SplineSet
337 778 m 1
 336 777 l 2
 330 772 323 770 317 770 c 0
 308 770 299 774 293 781 c 0
 288 787 286 794 286 800 c 0
 286 809 290 818 297 824 c 0
 322 845 348 874 366 909 c 0
 371 920 382 926 393 926 c 0
 412 926 423 912 423 896 c 0
 423 892 422 887 420 883 c 0
 398 838 366 803 337 778 c 1
85 0 m 2
 85 640 l 2
 85 657 98 670 115 670 c 0
 132 670 145 657 145 640 c 2
 145 0 l 2
 145 -17 132 -30 115 -30 c 0
 98 -30 85 -17 85 0 c 2
201 670 m 2
 518 670 l 2
 535 670 548 657 548 640 c 0
 548 623 535 610 518 610 c 2
 201 610 l 2
 184 610 171 623 171 640 c 0
 171 657 184 670 201 670 c 2
201 374 m 2
 459 374 l 2
 476 374 489 361 489 344 c 0
 489 327 476 314 459 314 c 2
 201 314 l 2
 184 314 171 327 171 344 c 0
 171 361 184 374 201 374 c 2
199 30 m 2
 519 30 l 2
 536 30 549 17 549 0 c 0
 549 -17 536 -30 519 -30 c 2
 199 -30 l 2
 182 -30 169 -17 169 0 c 0
 169 17 182 30 199 30 c 2
EndSplineSet
Position2: "'cpsp' Capital Spacing in Latin lookup 0 subtable" dx=5 dy=0 dh=10 dv=0
EndChar

StartChar: Ecircumflex
Encoding: 202 202 139
Width: 611
Flags: MW
HStem: -30 60<190.5 519 199 519> 314 60<192.5 459 201 459> 610 60<201 518>
VStem: 85 60<0 640>
LayerCount: 2
Fore
SplineSet
301 914 m 1
 300 913 l 1
 306 921 314 925 324 925 c 0
 334 925 342 921 348 913 c 2
 420 818 l 2
 424 813 426 807 426 800 c 0
 426 791 422 782 414 776 c 0
 409 772 403 770 396 770 c 0
 387 770 378 774 372 782 c 2
 324 846 l 1
 275 782 l 2
 269 775 260 771 252 771 c 0
 245 771 239 773 233 777 c 0
 226 783 222 792 222 800 c 0
 222 807 224 813 228 819 c 2
 301 914 l 1
85 0 m 2
 85 640 l 2
 85 657 98 670 115 670 c 0
 132 670 145 657 145 640 c 2
 145 0 l 2
 145 -17 132 -30 115 -30 c 0
 98 -30 85 -17 85 0 c 2
201 670 m 2
 518 670 l 2
 535 670 548 657 548 640 c 0
 548 623 535 610 518 610 c 2
 201 610 l 2
 184 610 171 623 171 640 c 0
 171 657 184 670 201 670 c 2
201 374 m 2
 459 374 l 2
 476 374 489 361 489 344 c 0
 489 327 476 314 459 314 c 2
 201 314 l 2
 184 314 171 327 171 344 c 0
 171 361 184 374 201 374 c 2
199 30 m 2
 519 30 l 2
 536 30 549 17 549 0 c 0
 549 -17 536 -30 519 -30 c 2
 199 -30 l 2
 182 -30 169 -17 169 0 c 0
 169 17 182 30 199 30 c 2
EndSplineSet
Position2: "'cpsp' Capital Spacing in Latin lookup 0 subtable" dx=5 dy=0 dh=10 dv=0
EndChar

StartChar: Edieresis
Encoding: 203 203 140
Width: 611
Flags: MW
HStem: -30 60<190.5 519 199 519> 314 60<192.5 459 201 459> 610 60<201 518> 746 76<116.5 135.5 114.5 137.5 499.5 518.5>
VStem: 85 60<0 640> 88 76<774.5 793.5> 471 76<774.5 793.5>
LayerCount: 2
Fore
SplineSet
126 822 m 0x16
 145 822 164 807 164 784 c 0
 164 765 149 746 126 746 c 0
 107 746 88 761 88 784 c 0
 88 803 103 822 126 822 c 0x16
509 822 m 0
 528 822 547 807 547 784 c 0
 547 765 532 746 509 746 c 0
 490 746 471 761 471 784 c 0
 471 803 486 822 509 822 c 0
85 0 m 2xe8
 85 640 l 2
 85 657 98 670 115 670 c 0
 132 670 145 657 145 640 c 2
 145 0 l 2
 145 -17 132 -30 115 -30 c 0
 98 -30 85 -17 85 0 c 2xe8
201 670 m 2
 518 670 l 2
 535 670 548 657 548 640 c 0
 548 623 535 610 518 610 c 2
 201 610 l 2
 184 610 171 623 171 640 c 0
 171 657 184 670 201 670 c 2
201 374 m 2
 459 374 l 2
 476 374 489 361 489 344 c 0
 489 327 476 314 459 314 c 2
 201 314 l 2
 184 314 171 327 171 344 c 0
 171 361 184 374 201 374 c 2
199 30 m 2
 519 30 l 2
 536 30 549 17 549 0 c 0
 549 -17 536 -30 519 -30 c 2
 199 -30 l 2
 182 -30 169 -17 169 0 c 0
 169 17 182 30 199 30 c 2
EndSplineSet
Position2: "'cpsp' Capital Spacing in Latin lookup 0 subtable" dx=5 dy=0 dh=10 dv=0
EndChar

StartChar: Igrave
Encoding: 204 204 141
Width: 230
Flags: MW
HStem: -30 21G<106.5 123.5> 650 20G<106.5 123.5>
VStem: 85 60<0 640>
LayerCount: 2
Fore
SplineSet
167 824 m 1
 166 825 l 2
 173 819 177 810 177 801 c 0
 177 795 175 788 170 782 c 0
 164 775 155 771 146 771 c 0
 140 771 133 773 127 778 c 0
 98 803 66 838 44 883 c 0
 42 887 41 892 41 896 c 0
 41 907 47 918 58 923 c 0
 62 925 67 926 71 926 c 0
 82 926 93 920 98 909 c 0
 116 874 142 845 167 824 c 1
85 0 m 2
 85 640 l 2
 85 657 98 670 115 670 c 0
 132 670 145 657 145 640 c 2
 145 0 l 2
 145 -17 132 -30 115 -30 c 0
 98 -30 85 -17 85 0 c 2
EndSplineSet
Position2: "'cpsp' Capital Spacing in Latin lookup 0 subtable" dx=5 dy=0 dh=10 dv=0
EndChar

StartChar: Iacute
Encoding: 205 205 142
Width: 230
Flags: MW
HStem: -30 21G<106.5 123.5> 650 20G<106.5 123.5>
VStem: 85 60<0 640>
LayerCount: 2
Fore
SplineSet
117 778 m 1
 116 777 l 2
 110 772 103 770 97 770 c 0
 88 770 79 774 73 781 c 0
 68 787 66 794 66 800 c 0
 66 809 70 818 77 824 c 0
 102 845 128 874 146 909 c 0
 151 920 162 926 173 926 c 0
 192 926 203 912 203 896 c 0
 203 892 202 887 200 883 c 0
 178 838 146 803 117 778 c 1
85 0 m 2
 85 640 l 2
 85 657 98 670 115 670 c 0
 132 670 145 657 145 640 c 2
 145 0 l 2
 145 -17 132 -30 115 -30 c 0
 98 -30 85 -17 85 0 c 2
EndSplineSet
Position2: "'cpsp' Capital Spacing in Latin lookup 0 subtable" dx=5 dy=0 dh=10 dv=0
EndChar

StartChar: Icircumflex
Encoding: 206 206 143
Width: 230
Flags: MW
HStem: -30 21G<106.5 123.5> 650 20G<106.5 123.5>
VStem: 85 60<0 640>
LayerCount: 2
Fore
SplineSet
93 914 m 1
 92 913 l 1
 98 921 106 925 116 925 c 0
 126 925 134 921 140 913 c 2
 212 818 l 2
 216 813 218 807 218 800 c 0
 218 791 214 782 206 776 c 0
 201 772 195 770 188 770 c 0
 179 770 170 774 164 782 c 2
 116 846 l 1
 67 782 l 2
 61 775 52 771 44 771 c 0
 37 771 31 773 25 777 c 0
 18 783 14 792 14 800 c 0
 14 807 16 813 20 819 c 2
 93 914 l 1
85 0 m 2
 85 640 l 2
 85 657 98 670 115 670 c 0
 132 670 145 657 145 640 c 2
 145 0 l 2
 145 -17 132 -30 115 -30 c 0
 98 -30 85 -17 85 0 c 2
EndSplineSet
Position2: "'cpsp' Capital Spacing in Latin lookup 0 subtable" dx=5 dy=0 dh=10 dv=0
EndChar

StartChar: Ntilde
Encoding: 209 209 146
Width: 663
Flags: MW
HStem: -31 21G<545 552.5> -30 21G<107.5 124.5> 650 20G<113.5 121 540.5 557.5> 767 63<388 389 389 391.5> 830 63<262.5 264 264 266 266 269>
VStem: 86 60<0 440> 189 62<797.5 826.5> 408 61<842 849.5 844 849.5> 519 60<200 640>
LayerCount: 2
Fore
SplineSet
469 848 m 1x7580
 475 847 l 1
 474 833 474 833 471 824 c 0
 471 822 470 820 468 816 c 0
 461 800 449 788 438 781 c 0
 427 774 413 768 396 767 c 1
 392 767 l 2
 379 767 366 770 355 775 c 0
 330 785 309 806 298 815 c 0xb580
 291 821 285 825 279 827 c 0
 275 829 273 830 269 830 c 2
 266 830 l 1
 264 830 l 2
 261 830 255 829 252 825 c 0
 250 822 250 819 250 818 c 2
 250 815 l 1
 251 812 251 809 251 805 c 0
 251 790 241 776 221 776 c 0
 209 776 197 783 193 796 c 0
 190 805 189 812 189 819 c 0
 189 834 193 849 202 862 c 0
 205 867 223 890 258 893 c 1
 264 893 l 1
 272 893 l 1
 284 892 287 891 301 885 c 0
 308 882 318 876 333 864 c 0x6e80
 357 844 360 839 374 833 c 0
 379 831 384 830 388 830 c 2
 389 830 l 2
 394 830 398 832 401 834 c 0
 405 836 407 839 408 842 c 0
 411 850 408 844 408 844 c 1
 409 846 409 846 409 849 c 0
 409 852 409 849 408 852 c 0
 405 870 419 887 437 887 c 0
 451 887 464 877 467 863 c 0
 468 860 469 851 469 848 c 1x7580
524 -17 m 2
 91 623 l 2
 88 628 86 634 86 639 c 0
 86 649 91 659 100 665 c 0
 105 668 111 670 116 670 c 0
 126 670 136 665 142 656 c 2
 575 16 l 2
 578 11 580 5 580 0 c 0
 580 -10 575 -20 566 -26 c 0
 561 -29 555 -31 550 -31 c 0
 540 -31 530 -26 524 -17 c 2
519 200 m 2
 519 640 l 2
 519 657 532 670 549 670 c 0
 566 670 579 657 579 640 c 2
 579 200 l 2
 579 183 566 170 549 170 c 0
 532 170 519 183 519 200 c 2
86 0 m 2x6c80
 86 440 l 2
 86 457 99 470 116 470 c 0
 133 470 146 457 146 440 c 2
 146 0 l 2
 146 -17 133 -30 116 -30 c 0
 99 -30 86 -17 86 0 c 2x6c80
EndSplineSet
Position2: "'cpsp' Capital Spacing in Latin lookup 0 subtable" dx=5 dy=0 dh=10 dv=0
EndChar

StartChar: Ograve
Encoding: 210 210 147
Width: 737
Flags: MW
HStem: -30 60<288 432 288 451.5> 610 60<288 432>
VStem: 37 59<239 401 239 415.5> 624 61<239 401>
LayerCount: 2
Fore
SplineSet
387 824 m 1
 386 825 l 2
 393 819 397 810 397 801 c 0
 397 795 395 788 390 782 c 0
 384 775 375 771 366 771 c 0
 360 771 353 773 347 778 c 0
 318 803 286 838 264 883 c 0
 262 887 261 892 261 896 c 0
 261 907 267 918 278 923 c 0
 282 925 287 926 291 926 c 0
 302 926 313 920 318 909 c 0
 336 874 362 845 387 824 c 1
361 670 m 0
 542 670 685 511 685 320 c 0
 685 129 542 -30 361 -30 c 0
 180 -30 37 129 37 320 c 0
 37 511 180 670 361 670 c 0
360 610 m 0
 216 610 96 482 96 320 c 0
 96 158 216 30 360 30 c 0
 504 30 624 158 624 320 c 0
 624 482 504 610 360 610 c 0
EndSplineSet
Position2: "'cpsp' Capital Spacing in Latin lookup 0 subtable" dx=5 dy=0 dh=10 dv=0
EndChar

StartChar: Oacute
Encoding: 211 211 148
Width: 737
Flags: MW
HStem: -30 60<288 432 288 451.5> 610 60<288 432>
VStem: 37 59<239 401 239 415.5> 624 61<239 401>
LayerCount: 2
Fore
SplineSet
354 778 m 1
 353 777 l 2
 347 772 340 770 334 770 c 0
 325 770 316 774 310 781 c 0
 305 787 303 794 303 800 c 0
 303 809 307 818 314 824 c 0
 339 845 365 874 383 909 c 0
 388 920 399 926 410 926 c 0
 429 926 440 912 440 896 c 0
 440 892 439 887 437 883 c 0
 415 838 383 803 354 778 c 1
361 670 m 0
 542 670 685 511 685 320 c 0
 685 129 542 -30 361 -30 c 0
 180 -30 37 129 37 320 c 0
 37 511 180 670 361 670 c 0
360 610 m 0
 216 610 96 482 96 320 c 0
 96 158 216 30 360 30 c 0
 504 30 624 158 624 320 c 0
 624 482 504 610 360 610 c 0
EndSplineSet
Position2: "'cpsp' Capital Spacing in Latin lookup 0 subtable" dx=5 dy=0 dh=10 dv=0
EndChar

StartChar: Ocircumflex
Encoding: 212 212 149
Width: 737
Flags: MW
HStem: -30 60<288 432 288 451.5> 610 60<288 432>
VStem: 37 59<239 401 239 415.5> 624 61<239 401>
LayerCount: 2
Fore
SplineSet
336 914 m 1
 335 913 l 1
 341 921 349 925 359 925 c 0
 369 925 377 921 383 913 c 2
 455 818 l 2
 459 813 461 807 461 800 c 0
 461 791 457 782 449 776 c 0
 444 772 438 770 431 770 c 0
 422 770 413 774 407 782 c 2
 359 846 l 1
 310 782 l 2
 304 775 295 771 287 771 c 0
 280 771 274 773 268 777 c 0
 261 783 257 792 257 800 c 0
 257 807 259 813 263 819 c 2
 336 914 l 1
361 670 m 0
 542 670 685 511 685 320 c 0
 685 129 542 -30 361 -30 c 0
 180 -30 37 129 37 320 c 0
 37 511 180 670 361 670 c 0
360 610 m 0
 216 610 96 482 96 320 c 0
 96 158 216 30 360 30 c 0
 504 30 624 158 624 320 c 0
 624 482 504 610 360 610 c 0
EndSplineSet
Position2: "'cpsp' Capital Spacing in Latin lookup 0 subtable" dx=5 dy=0 dh=10 dv=0
EndChar

StartChar: multiply
Encoding: 215 215 152
Width: 512
Flags: MW
HStem: -31 21G<47.5 55> -30 21G<430 437.5>
VStem: 21 443<-4 2.5>
LayerCount: 2
Fore
SplineSet
412 -20 m 2x60
 55 370 l 2
 50 376 47 383 47 390 c 0
 47 398 51 406 57 412 c 0
 63 417 70 420 77 420 c 0
 85 420 93 416 99 410 c 2
 456 20 l 2
 461 14 464 7 464 0 c 0
 464 -8 460 -16 454 -22 c 0
 448 -27 441 -30 434 -30 c 0
 426 -30 418 -26 412 -20 c 2x60
273 284 m 2
 389 410 l 2
 395 416 403 420 411 420 c 0
 418 420 425 417 431 412 c 0
 437 406 441 398 441 390 c 0
 441 383 438 376 433 370 c 2
 317 244 l 2
 311 238 303 234 295 234 c 0
 288 234 281 237 275 242 c 0
 269 248 265 256 265 264 c 0
 265 271 268 278 273 284 c 2
29 19 m 2xa0
 175 176 l 2
 181 182 189 186 197 186 c 0
 204 186 211 183 217 178 c 0
 223 172 227 164 227 156 c 0
 227 149 224 142 219 136 c 2
 73 -21 l 2
 67 -27 59 -31 51 -31 c 0
 44 -31 37 -28 31 -23 c 0
 25 -17 21 -9 21 -1 c 0
 21 6 24 13 29 19 c 2xa0
EndSplineSet
EndChar

StartChar: Ucircumflex
Encoding: 219 219 156
Width: 690
Flags: MW
HStem: -18 59 649 20G<572.5 589.5> 650 20G<125.5 142.5>
VStem: 104 60<210 311 410 640> 551 60<409 639> 554 60<209 210 210 311>
LayerCount: 2
Fore
SplineSet
319 913 m 1xb8
 318 912 l 1
 324 920 332 924 342 924 c 0
 352 924 360 920 366 912 c 2
 438 817 l 2
 442 812 444 806 444 799 c 0
 444 790 440 781 432 775 c 0
 427 771 421 769 414 769 c 0
 405 769 396 773 390 781 c 2
 342 845 l 1
 293 781 l 2
 287 774 278 770 270 770 c 0
 263 770 257 772 251 776 c 0
 244 782 240 791 240 799 c 0
 240 806 242 812 246 818 c 2
 319 913 l 1xb8
104 410 m 2
 104 640 l 2
 104 657 117 670 134 670 c 0
 151 670 164 657 164 640 c 2
 164 410 l 2
 164 393 151 380 134 380 c 0
 117 380 104 393 104 410 c 2
551 409 m 2
 551 639 l 2
 551 656 564 669 581 669 c 0
 598 669 611 656 611 639 c 2xd8
 611 409 l 2
 611 392 598 379 581 379 c 0
 564 379 551 392 551 409 c 2
554 209 m 2xb4
 554 311 l 2
 554 328 567 341 584 341 c 0
 601 341 614 328 614 311 c 2
 614 210 l 2
 614 205 614 178 610 157 c 0
 596 93 553 42 503 12 c 0
 481 -1 457 -11 433 -18 c 0
 409 -25 384 -28 359 -28 c 0
 334 -28 309 -25 285 -18 c 0
 261 -11 237 -1 215 12 c 0
 165 42 122 93 108 157 c 0
 104 178 104 205 104 210 c 2
 104 311 l 2
 104 328 117 341 134 341 c 0
 151 341 164 328 164 311 c 2
 164 209 l 2
 164 193 166 177 168 169 c 0
 177 126 207 87 246 64 c 0
 263 54 281 46 300 41 c 0
 319 36 339 33 359 33 c 0
 379 33 399 36 418 41 c 0
 437 46 455 54 472 64 c 0
 511 87 541 126 550 169 c 0
 552 177 554 193 554 209 c 2xb4
EndSplineSet
Position2: "'cpsp' Capital Spacing in Latin lookup 0 subtable" dx=5 dy=0 dh=10 dv=0
EndChar

StartChar: Yacute
Encoding: 221 221 158
Width: 659
Flags: MW
HStem: -30 21G<318.5 335.5> 650 20G<50.5 58 597 604.5>
VStem: 297 60<0 240>
LayerCount: 2
Fore
SplineSet
336 778 m 1
 335 777 l 2
 329 772 322 770 316 770 c 0
 307 770 298 774 292 781 c 0
 287 787 285 794 285 800 c 0
 285 809 289 818 296 824 c 0
 321 845 347 874 365 909 c 0
 370 920 381 926 392 926 c 0
 411 926 422 912 422 896 c 0
 422 892 421 887 419 883 c 0
 397 838 365 803 336 778 c 1
305 322 m 2
 32 620 l 2
 27 626 24 633 24 640 c 0
 24 648 28 656 34 662 c 0
 40 667 47 670 54 670 c 0
 62 670 70 666 76 660 c 2
 349 362 l 2
 354 356 357 349 357 342 c 0
 357 334 353 326 347 320 c 0
 341 315 334 312 327 312 c 0
 319 312 311 316 305 322 c 2
406 472 m 2
 579 660 l 2
 585 666 593 670 601 670 c 0
 608 670 615 667 621 662 c 0
 627 656 631 648 631 640 c 0
 631 633 628 626 623 620 c 2
 450 432 l 2
 444 426 436 422 428 422 c 0
 421 422 414 425 408 430 c 0
 402 436 398 444 398 452 c 0
 398 459 401 466 406 472 c 2
297 0 m 2
 297 240 l 2
 297 257 310 270 327 270 c 0
 344 270 357 257 357 240 c 2
 357 0 l 2
 357 -17 344 -30 327 -30 c 0
 310 -30 297 -17 297 0 c 2
EndSplineSet
Position2: "'cpsp' Capital Spacing in Latin lookup 0 subtable" dx=5 dy=0 dh=10 dv=0
EndChar

StartChar: Thorn
Encoding: 222 222 159
Width: 606
Flags: MW
HStem: -30 21G<107.5 124.5> 191 60<211.5 374 220 374> 532 60<208.5 362 217 362> 650 20G<107.5 124.5>
VStem: 86 60<0 640> 500 60<343 418.5>
LayerCount: 2
Fore
SplineSet
86 0 m 2
 86 640 l 2
 86 657 99 670 116 670 c 0
 133 670 146 657 146 640 c 2
 146 0 l 2
 146 -17 133 -30 116 -30 c 0
 99 -30 86 -17 86 0 c 2
217 592 m 2
 362 592 l 2
 499 592 560 494 560 386 c 0
 560 261 478 191 374 191 c 2
 220 191 l 2
 203 191 190 204 190 221 c 0
 190 238 203 251 220 251 c 2
 374 251 l 2
 450 251 500 300 500 386 c 0
 500 451 472 532 362 532 c 2
 217 532 l 2
 200 532 187 545 187 562 c 0
 187 579 200 592 217 592 c 2
EndSplineSet
Position2: "'cpsp' Capital Spacing in Latin lookup 0 subtable" dx=5 dy=0 dh=10 dv=0
EndChar

StartChar: germandbls
Encoding: 223 223 160
Width: 677
Flags: MW
HStem: -30 60<56 65 51 66 257 329> 331 60<252.5 314 261 314> 610 60<247.5 314 256 314>
VStem: -22 60<48 63.5 48 63.5> 85 59<69 71 71 639> 449 60<464 527.5> 507 60<117 186 117 213>
LayerCount: 2
Fore
SplineSet
314 610 m 2xfc
 256 610 l 2
 239 610 226 623 226 640 c 0
 226 657 239 670 256 670 c 2
 314 670 l 2
 463 670 509 581 509 494 c 0
 509 400 440 331 314 331 c 2
 261 331 l 2
 244 331 231 344 231 361 c 0
 231 378 244 391 261 391 c 2
 314 391 l 2
 405 391 449 434 449 494 c 0
 449 561 417 610 314 610 c 2xfc
85 69 m 2
 85 639 l 2
 85 656 98 669 115 669 c 0
 132 669 145 656 144 639 c 1
 144 71 l 2
 144 61 144 41 139 22 c 1
 136 14 l 2
 135 11 135 10 132 5 c 2
 126 -4 l 1
 109 -24 89 -30 65 -30 c 2
 51 -30 l 1
 8 -27 -22 15 -22 55 c 0
 -22 72 -9 85 8 85 c 0
 25 85 38 72 38 55 c 0
 38 41 49 30 56 30 c 2
 66 30 l 2
 75 30 78 31 81 34 c 2
 82 35 l 1
 82 36 l 1
 84 42 85 49 85 69 c 2
507 185 m 2xfa
 507 186 l 2
 507 240 489 277 465 298 c 0
 458 304 454 312 454 321 c 0
 454 328 457 335 462 341 c 0
 468 348 476 352 485 352 c 0
 492 352 499 349 505 344 c 0
 545 309 568 253 568 186 c 1
 567 185 l 1
 567 49 475 -30 329 -30 c 2
 257 -30 l 2
 240 -30 227 -17 227 0 c 0
 227 17 240 30 257 30 c 2
 329 30 l 2
 414 30 507 61 507 185 c 2xfa
EndSplineSet
EndChar

StartChar: agrave
Encoding: 224 224 161
Width: 654
Flags: MW
HStem: -30 21G<37 52 590 598> 197 60<231.5 400 240 400> 651 20G<319 327>
VStem: 16 610<-5 2.5>
LayerCount: 2
Fore
SplineSet
355 824 m 1
 354 825 l 2
 361 819 365 810 365 801 c 0
 365 795 363 788 358 782 c 0
 352 775 343 771 334 771 c 0
 328 771 321 773 315 778 c 0
 286 803 254 838 232 883 c 0
 230 887 229 892 229 896 c 0
 229 907 235 918 246 923 c 0
 250 925 255 926 259 926 c 0
 270 926 281 920 286 909 c 0
 304 874 330 845 355 824 c 1
568 -12 m 2
 294 628 l 2
 292 632 291 636 291 640 c 0
 291 652 298 663 309 668 c 0
 313 670 317 671 321 671 c 0
 333 671 344 664 349 653 c 2
 623 13 l 2
 625 9 626 5 626 1 c 0
 626 -11 619 -22 608 -27 c 0
 604 -29 600 -30 596 -30 c 0
 584 -30 573 -23 568 -12 c 2
19 13 m 2
 241 531 l 2
 246 542 257 549 269 549 c 0
 287 549 299 534 299 519 c 0
 299 514 298 510 296 506 c 2
 74 -12 l 2
 69 -23 58 -30 46 -30 c 0
 28 -30 16 -15 16 0 c 0
 16 5 17 9 19 13 c 2
240 257 m 2
 400 257 l 2
 417 257 430 244 430 227 c 0
 430 210 417 197 400 197 c 2
 240 197 l 2
 223 197 210 210 210 227 c 0
 210 244 223 257 240 257 c 2
EndSplineSet
EndChar

StartChar: aacute
Encoding: 225 225 162
Width: 654
Flags: MW
HStem: -33 21G<37 52 590 598> 194 60<231.5 400 240 400>
VStem: 16 610<-8 -0.5>
LayerCount: 2
Fore
SplineSet
337 778 m 1
 336 777 l 2
 330 772 323 770 317 770 c 0
 308 770 299 774 293 781 c 0
 288 787 286 794 286 800 c 0
 286 809 290 818 297 824 c 0
 322 845 348 874 366 909 c 0
 371 920 382 926 393 926 c 0
 412 926 423 912 423 896 c 0
 423 892 422 887 420 883 c 0
 398 838 366 803 337 778 c 1
568 -15 m 2
 294 625 l 2
 292 629 291 633 291 637 c 0
 291 649 298 660 309 665 c 0
 313 667 317 668 321 668 c 0
 333 668 344 661 349 650 c 2
 623 10 l 2
 625 6 626 2 626 -2 c 0
 626 -14 619 -25 608 -30 c 0
 604 -32 600 -33 596 -33 c 0
 584 -33 573 -26 568 -15 c 2
19 10 m 2
 241 528 l 2
 246 539 257 546 269 546 c 0
 287 546 299 531 299 516 c 0
 299 511 298 507 296 503 c 2
 74 -15 l 2
 69 -26 58 -33 46 -33 c 0
 28 -33 16 -18 16 -3 c 0
 16 2 17 6 19 10 c 2
240 254 m 2
 400 254 l 2
 417 254 430 241 430 224 c 0
 430 207 417 194 400 194 c 2
 240 194 l 2
 223 194 210 207 210 224 c 0
 210 241 223 254 240 254 c 2
EndSplineSet
EndChar

StartChar: acircumflex
Encoding: 226 226 163
Width: 654
Flags: MW
HStem: -33 21G<37 52 590 598> 194 60<231.5 400 240 400>
VStem: 16 610<-8 -0.5>
LayerCount: 2
Fore
SplineSet
301 914 m 1
 300 913 l 1
 306 921 314 925 324 925 c 0
 334 925 342 921 348 913 c 2
 420 818 l 2
 424 813 426 807 426 800 c 0
 426 791 422 782 414 776 c 0
 409 772 403 770 396 770 c 0
 387 770 378 774 372 782 c 2
 324 846 l 1
 275 782 l 2
 269 775 260 771 252 771 c 0
 245 771 239 773 233 777 c 0
 226 783 222 792 222 800 c 0
 222 807 224 813 228 819 c 2
 301 914 l 1
568 -15 m 2
 294 625 l 2
 292 629 291 633 291 637 c 0
 291 649 298 660 309 665 c 0
 313 667 317 668 321 668 c 0
 333 668 344 661 349 650 c 2
 623 10 l 2
 625 6 626 2 626 -2 c 0
 626 -14 619 -25 608 -30 c 0
 604 -32 600 -33 596 -33 c 0
 584 -33 573 -26 568 -15 c 2
19 10 m 2
 241 528 l 2
 246 539 257 546 269 546 c 0
 287 546 299 531 299 516 c 0
 299 511 298 507 296 503 c 2
 74 -15 l 2
 69 -26 58 -33 46 -33 c 0
 28 -33 16 -18 16 -3 c 0
 16 2 17 6 19 10 c 2
240 254 m 2
 400 254 l 2
 417 254 430 241 430 224 c 0
 430 207 417 194 400 194 c 2
 240 194 l 2
 223 194 210 207 210 224 c 0
 210 241 223 254 240 254 c 2
EndSplineSet
EndChar

StartChar: atilde
Encoding: 227 227 164
Width: 654
Flags: MW
HStem: -33 21G<44 59 597 605> 194 60<238.5 407 247 407> 767 63<387 388 388 390.5> 830 63<261.5 263 263 265 265 268>
VStem: 188 62<797.5 826.5> 407 61<842 849.5 844 849.5>
LayerCount: 2
Fore
SplineSet
468 848 m 1xe4
 474 847 l 1
 473 833 473 833 470 824 c 0
 470 822 469 820 467 816 c 0
 460 800 448 788 437 781 c 0
 426 774 412 768 395 767 c 1
 391 767 l 2
 378 767 365 770 354 775 c 0
 329 785 308 806 297 815 c 0xe4
 290 821 284 825 278 827 c 0
 274 829 272 830 268 830 c 2
 265 830 l 1
 263 830 l 2
 260 830 254 829 251 825 c 0
 249 822 249 819 249 818 c 2
 249 815 l 1
 250 812 250 809 250 805 c 0
 250 790 240 776 220 776 c 0
 208 776 196 783 192 796 c 0
 189 805 188 812 188 819 c 0
 188 834 192 849 201 862 c 0
 204 867 222 890 257 893 c 1
 263 893 l 1
 271 893 l 1
 283 892 286 891 300 885 c 0
 307 882 317 876 332 864 c 0xd8
 356 844 359 839 373 833 c 0
 378 831 383 830 387 830 c 2
 388 830 l 2
 393 830 397 832 400 834 c 0
 404 836 406 839 407 842 c 0
 410 850 407 844 407 844 c 1
 408 846 408 846 408 849 c 0
 408 852 408 849 407 852 c 0
 404 870 418 887 436 887 c 0
 450 887 463 877 466 863 c 0
 467 860 468 851 468 848 c 1xe4
575 -15 m 2
 301 625 l 2
 299 629 298 633 298 637 c 0
 298 649 305 660 316 665 c 0
 320 667 324 668 328 668 c 0
 340 668 351 661 356 650 c 2
 630 10 l 2
 632 6 633 2 633 -2 c 0
 633 -14 626 -25 615 -30 c 0
 611 -32 607 -33 603 -33 c 0
 591 -33 580 -26 575 -15 c 2
26 10 m 2
 248 528 l 2
 253 539 264 546 276 546 c 0
 294 546 306 531 306 516 c 0
 306 511 305 507 303 503 c 2
 81 -15 l 2
 76 -26 65 -33 53 -33 c 0
 35 -33 23 -18 23 -3 c 0
 23 2 24 6 26 10 c 2
247 254 m 2
 407 254 l 2
 424 254 437 241 437 224 c 0
 437 207 424 194 407 194 c 2
 247 194 l 2
 230 194 217 207 217 224 c 0
 217 241 230 254 247 254 c 2
EndSplineSet
EndChar

StartChar: aring
Encoding: 229 229 166
Width: 654
Flags: MW
HStem: -31 21G<38 53 591 599> 196 60<232.5 401 241 401> 650 20G<320 328> 772 60<318.5 325.5 318.5 342> 856 60<318.5 325.5>
VStem: 250 72 322 72
LayerCount: 2
Fore
SplineSet
322 916 m 0xea
 362 916 394 884 394 844 c 0xfa
 394 804 362 772 322 772 c 0xfc
 282 772 250 804 250 844 c 0xec
 250 884 282 916 322 916 c 0xea
322 856 m 0xec
 315 856 310 851 310 844 c 0xec
 310 837 315 832 322 832 c 0
 329 832 334 837 334 844 c 0xfa
 334 851 329 856 322 856 c 0xec
569 -13 m 2
 295 627 l 2
 293 631 292 635 292 639 c 0
 292 651 299 662 310 667 c 0
 314 669 318 670 322 670 c 0
 334 670 345 663 350 652 c 2
 624 12 l 2
 626 8 627 4 627 0 c 0
 627 -12 620 -23 609 -28 c 0
 605 -30 601 -31 597 -31 c 0
 585 -31 574 -24 569 -13 c 2
20 12 m 2
 242 530 l 2
 247 541 258 548 270 548 c 0
 288 548 300 533 300 518 c 0
 300 513 299 509 297 505 c 2
 75 -13 l 2
 70 -24 59 -31 47 -31 c 0
 29 -31 17 -16 17 -1 c 0
 17 4 18 8 20 12 c 2
241 256 m 2
 401 256 l 2
 418 256 431 243 431 226 c 0
 431 209 418 196 401 196 c 2
 241 196 l 2
 224 196 211 209 211 226 c 0
 211 243 224 256 241 256 c 2
EndSplineSet
EndChar

StartChar: ccedilla
Encoding: 231 231 168
Width: 644
Flags: MW
HStem: -194 61<303.5 309 309 311> -34 59 -29 21G<308 308> 604 61<326 378>
VStem: 34 60<301 311 301 312 301 337> 279 112<-134.5 -72>
LayerCount: 2
Fore
SplineSet
353 25 m 1xd8
 357 25 l 2xd8
 418 25 486 49 537 100 c 0
 543 106 551 109 559 109 c 0
 566 109 574 106 580 100 c 0
 586 94 589 86 589 79 c 0
 589 71 586 63 580 57 c 0
 521 -2 443 -31 371 -34 c 1
 371 -38 368 -47 365 -52 c 2
 356 -65 l 1
 361 -68 366 -71 370 -75 c 0
 383 -87 391 -103 391 -122 c 2
 391 -123 l 2xdc
 391 -146 379 -162 373 -169 c 0
 362 -181 348 -187 336 -190 c 0
 326 -193 316 -194 306 -194 c 0
 301 -194 296 -194 290 -193 c 0
 275 -191 261 -187 248 -181 c 0
 237 -176 230 -165 230 -153 c 0
 230 -135 245 -123 260 -123 c 0
 265 -123 269 -124 273 -126 c 0
 281 -130 290 -132 299 -133 c 1
 309 -133 l 2
 314 -133 319 -132 323 -131 c 0
 325 -130 330 -128 333 -125 c 0
 334 -124 335 -122 335 -121 c 2
 331 -124 l 2
 331 -123 331 -122 330 -121 c 0
 327 -118 322 -117 321 -117 c 2
 319 -117 l 2
 317 -117 315 -117 313 -118 c 0
 310 -119 306 -120 303 -120 c 0
 294 -120 285 -115 279 -107 c 0
 275 -102 273 -96 273 -90 c 0
 273 -84 275 -78 279 -72 c 2
 308 -29 l 1
 266 -22 225 -7 189 16 c 0xbc
 140 47 100 91 74 142 c 0
 49 191 36 245 34 299 c 1
 34 312 l 2
 34 362 43 412 62 459 c 0
 87 522 130 579 189 617 c 0
 237 648 294 665 352 665 c 0
 410 665 467 648 515 617 c 0
 524 611 529 601 529 591 c 0
 529 586 527 580 524 575 c 0
 518 566 508 561 498 561 c 0
 493 561 487 563 482 566 c 0
 449 587 404 604 352 604 c 0
 300 604 255 587 222 566 c 0
 169 531 136 479 118 434 c 0
 102 395 94 353 94 311 c 2
 94 301 l 1
 96 255 107 209 128 169 c 0
 150 127 183 90 222 65 c 0
 261 40 307 26 353 25 c 1xd8
EndSplineSet
EndChar

StartChar: egrave
Encoding: 232 232 169
Width: 611
Flags: MW
HStem: -29 60<189.5 518 198 518> 315 60<191.5 458 200 458> 611 60<200 517>
VStem: 84 60<1 641>
LayerCount: 2
Fore
SplineSet
355 824 m 1
 354 825 l 2
 361 819 365 810 365 801 c 0
 365 795 363 788 358 782 c 0
 352 775 343 771 334 771 c 0
 328 771 321 773 315 778 c 0
 286 803 254 838 232 883 c 0
 230 887 229 892 229 896 c 0
 229 907 235 918 246 923 c 0
 250 925 255 926 259 926 c 0
 270 926 281 920 286 909 c 0
 304 874 330 845 355 824 c 1
84 1 m 2
 84 641 l 2
 84 658 97 671 114 671 c 0
 131 671 144 658 144 641 c 2
 144 1 l 2
 144 -16 131 -29 114 -29 c 0
 97 -29 84 -16 84 1 c 2
200 671 m 2
 517 671 l 2
 534 671 547 658 547 641 c 0
 547 624 534 611 517 611 c 2
 200 611 l 2
 183 611 170 624 170 641 c 0
 170 658 183 671 200 671 c 2
200 375 m 2
 458 375 l 2
 475 375 488 362 488 345 c 0
 488 328 475 315 458 315 c 2
 200 315 l 2
 183 315 170 328 170 345 c 0
 170 362 183 375 200 375 c 2
198 31 m 2
 518 31 l 2
 535 31 548 18 548 1 c 0
 548 -16 535 -29 518 -29 c 2
 198 -29 l 2
 181 -29 168 -16 168 1 c 0
 168 18 181 31 198 31 c 2
EndSplineSet
EndChar

StartChar: eacute
Encoding: 233 233 170
Width: 611
Flags: MW
HStem: -31 60<189.5 518 198 518> 313 60<191.5 458 200 458> 609 60<200 517>
VStem: 84 60<-1 639>
LayerCount: 2
Fore
SplineSet
337 778 m 1
 336 777 l 2
 330 772 323 770 317 770 c 0
 308 770 299 774 293 781 c 0
 288 787 286 794 286 800 c 0
 286 809 290 818 297 824 c 0
 322 845 348 874 366 909 c 0
 371 920 382 926 393 926 c 0
 412 926 423 912 423 896 c 0
 423 892 422 887 420 883 c 0
 398 838 366 803 337 778 c 1
84 -1 m 2
 84 639 l 2
 84 656 97 669 114 669 c 0
 131 669 144 656 144 639 c 2
 144 -1 l 2
 144 -18 131 -31 114 -31 c 0
 97 -31 84 -18 84 -1 c 2
200 669 m 2
 517 669 l 2
 534 669 547 656 547 639 c 0
 547 622 534 609 517 609 c 2
 200 609 l 2
 183 609 170 622 170 639 c 0
 170 656 183 669 200 669 c 2
200 373 m 2
 458 373 l 2
 475 373 488 360 488 343 c 0
 488 326 475 313 458 313 c 2
 200 313 l 2
 183 313 170 326 170 343 c 0
 170 360 183 373 200 373 c 2
198 29 m 2
 518 29 l 2
 535 29 548 16 548 -1 c 0
 548 -18 535 -31 518 -31 c 2
 198 -31 l 2
 181 -31 168 -18 168 -1 c 0
 168 16 181 29 198 29 c 2
EndSplineSet
EndChar

StartChar: ecircumflex
Encoding: 234 234 171
Width: 611
Flags: MW
HStem: -31 60<189.5 518 198 518> 313 60<191.5 458 200 458> 609 60<200 517>
VStem: 84 60<-1 639>
LayerCount: 2
Fore
SplineSet
301 914 m 1
 300 913 l 1
 306 921 314 925 324 925 c 0
 334 925 342 921 348 913 c 2
 420 818 l 2
 424 813 426 807 426 800 c 0
 426 791 422 782 414 776 c 0
 409 772 403 770 396 770 c 0
 387 770 378 774 372 782 c 2
 324 846 l 1
 275 782 l 2
 269 775 260 771 252 771 c 0
 245 771 239 773 233 777 c 0
 226 783 222 792 222 800 c 0
 222 807 224 813 228 819 c 2
 301 914 l 1
84 -1 m 2
 84 639 l 2
 84 656 97 669 114 669 c 0
 131 669 144 656 144 639 c 2
 144 -1 l 2
 144 -18 131 -31 114 -31 c 0
 97 -31 84 -18 84 -1 c 2
200 669 m 2
 517 669 l 2
 534 669 547 656 547 639 c 0
 547 622 534 609 517 609 c 2
 200 609 l 2
 183 609 170 622 170 639 c 0
 170 656 183 669 200 669 c 2
200 373 m 2
 458 373 l 2
 475 373 488 360 488 343 c 0
 488 326 475 313 458 313 c 2
 200 313 l 2
 183 313 170 326 170 343 c 0
 170 360 183 373 200 373 c 2
198 29 m 2
 518 29 l 2
 535 29 548 16 548 -1 c 0
 548 -18 535 -31 518 -31 c 2
 198 -31 l 2
 181 -31 168 -18 168 -1 c 0
 168 16 181 29 198 29 c 2
EndSplineSet
EndChar

StartChar: igrave
Encoding: 236 236 173
Width: 230
Flags: MW
HStem: -29 21G<105.5 122.5> 651 20G<105.5 122.5>
VStem: 84 60<1 641>
LayerCount: 2
Fore
SplineSet
167 824 m 1
 166 825 l 2
 173 819 177 810 177 801 c 0
 177 795 175 788 170 782 c 0
 164 775 155 771 146 771 c 0
 140 771 133 773 127 778 c 0
 98 803 66 838 44 883 c 0
 42 887 41 892 41 896 c 0
 41 907 47 918 58 923 c 0
 62 925 67 926 71 926 c 0
 82 926 93 920 98 909 c 0
 116 874 142 845 167 824 c 1
84 1 m 2
 84 641 l 2
 84 658 97 671 114 671 c 0
 131 671 144 658 144 641 c 2
 144 1 l 2
 144 -16 131 -29 114 -29 c 0
 97 -29 84 -16 84 1 c 2
EndSplineSet
EndChar

StartChar: iacute
Encoding: 237 237 174
Width: 230
Flags: MW
HStem: -31 21G<105.5 122.5> 649 20G<105.5 122.5>
VStem: 84 60<-1 639>
LayerCount: 2
Fore
SplineSet
117 778 m 1
 116 777 l 2
 110 772 103 770 97 770 c 0
 88 770 79 774 73 781 c 0
 68 787 66 794 66 800 c 0
 66 809 70 818 77 824 c 0
 102 845 128 874 146 909 c 0
 151 920 162 926 173 926 c 0
 192 926 203 912 203 896 c 0
 203 892 202 887 200 883 c 0
 178 838 146 803 117 778 c 1
84 -1 m 2
 84 639 l 2
 84 656 97 669 114 669 c 0
 131 669 144 656 144 639 c 2
 144 -1 l 2
 144 -18 131 -31 114 -31 c 0
 97 -31 84 -18 84 -1 c 2
EndSplineSet
EndChar

StartChar: icircumflex
Encoding: 238 238 175
Width: 230
Flags: MW
HStem: -31 21G<105.5 122.5> 649 20G<105.5 122.5>
VStem: 84 60<-1 639>
LayerCount: 2
Fore
SplineSet
93 914 m 1
 92 913 l 1
 98 921 106 925 116 925 c 0
 126 925 134 921 140 913 c 2
 212 818 l 2
 216 813 218 807 218 800 c 0
 218 791 214 782 206 776 c 0
 201 772 195 770 188 770 c 0
 179 770 170 774 164 782 c 2
 116 846 l 1
 67 782 l 2
 61 775 52 771 44 771 c 0
 37 771 31 773 25 777 c 0
 18 783 14 792 14 800 c 0
 14 807 16 813 20 819 c 2
 93 914 l 1
84 -1 m 2
 84 639 l 2
 84 656 97 669 114 669 c 0
 131 669 144 656 144 639 c 2
 144 -1 l 2
 144 -18 131 -31 114 -31 c 0
 97 -31 84 -18 84 -1 c 2
EndSplineSet
EndChar

StartChar: idieresis
Encoding: 239 239 176
Width: 230
Flags: MW
HStem: -30 21G<106.5 123.5> 650 20G<106.5 123.5> 792 76<48.5 67.5 46.5 69.5 156.5 175.5>
VStem: 20 76<820.5 839.5> 85 60<0 640> 128 76<820.5 839.5>
LayerCount: 2
Fore
SplineSet
58 868 m 0xf4
 77 868 96 853 96 830 c 0
 96 811 81 792 58 792 c 0
 39 792 20 807 20 830 c 0
 20 849 35 868 58 868 c 0xf4
166 868 m 0
 185 868 204 853 204 830 c 0
 204 811 189 792 166 792 c 0
 147 792 128 807 128 830 c 0
 128 849 143 868 166 868 c 0
85 0 m 2xe8
 85 640 l 2
 85 657 98 670 115 670 c 0
 132 670 145 657 145 640 c 2
 145 0 l 2
 145 -17 132 -30 115 -30 c 0
 98 -30 85 -17 85 0 c 2xe8
EndSplineSet
EndChar

StartChar: eth
Encoding: 240 240 177
Width: 732
Flags: MW
HStem: -30 60<314.5 383 323 368 368 383 383 396 323 399> 287 60<25.5 159 34 159 345 470> 610 60<321.5 365 330 364>
VStem: 208 60<2 642> 619 58<316 318 318 320 297 336.5>
LayerCount: 2
Fore
SplineSet
208 2 m 2
 208 642 l 2
 208 659 221 672 238 672 c 0
 255 672 268 659 268 642 c 2
 268 2 l 2
 268 -15 255 -28 238 -28 c 0
 221 -28 208 -15 208 2 c 2
365 670 m 1
 363 672 l 1
 378 671 394 670 409 668 c 0
 446 662 483 651 517 633 c 0
 551 615 582 590 606 559 c 0
 633 525 651 485 662 444 c 0
 673 403 677 361 677 320 c 2
 677 318 l 2
 677 276 673 233 662 191 c 0
 650 148 631 106 602 71 c 0
 564 25 516 -2 473 -16 c 0
 449 -24 424 -29 399 -30 c 1
 383 -30 l 1
 368 -30 l 1
 323 -30 l 2
 306 -30 293 -17 293 0 c 0
 293 17 306 30 323 30 c 2
 383 30 l 1
 396 30 l 1
 416 31 436 35 455 41 c 0
 488 52 526 73 556 109 c 0
 579 136 595 170 605 206 c 0
 615 241 619 278 619 316 c 2
 619 318 l 2
 619 355 615 392 606 427 c 0
 597 461 582 493 561 520 c 0
 542 544 518 564 491 578 c 0
 464 592 434 601 402 606 c 0
 389 608 377 609 364 610 c 1
 330 610 l 2
 313 610 300 623 300 640 c 0
 300 657 313 670 330 670 c 2
 365 670 l 1
34 347 m 2
 159 347 l 2
 176 347 189 334 189 317 c 0
 189 300 176 287 159 287 c 2
 34 287 l 2
 17 287 4 300 4 317 c 0
 4 334 17 347 34 347 c 2
470 287 m 2
 345 287 l 2
 328 287 315 300 315 317 c 0
 315 334 328 347 345 347 c 2
 470 347 l 2
 487 347 500 334 500 317 c 0
 500 300 487 287 470 287 c 2
EndSplineSet
EndChar

StartChar: ntilde
Encoding: 241 241 178
Width: 663
Flags: MW
HStem: -32 21G<551 558.5> -31 21G<113.5 130.5> 649 20G<119.5 127 546.5 563.5> 767 63<387 388 388 390.5> 830 63<261.5 263 263 265 265 268>
VStem: 92 60<-1 439> 188 62<797.5 826.5> 407 61<842 849.5 844 849.5> 525 60<199 639>
LayerCount: 2
Fore
SplineSet
468 848 m 1x7580
 474 847 l 1
 473 833 473 833 470 824 c 0
 470 822 469 820 467 816 c 0
 460 800 448 788 437 781 c 0
 426 774 412 768 395 767 c 1
 391 767 l 2
 378 767 365 770 354 775 c 0
 329 785 308 806 297 815 c 0xb580
 290 821 284 825 278 827 c 0
 274 829 272 830 268 830 c 2
 265 830 l 1
 263 830 l 2
 260 830 254 829 251 825 c 0
 249 822 249 819 249 818 c 2
 249 815 l 1
 250 812 250 809 250 805 c 0
 250 790 240 776 220 776 c 0
 208 776 196 783 192 796 c 0
 189 805 188 812 188 819 c 0
 188 834 192 849 201 862 c 0
 204 867 222 890 257 893 c 1
 263 893 l 1
 271 893 l 1
 283 892 286 891 300 885 c 0
 307 882 317 876 332 864 c 0x6e80
 356 844 359 839 373 833 c 0
 378 831 383 830 387 830 c 2
 388 830 l 2
 393 830 397 832 400 834 c 0
 404 836 406 839 407 842 c 0
 410 850 407 844 407 844 c 1
 408 846 408 846 408 849 c 0
 408 852 408 849 407 852 c 0
 404 870 418 887 436 887 c 0
 450 887 463 877 466 863 c 0
 467 860 468 851 468 848 c 1x7580
530 -18 m 2
 97 622 l 2
 94 627 92 633 92 638 c 0
 92 648 97 658 106 664 c 0
 111 667 117 669 122 669 c 0
 132 669 142 664 148 655 c 2
 581 15 l 2
 584 10 586 4 586 -1 c 0
 586 -11 581 -21 572 -27 c 0
 567 -30 561 -32 556 -32 c 0
 546 -32 536 -27 530 -18 c 2
525 199 m 2
 525 639 l 2
 525 656 538 669 555 669 c 0
 572 669 585 656 585 639 c 2
 585 199 l 2
 585 182 572 169 555 169 c 0
 538 169 525 182 525 199 c 2
92 -1 m 2x6c80
 92 439 l 2
 92 456 105 469 122 469 c 0
 139 469 152 456 152 439 c 2
 152 -1 l 2
 152 -18 139 -31 122 -31 c 0
 105 -31 92 -18 92 -1 c 2x6c80
EndSplineSet
EndChar

StartChar: ograve
Encoding: 242 242 179
Width: 737
Flags: MW
HStem: -29 60<287 431 287 450.5> 611 60<287 431>
VStem: 36 59<240 402 240 416.5> 623 61<240 402>
LayerCount: 2
Fore
SplineSet
387 824 m 1
 386 825 l 2
 393 819 397 810 397 801 c 0
 397 795 395 788 390 782 c 0
 384 775 375 771 366 771 c 0
 360 771 353 773 347 778 c 0
 318 803 286 838 264 883 c 0
 262 887 261 892 261 896 c 0
 261 907 267 918 278 923 c 0
 282 925 287 926 291 926 c 0
 302 926 313 920 318 909 c 0
 336 874 362 845 387 824 c 1
360 671 m 0
 541 671 684 512 684 321 c 0
 684 130 541 -29 360 -29 c 0
 179 -29 36 130 36 321 c 0
 36 512 179 671 360 671 c 0
359 611 m 0
 215 611 95 483 95 321 c 0
 95 159 215 31 359 31 c 0
 503 31 623 159 623 321 c 0
 623 483 503 611 359 611 c 0
EndSplineSet
EndChar

StartChar: oacute
Encoding: 243 243 180
Width: 737
Flags: MW
HStem: -32 60<287 431 287 450.5> 608 60<287 431>
VStem: 36 59<237 399 237 413.5> 623 61<237 399>
LayerCount: 2
Fore
SplineSet
355 778 m 1
 354 777 l 2
 348 772 341 770 335 770 c 0
 326 770 317 774 311 781 c 0
 306 787 304 794 304 800 c 0
 304 809 308 818 315 824 c 0
 340 845 366 874 384 909 c 0
 389 920 400 926 411 926 c 0
 430 926 441 912 441 896 c 0
 441 892 440 887 438 883 c 0
 416 838 384 803 355 778 c 1
360 668 m 0
 541 668 684 509 684 318 c 0
 684 127 541 -32 360 -32 c 0
 179 -32 36 127 36 318 c 0
 36 509 179 668 360 668 c 0
359 608 m 0
 215 608 95 480 95 318 c 0
 95 156 215 28 359 28 c 0
 503 28 623 156 623 318 c 0
 623 480 503 608 359 608 c 0
EndSplineSet
EndChar

StartChar: ocircumflex
Encoding: 244 244 181
Width: 737
Flags: MW
HStem: -32 60<287 431 287 450.5> 608 60<287 431>
VStem: 36 59<237 399 237 413.5> 623 61<237 399>
LayerCount: 2
Fore
SplineSet
337 914 m 1
 336 913 l 1
 342 921 350 925 360 925 c 0
 370 925 378 921 384 913 c 2
 456 818 l 2
 460 813 462 807 462 800 c 0
 462 791 458 782 450 776 c 0
 445 772 439 770 432 770 c 0
 423 770 414 774 408 782 c 2
 360 846 l 1
 311 782 l 2
 305 775 296 771 288 771 c 0
 281 771 275 773 269 777 c 0
 262 783 258 792 258 800 c 0
 258 807 260 813 264 819 c 2
 337 914 l 1
360 668 m 0
 541 668 684 509 684 318 c 0
 684 127 541 -32 360 -32 c 0
 179 -32 36 127 36 318 c 0
 36 509 179 668 360 668 c 0
359 608 m 0
 215 608 95 480 95 318 c 0
 95 156 215 28 359 28 c 0
 503 28 623 156 623 318 c 0
 623 480 503 608 359 608 c 0
EndSplineSet
EndChar

StartChar: odieresis
Encoding: 246 246 183
Width: 737
Flags: MW
HStem: -30 60<288 432 288 451.5> 610 60<288 432> 746 76<116.5 135.5 114.5 137.5 579.5 598.5>
VStem: 37 59<239 401 239 415.5> 88 76<774.5 793.5> 551 76<774.5 793.5> 624 61<239 401>
LayerCount: 2
Fore
SplineSet
126 822 m 0xec
 145 822 164 807 164 784 c 0
 164 765 149 746 126 746 c 0
 107 746 88 761 88 784 c 0
 88 803 103 822 126 822 c 0xec
589 822 m 0
 608 822 627 807 627 784 c 0
 627 765 612 746 589 746 c 0
 570 746 551 761 551 784 c 0
 551 803 566 822 589 822 c 0
361 670 m 0xd2
 542 670 685 511 685 320 c 0
 685 129 542 -30 361 -30 c 0
 180 -30 37 129 37 320 c 0
 37 511 180 670 361 670 c 0xd2
360 610 m 0
 216 610 96 482 96 320 c 0
 96 158 216 30 360 30 c 0
 504 30 624 158 624 320 c 0
 624 482 504 610 360 610 c 0
EndSplineSet
EndChar

StartChar: divide
Encoding: 247 247 184
Width: 222
Flags: MW
HStem: -30 134<100.5 137.5> 191 60<38.5 172 47 172> 346 134<100.5 137.5>
VStem: 52 134<18.5 55.5 394.5 431.5>
LayerCount: 2
Fore
SplineSet
119 346 m 0
 82 346 52 376 52 413 c 0
 52 450 82 480 119 480 c 0
 156 480 186 450 186 413 c 0
 186 376 156 346 119 346 c 0
47 251 m 2
 172 251 l 2
 189 251 202 238 202 221 c 0
 202 204 189 191 172 191 c 2
 47 191 l 2
 30 191 17 204 17 221 c 0
 17 238 30 251 47 251 c 2
119 104 m 0
 156 104 186 74 186 37 c 0
 186 0 156 -30 119 -30 c 0
 82 -30 52 0 52 37 c 0
 52 74 82 104 119 104 c 0
EndSplineSet
EndChar

StartChar: oslash
Encoding: 248 248 185
Width: 737
Flags: MW
HStem: -30 60<288 432 288 451.5> 610 60<288 432>
VStem: 37 59<239 401 239 415.5> 624 61<239 401>
LayerCount: 2
Fore
SplineSet
361 670 m 0
 542 670 685 511 685 320 c 0
 685 129 542 -30 361 -30 c 0
 180 -30 37 129 37 320 c 0
 37 511 180 670 361 670 c 0
360 610 m 0
 216 610 96 482 96 320 c 0
 96 158 216 30 360 30 c 0
 504 30 624 158 624 320 c 0
 624 482 504 610 360 610 c 0
278 165 m 2
 386 507 l 2
 390 520 402 528 415 528 c 0
 433 528 445 514 445 498 c 0
 445 495 445 492 444 489 c 2
 336 147 l 2
 332 134 320 126 307 126 c 0
 289 126 277 140 277 156 c 0
 277 159 277 162 278 165 c 2
EndSplineSet
EndChar

StartChar: ugrave
Encoding: 249 249 186
Width: 690
Flags: MW
HStem: -18 59 649 20G<572.5 589.5> 650 20G<125.5 142.5>
VStem: 104 60<210 311 410 640> 551 60<409 639> 554 60<209 210 210 311>
LayerCount: 2
Fore
SplineSet
375 824 m 1xb8
 374 825 l 2
 381 819 385 810 385 801 c 0
 385 795 383 788 378 782 c 0
 372 775 363 771 354 771 c 0
 348 771 341 773 335 778 c 0
 306 803 274 838 252 883 c 0
 250 887 249 892 249 896 c 0
 249 907 255 918 266 923 c 0
 270 925 275 926 279 926 c 0
 290 926 301 920 306 909 c 0
 324 874 350 845 375 824 c 1xb8
104 410 m 2
 104 640 l 2
 104 657 117 670 134 670 c 0
 151 670 164 657 164 640 c 2
 164 410 l 2
 164 393 151 380 134 380 c 0
 117 380 104 393 104 410 c 2
551 409 m 2
 551 639 l 2
 551 656 564 669 581 669 c 0
 598 669 611 656 611 639 c 2xd8
 611 409 l 2
 611 392 598 379 581 379 c 0
 564 379 551 392 551 409 c 2
554 209 m 2xb4
 554 311 l 2
 554 328 567 341 584 341 c 0
 601 341 614 328 614 311 c 2
 614 210 l 2
 614 205 614 178 610 157 c 0
 596 93 553 42 503 12 c 0
 481 -1 457 -11 433 -18 c 0
 409 -25 384 -28 359 -28 c 0
 334 -28 309 -25 285 -18 c 0
 261 -11 237 -1 215 12 c 0
 165 42 122 93 108 157 c 0
 104 178 104 205 104 210 c 2
 104 311 l 2
 104 328 117 341 134 341 c 0
 151 341 164 328 164 311 c 2
 164 209 l 2
 164 193 166 177 168 169 c 0
 177 126 207 87 246 64 c 0
 263 54 281 46 300 41 c 0
 319 36 339 33 359 33 c 0
 379 33 399 36 418 41 c 0
 437 46 455 54 472 64 c 0
 511 87 541 126 550 169 c 0
 552 177 554 193 554 209 c 2xb4
EndSplineSet
EndChar

StartChar: ucircumflex
Encoding: 251 251 188
Width: 690
Flags: MW
HStem: -18 59 649 20G<572.5 589.5> 650 20G<125.5 142.5>
VStem: 104 60<210 311 410 640> 551 60<409 639> 554 60<209 210 210 311>
LayerCount: 2
Fore
SplineSet
319 914 m 1xb8
 318 913 l 1
 324 921 332 925 342 925 c 0
 352 925 360 921 366 913 c 2
 438 818 l 2
 442 813 444 807 444 800 c 0
 444 791 440 782 432 776 c 0
 427 772 421 770 414 770 c 0
 405 770 396 774 390 782 c 2
 342 846 l 1
 293 782 l 2
 287 775 278 771 270 771 c 0
 263 771 257 773 251 777 c 0
 244 783 240 792 240 800 c 0
 240 807 242 813 246 819 c 2
 319 914 l 1xb8
104 410 m 2
 104 640 l 2
 104 657 117 670 134 670 c 0
 151 670 164 657 164 640 c 2
 164 410 l 2
 164 393 151 380 134 380 c 0
 117 380 104 393 104 410 c 2
551 409 m 2
 551 639 l 2
 551 656 564 669 581 669 c 0
 598 669 611 656 611 639 c 2xd8
 611 409 l 2
 611 392 598 379 581 379 c 0
 564 379 551 392 551 409 c 2
554 209 m 2xb4
 554 311 l 2
 554 328 567 341 584 341 c 0
 601 341 614 328 614 311 c 2
 614 210 l 2
 614 205 614 178 610 157 c 0
 596 93 553 42 503 12 c 0
 481 -1 457 -11 433 -18 c 0
 409 -25 384 -28 359 -28 c 0
 334 -28 309 -25 285 -18 c 0
 261 -11 237 -1 215 12 c 0
 165 42 122 93 108 157 c 0
 104 178 104 205 104 210 c 2
 104 311 l 2
 104 328 117 341 134 341 c 0
 151 341 164 328 164 311 c 2
 164 209 l 2
 164 193 166 177 168 169 c 0
 177 126 207 87 246 64 c 0
 263 54 281 46 300 41 c 0
 319 36 339 33 359 33 c 0
 379 33 399 36 418 41 c 0
 437 46 455 54 472 64 c 0
 511 87 541 126 550 169 c 0
 552 177 554 193 554 209 c 2xb4
EndSplineSet
EndChar

StartChar: udieresis
Encoding: 252 252 189
Width: 690
Flags: MW
HStem: -18 59 649 20G<572.5 589.5> 650 20G<125.5 142.5> 746 76<116.5 135.5 114.5 137.5 579.5 598.5>
VStem: 88 76<774.5 793.5> 104 60<210 311 410 640> 551 60<409 639> 551 76<774.5 793.5> 554 60<209 210 210 311>
LayerCount: 2
Fore
SplineSet
126 822 m 0xb9
 145 822 164 807 164 784 c 0
 164 765 149 746 126 746 c 0
 107 746 88 761 88 784 c 0
 88 803 103 822 126 822 c 0xb9
589 822 m 0
 608 822 627 807 627 784 c 0
 627 765 612 746 589 746 c 0
 570 746 551 761 551 784 c 0
 551 803 566 822 589 822 c 0
104 410 m 2xb6
 104 640 l 2
 104 657 117 670 134 670 c 0
 151 670 164 657 164 640 c 2
 164 410 l 2
 164 393 151 380 134 380 c 0
 117 380 104 393 104 410 c 2xb6
551 409 m 2
 551 639 l 2
 551 656 564 669 581 669 c 0
 598 669 611 656 611 639 c 2xd6
 611 409 l 2
 611 392 598 379 581 379 c 0
 564 379 551 392 551 409 c 2
554 209 m 2xb480
 554 311 l 2
 554 328 567 341 584 341 c 0
 601 341 614 328 614 311 c 2
 614 210 l 2
 614 205 614 178 610 157 c 0
 596 93 553 42 503 12 c 0
 481 -1 457 -11 433 -18 c 0
 409 -25 384 -28 359 -28 c 0
 334 -28 309 -25 285 -18 c 0
 261 -11 237 -1 215 12 c 0
 165 42 122 93 108 157 c 0
 104 178 104 205 104 210 c 2
 104 311 l 2
 104 328 117 341 134 341 c 0
 151 341 164 328 164 311 c 2
 164 209 l 2
 164 193 166 177 168 169 c 0
 177 126 207 87 246 64 c 0
 263 54 281 46 300 41 c 0
 319 36 339 33 359 33 c 0
 379 33 399 36 418 41 c 0
 437 46 455 54 472 64 c 0
 511 87 541 126 550 169 c 0
 552 177 554 193 554 209 c 2xb480
EndSplineSet
EndChar

StartChar: yacute
Encoding: 253 253 190
Width: 659
Flags: MW
HStem: -31 21G<317.5 334.5> 649 20G<49.5 57 596 603.5>
VStem: 296 60<-1 239>
LayerCount: 2
Fore
SplineSet
337 778 m 1
 336 777 l 2
 330 772 323 770 317 770 c 0
 308 770 299 774 293 781 c 0
 288 787 286 794 286 800 c 0
 286 809 290 818 297 824 c 0
 322 845 348 874 366 909 c 0
 371 920 382 926 393 926 c 0
 412 926 423 912 423 896 c 0
 423 892 422 887 420 883 c 0
 398 838 366 803 337 778 c 1
304 321 m 2
 31 619 l 2
 26 625 23 632 23 639 c 0
 23 647 27 655 33 661 c 0
 39 666 46 669 53 669 c 0
 61 669 69 665 75 659 c 2
 348 361 l 2
 353 355 356 348 356 341 c 0
 356 333 352 325 346 319 c 0
 340 314 333 311 326 311 c 0
 318 311 310 315 304 321 c 2
405 471 m 2
 578 659 l 2
 584 665 592 669 600 669 c 0
 607 669 614 666 620 661 c 0
 626 655 630 647 630 639 c 0
 630 632 627 625 622 619 c 2
 449 431 l 2
 443 425 435 421 427 421 c 0
 420 421 413 424 407 429 c 0
 401 435 397 443 397 451 c 0
 397 458 400 465 405 471 c 2
296 -1 m 2
 296 239 l 2
 296 256 309 269 326 269 c 0
 343 269 356 256 356 239 c 2
 356 -1 l 2
 356 -18 343 -31 326 -31 c 0
 309 -31 296 -18 296 -1 c 2
EndSplineSet
EndChar

StartChar: ydieresis
Encoding: 255 255 192
Width: 659
Flags: MW
HStem: -30 21G<318.5 335.5> 650 20G<50.5 58 597 604.5> 746 76<86.5 105.5 84.5 107.5 549.5 568.5>
VStem: 58 76<774.5 793.5> 297 60<0 240> 521 76<774.5 793.5>
LayerCount: 2
Fore
SplineSet
96 822 m 0
 115 822 134 807 134 784 c 0
 134 765 119 746 96 746 c 0
 77 746 58 761 58 784 c 0
 58 803 73 822 96 822 c 0
559 822 m 0
 578 822 597 807 597 784 c 0
 597 765 582 746 559 746 c 0
 540 746 521 761 521 784 c 0
 521 803 536 822 559 822 c 0
305 322 m 2
 32 620 l 2
 27 626 24 633 24 640 c 0
 24 648 28 656 34 662 c 0
 40 667 47 670 54 670 c 0
 62 670 70 666 76 660 c 2
 349 362 l 2
 354 356 357 349 357 342 c 0
 357 334 353 326 347 320 c 0
 341 315 334 312 327 312 c 0
 319 312 311 316 305 322 c 2
406 472 m 2
 579 660 l 2
 585 666 593 670 601 670 c 0
 608 670 615 667 621 662 c 0
 627 656 631 648 631 640 c 0
 631 633 628 626 623 620 c 2
 450 432 l 2
 444 426 436 422 428 422 c 0
 421 422 414 425 408 430 c 0
 402 436 398 444 398 452 c 0
 398 459 401 466 406 472 c 2
297 0 m 2
 297 240 l 2
 297 257 310 270 327 270 c 0
 344 270 357 257 357 240 c 2
 357 0 l 2
 357 -17 344 -30 327 -30 c 0
 310 -30 297 -17 297 0 c 2
EndSplineSet
EndChar

StartChar: oe
Encoding: 339 339 194
Width: 1090
Flags: MW
HStem: -31 60<683.5 1012 692 1012> -29 60<319 375.5 319 375.5 345.5 375.5 344.5 384> 313 60<685.5 952 694 952> 609 60<331.5 355 694 1011>
VStem: 33 56<288.5 343 288.5 343> 578 60<-1 639>
LayerCount: 2
Fore
SplineSet
323 -29 m 1x7c
 319 -29 l 1
 262 -23 207 -1 162 34 c 0
 116 69 81 117 59 170 c 0
 38 221 30 276 33 330 c 1
 33 343 l 1
 37 393 51 442 74 487 c 0
 105 548 153 601 215 634 c 0
 258 657 307 669 356 669 c 0
 364 669 373 669 381 668 c 0
 438 663 493 641 538 605 c 0
 545 599 549 590 549 582 c 0
 549 575 547 569 543 563 c 0
 537 556 528 552 520 552 c 0
 513 552 507 554 501 558 c 0
 470 582 426 603 374 608 c 0
 366 609 359 609 351 609 c 0
 308 609 270 597 241 582 c 0
 185 552 147 504 125 461 c 0
 106 423 94 381 90 339 c 1
 90 329 l 2
 90 322 89 315 89 308 c 0
 89 269 97 230 111 194 c 0
 129 150 158 111 195 83 c 0
 232 55 277 37 323 32 c 1
 327 32 l 1
 334 31 341 31 348 31 c 0
 403 31 464 49 514 90 c 0
 520 95 527 97 533 97 c 0
 542 97 551 93 557 86 c 0
 562 80 564 73 564 67 c 0
 564 58 560 49 553 43 c 0
 492 -7 418 -29 350 -29 c 0
 341 -29 331 -29 322 -28 c 1
 323 -29 l 1x7c
578 -1 m 2xbc
 578 639 l 2
 578 656 591 669 608 669 c 0
 625 669 638 656 638 639 c 2
 638 -1 l 2
 638 -18 625 -31 608 -31 c 0
 591 -31 578 -18 578 -1 c 2xbc
694 669 m 2
 1011 669 l 2
 1028 669 1041 656 1041 639 c 0
 1041 622 1028 609 1011 609 c 2
 694 609 l 2
 677 609 664 622 664 639 c 0
 664 656 677 669 694 669 c 2
694 373 m 2
 952 373 l 2
 969 373 982 360 982 343 c 0
 982 326 969 313 952 313 c 2
 694 313 l 2
 677 313 664 326 664 343 c 0
 664 360 677 373 694 373 c 2
692 29 m 2
 1012 29 l 2
 1029 29 1042 16 1042 -1 c 0
 1042 -18 1029 -31 1012 -31 c 2
 692 -31 l 2
 675 -31 662 -18 662 -1 c 0
 662 16 675 29 692 29 c 2
EndSplineSet
EndChar
